<?xml version="1.0" encoding="UTF-8" standalone="yes"?>
<svg xmlns:rdf="http://www.w3.org/1999/02/22-rdf-syntax-ns#" xmlns="http://www.w3.org/2000/svg" height="76.063096" width="43.453" version="1.1" xmlns:cc="http://creativecommons.org/ns#" xmlns:dc="http://purl.org/dc/elements/1.1/" viewBox="0 0 43.20098 76.063096">
 <g style="" fill="#492f24" transform="matrix(.17172 0 0 .17172 -6.1804 -9.2457)">
  <path d="m186.57 53.84c1.73 0.53 3.45 1.12 5.18 1.67 0.47 0.91 0.94 1.83 1.42 2.75 2.53-0.62 5.13-0.83 7.71-0.37 0.6 1.82 1.15 3.65 1.66 5.5-0.34 1.47-0.67 2.94-1.01 4.41 0.39 1.98 0.75 3.97 1.09 5.96 7.03 1.54 14.44 5.45 17.15 12.53 1.59 2.46 0.68 5.41 0.96 8.15-1.1 1.02-2.17 2.07-3.2 3.17-3.67 2.71-7.95 4.34-12.05 6.27-5-0.55-10.11 0.27-14.99-1.21-1.68-0.74-3.35-1.6-5.17-1.88-3.49 2.19-7.41 3.57-10.8 5.93-5.21 1.39-8.85 5.71-13.23 8.6-2.29 1.58-2.39 4.6-2.32 7.11 2.56 2.41 3.71 5.87 6.13 8.4 2.52 2.51 4.56 5.43 7.06 7.97 2.77-1.75 4.57-4.92 7.84-5.86 1.85-0.69 3.85-0.69 5.8-0.88-0.31-1.2-0.61-2.4-0.91-3.61 1.41-0.55 2.82-1.1 4.23-1.64 1.18 1.26 2.33 2.55 3.55 3.78 0.72 2.45 1.7 4.82 2.63 7.2 0.96-0.45 1.93-0.9 2.9-1.34-1.58-3.65-1.28-7.6 0.84-10.96 0.67-0.13 2-0.37 2.67-0.49 0.43-1.36 0.89-2.7 1.36-4.04 6.33-1.69 12.9-4.32 19.48-3.53 3.03 0.88 6.05 1.87 8.9 3.26 1.76 0.54 1.46 2.62 1.93 4.02 1.27 0.7 2.62 1.27 3.81 2.11 2.16 4.67 5.35 8.86 5.75 14.18 0.94 2.46-1.85 3.34-3.16 4.8-1.9 1.41-2.86 3.58-3.97 5.59-3.3-0.39-6.55-0.04-9.75 0.78-0.95 1.81-1.3 4.1-2.9 5.48-1.66-0.15-3.28-0.49-4.92-0.78-4.25 1.82-9.14 3.55-13.49 0.98 0.84 2.72 2.14 5.55 0.73 8.35 1.17 3.65 2.74 7.16 4.38 10.62 0.42 5.44 1.58 10.79 1.9 16.24 0.36 12.27 1.28 24.55 0.86 36.83 0.83 5.27 0.93 10.63 1.91 15.87-0.5 1.22-0.99 2.44-1.47 3.67 3.3-0.69 6.46-1.91 9.39-3.57 1.78 2.11 3.65 4.19 5.04 6.59 0.35 3.48 1.84 6.75 2.26 10.18-1.47 0.05-2.94-0.02-4.41-0.06-1.27-1.43-2.25-3.29-4.1-4.05-3.98 2.03-0.19 8.48-4.36 10.37-1.75 0.87-3.73 1.14-5.58 1.72 0.56 1.47 0.56 3.22 1.52 4.52 1.77 1.55 4.16 2.41 5.58 4.34 2.21 4.88 4.86 9.54 6.76 14.57 1.07 0.3 2.14 0.6 3.22 0.92 1.28-5.94 1.22-12.08 2.65-17.98 1.43 0.01 2.86 0.03 4.29 0.05-0.33 2.45-1.7 4.9-0.95 7.38 1.71 7.04 4.59 13.93 3.86 21.33 5.94 0.15 8.28 6.43 9.35 11.31 0.57 1.26-0.48 3.81-2.17 2.87-2.1-1.33-3.41-3.49-4.66-5.56-0.45 0.22-1.35 0.67-1.79 0.89 0.1 1.2 0.21 2.41 0.32 3.62 5.1 1.31 10.14 3.33 14.47 6.36 2.11 1.17 2 3.74 2.45 5.8-1.21 0.02-2.43 0.04-3.64 0.05-1.33-1.39-2.64-2.81-4.12-4.04-1.74-0.27-1.86 2.25-2.84 3.19 1.33 1.15 2.89 1.99 4.53 2.63 8.46 3.93 13.83 11.94 17.62 20.15-0.78 0.42-2.35 1.28-3.13 1.71-2.53-2.51-5.46-4.52-8.73-5.92-2.35 3.23 1.8 5.71 4.06 7.36 4.38 1.97 9.81 1.04 13.8 4.04 3.4 1.9 5.29 5.44 7.93 8.18 1.5 1.52 2.4 3.45 3.23 5.39-0.31 0.74-0.93 2.23-1.24 2.98-3.22-1.39-3.05-5.65-6.16-7.2-0.65 1.63-1.29 3.27-1.85 4.94-1.97 1.59-4.55 1.68-6.74 2.7-0.34 2.19 2.2 1.62 3.58 2.05 1.6 1.44 3.33 2.73 4.89 4.21 2.35 3.9 5.34 7.57 9.38 9.83 1.56 2.54 3.5 5.54 1.23 8.34-5.92-2.71-10.28-8.65-17.16-9.25-0.73 3.35 1.32 6.26 2.43 9.27 5.95 4.63 12.99 9.97 13.78 18.07-1.22 0.16-2.45 0.3-3.68 0.44-0.86-1.35-1.73-2.69-2.61-4.03-2.13-0.43-4.24-0.94-6.37-1.29-0.98 1.78-1.58 3.73-1.59 5.78 3.72 1.76 7.21 3.97 10.9 5.83 1.64 0.57 1.56 2.6 2.28 3.92-8.06 2-15.63 5.62-23.61 7.9-1.55 1.47-3.17 2.88-4.87 4.19-2.92 2.17-4.31 5.99-7.74 7.57-3 1.09-6.14 1.73-9.24 2.46-6.57 2.13-12.99 4.93-19.08 8.19-5.68 3.2-11.83 5.39-18.06 7.22-4.65-2.54-11.13-5.48-10.59-11.84 3.28-1.83 6.96-2.97 9.96-5.3 1.59-1.63 1.21-4.05 1.34-6.11-3.63 1.38-6.5 4.04-9.51 6.39-1.56-0.21-3.55 0.37-4.49-1.27-0.68-4.59 2.69-8.29 6.35-10.47 3.73-0.67 4.87-5.27 8.65-5.54-1.24-4.86-0.23-9.8-0.1-14.71-0.58-9.27-0.39-18.57-1.46-27.81-1.18-7.26-0.01-14.62-0.76-21.91-6.25 1.04-10.41 6.61-16.68 7.62-3.86 12.06-2.96 24.9-3.68 37.38 1.38 7.83-0.63 15.88 1.41 23.62 0.63 2.06-0.08 4.15-0.51 6.17 0.08 10.84 4.85 21.11 4.82 32 1.14 6.95 3.65 13.61 4.23 20.66-4.88 0.2-7.41-4.64-11.93-5.11-2.02-0.79-3.94-1.81-5.75-2.99 0.48-7.75-3.75-14.85-3.55-22.53 0.76-3.07 2.77-5.78 2.82-9.01 0.5-6.27 0.09-12.56-0.3-18.82-1.39-4.08-2.92-8.12-3.67-12.38-1.17-3.66 0.9-7.67-0.91-11.18-2.6-4.79-2.1-10.48-4.57-15.34-2.4-8.06-6.92-15.71-6.5-24.36-0.4-3.65 0.41-7.47 3.31-9.93 2.35-2.49-2.27-3.66-3.77-4.93-3.64-3.69-7.59-7.2-10.39-11.62-1.63-2.27-2.02-5.24-4.17-7.15-2.29 5.44-1.23 11.58-1.86 17.33-1.81 0.74-3.62 1.57-5.61 1.48-0.45-2.7-2.1-4.82-3.95-6.72-2.52-4.79-4.34-9.99-4.34-15.46-0.91 0.49-1.86 0.82-2.86 1-2.43-3.12-4.84-6.26-7.3-9.36 1.44-2.14 2.92-4.25 4.37-6.38 2.1-0.68 4.14-1.54 6.12-2.51-0.91-4.04-2.56-7.9-4.93-11.3-2.13-0.67-4.2-1.51-6.26-2.37-2.1 2.99-4.59 5.84-5.63 9.42-2.08 3.05-3.99 6.23-5.49 9.61-2.14 4.84-6.63 8.03-8.99 12.72 5.8 1.81 10.61 5.69 15.24 9.46 1.79 6.08 2.64 12.41 3.63 18.67 0.23 3.54 0.55 8.12-2.02 10.81-2.82-0.93-6.03-1.65-7.78-4.29-2.07-2.7-5.75-3.85-7.27-6.97-0.67-3.57 3.45-5.84 3.09-9.44-2-0.1-4.1 0.47-6.03-0.19-1.83-1.15-3.02-3.04-4.5-4.56-1.89 2.43-2.61 6.12-0.74 8.76 3.13 4.86 6.05 9.91 9.94 14.23 4.72 5.39 8.72 11.35 12.73 17.28 2.75 7.14 4.13 14.71 4.21 22.36-0.85 3.18-1.58 6.38-2.13 9.62-1.07 0.17-2.15 0.3-3.24 0.4-2.96-2.86-6.55-5.51-7.88-9.57-1.23-3.57-4.68-5.89-5.79-9.52 0.38-2.11 1.75-3.86 2.39-5.88-1.85-1.84-4.4-3.14-5.32-5.73-2.91-6.7-6.11-13.54-11.82-18.35-6.09-7.18-14.07-12.76-18.72-21.13 0.25-5.14 3.43-9.1 6.12-13.21-3.09-1.57-6.73-1.52-9.7-3.34-6.42-4.14-14.36-5.03-20.83-9.1-1.35-1.05-3.07-2.29-3.15-4.16-0.13-5.32 3.38-9.8 6.72-13.58 5.05-3.6 8.61-8.83 13.59-12.5 2.8-1.78 5.92-4.15 6.28-7.71-0.83-4.66-4.62-8.13-5.26-12.88-4.01-7.49-5.66-16.7-2.61-24.8 1.66-5.81 4.18-11.32 6.09-17.04 2.81-3.58 4.73-7.84 8.08-10.98 2.27-2.1 3.76-4.95 6.32-6.76 2.21-1.55 4.28-3.3 5.96-5.42-1.08-5.55-2.07-11.27-4.99-16.22-1.34-2.05-1.97-4.43-2.89-6.67-1.57 0.14-3.13 0.42-4.69 0.65-1.59 5.89-3.35 11.74-5.64 17.4-1.39 3.91-4.94 7.06-4.69 11.43-0.11 9.37-2.06 18.72-5.65 27.37-2.36 1.22-4.98 2.24-6.62 4.46-3.16 4.98-3.41 11.82-8.31 15.64-1.68-0.24-1.93-2.21-2.38-3.51 1.76-5.38 5.11-11.76 1.12-16.98 0.43-2.28 0.75-4.59 0.81-6.91-0.24-5.74 2.79-11.02 2.14-16.81-0.55-0.39-1.63-1.16-2.17-1.54-0.05-2.83 0-5.74 1.41-8.28 2.36-4.44 2.97-9.46 4.2-14.26 1.63-4.5 3.94-8.73 5.6-13.21-0.61-3.84-2.33-8.12 0.01-11.73 1.59-4.19 5.56-6.77 7.43-10.8 1.81-3.61 3.98-7.16 7.22-9.68 2.52-2.21 6.07-2.28 9.22-2.69 6.8 0.75 13.71 2.52 19.52 6.23 1.77 3.51 5.1 6.17 5.94 10.16 1.24 3.84 1.3 7.92 2.19 11.84 0.97 9.39-1.5 18.83-5.91 27.09 1.35 0.59 2.71 1.19 4.07 1.77 4.4 0.51 8.75 1.28 13.2 1.08 6.51 2.07 13.75 0.94 19.99 3.94 3.93 3.16 8.14 6.27 10.69 10.74 3.71-1.07 8-1.63 11.1 1.26 0.46-0.16 1.36-0.48 1.81-0.63 0.95-3.46 0.43-7.4 2.56-10.49 0.85-1.57 2.25-3.04 2.03-4.97-1.42-4.09-3.82-7.82-4.95-12.02-0.57-4.4-0.95-8.88 0.07-13.24 0.39-9.42 3.73-18.84 1.23-28.21-1.53-3.54-4.49-6.14-7.35-8.61-1.68-2.99-3.52-5.87-5.93-8.35-3.67-6.59-6.96-14.52-4.71-22.08 7.65-9.14 19.28-14.03 26.46-23.65 0.05-0.43 0.16-1.28 0.21-1.7-2.47-4.55-7.58-6.74-10.21-11.18-1.81-3.38-4.14-7.01-3.06-11.02-0.23-3.87 3.83-5.26 6.57-6.83 2.98-0.6 5.95-1.19 8.93-1.8 2.45 0.26 4.91 0.35 7.38 0.21 0.57 0.33 1.73 0.99 2.31 1.33 3.2-2.62 6.35-5.31 9.45-8.05m6.47 156.17c-0.55 3.44-1.87 6.67-2.87 9.99-1.18 4.32 0.95 8.51 1.52 12.74-0.28 7-2.19 14.55 1.53 20.98 2.54-1.27 5.16-2.4 7.94-3.03 0.65-4.23-2.21-7.89-4.3-11.3 0.15-3.27-2.02-6.13-1.46-9.4 0.61-5.01-1.79-10.07-0.16-14.98 1.01-3.12 0.87-6.42 0.71-9.65-1.21 1.38-2.84 2.64-2.91 4.65m-128.83 109.34c3.66 2.56 7.86 4.25 11.33 7.11 1.7-2.77 3.03-5.74 3.83-8.89 1.46-2.7 3.77-4.91 4.68-7.9-6.2 3.93-12.73 7.55-19.84 9.68m146.93 53.98c-0.68 9.91 0.35 19.77 0.83 29.65-0.43 8.74-1.26 17.7 0.91 26.27 1.71-3.29 3.43-6.57 5.74-9.48 2.51-6.25 6.05-12.09 10.56-17.1-2.09-6.56-6.36-12.14-9.45-18.24-1.44-1.94-2.88-3.88-4.04-5.99-1.36-1.85-2.62-3.82-4.55-5.11z"/>
 </g>
</svg>
