<?xml version="1.0" encoding="UTF-8" standalone="no"?>
<svg xmlns:rdf="http://www.w3.org/1999/02/22-rdf-syntax-ns#" xmlns="http://www.w3.org/2000/svg" height="95.079" width="360.13" version="1.1" xmlns:cc="http://creativecommons.org/ns#" xmlns:dc="http://purl.org/dc/elements/1.1/" viewBox="0 0 288.10098 76.063096">
 <g style="" fill="#492f24" transform="matrix(.17172 0 0 .17172 -6.1804 -9.2457)">
  <path d="m186.57 53.84c1.73 0.53 3.45 1.12 5.18 1.67 0.47 0.91 0.94 1.83 1.42 2.75 2.53-0.62 5.13-0.83 7.71-0.37 0.6 1.82 1.15 3.65 1.66 5.5-0.34 1.47-0.67 2.94-1.01 4.41 0.39 1.98 0.75 3.97 1.09 5.96 7.03 1.54 14.44 5.45 17.15 12.53 1.59 2.46 0.68 5.41 0.96 8.15-1.1 1.02-2.17 2.07-3.2 3.17-3.67 2.71-7.95 4.34-12.05 6.27-5-0.55-10.11 0.27-14.99-1.21-1.68-0.74-3.35-1.6-5.17-1.88-3.49 2.19-7.41 3.57-10.8 5.93-5.21 1.39-8.85 5.71-13.23 8.6-2.29 1.58-2.39 4.6-2.32 7.11 2.56 2.41 3.71 5.87 6.13 8.4 2.52 2.51 4.56 5.43 7.06 7.97 2.77-1.75 4.57-4.92 7.84-5.86 1.85-0.69 3.85-0.69 5.8-0.88-0.31-1.2-0.61-2.4-0.91-3.61 1.41-0.55 2.82-1.1 4.23-1.64 1.18 1.26 2.33 2.55 3.55 3.78 0.72 2.45 1.7 4.82 2.63 7.2 0.96-0.45 1.93-0.9 2.9-1.34-1.58-3.65-1.28-7.6 0.84-10.96 0.67-0.13 2-0.37 2.67-0.49 0.43-1.36 0.89-2.7 1.36-4.04 6.33-1.69 12.9-4.32 19.48-3.53 3.03 0.88 6.05 1.87 8.9 3.26 1.76 0.54 1.46 2.62 1.93 4.02 1.27 0.7 2.62 1.27 3.81 2.11 2.16 4.67 5.35 8.86 5.75 14.18 0.94 2.46-1.85 3.34-3.16 4.8-1.9 1.41-2.86 3.58-3.97 5.59-3.3-0.39-6.55-0.04-9.75 0.78-0.95 1.81-1.3 4.1-2.9 5.48-1.66-0.15-3.28-0.49-4.92-0.78-4.25 1.82-9.14 3.55-13.49 0.98 0.84 2.72 2.14 5.55 0.73 8.35 1.17 3.65 2.74 7.16 4.38 10.62 0.42 5.44 1.58 10.79 1.9 16.24 0.36 12.27 1.28 24.55 0.86 36.83 0.83 5.27 0.93 10.63 1.91 15.87-0.5 1.22-0.99 2.44-1.47 3.67 3.3-0.69 6.46-1.91 9.39-3.57 1.78 2.11 3.65 4.19 5.04 6.59 0.35 3.48 1.84 6.75 2.26 10.18-1.47 0.05-2.94-0.02-4.41-0.06-1.27-1.43-2.25-3.29-4.1-4.05-3.98 2.03-0.19 8.48-4.36 10.37-1.75 0.87-3.73 1.14-5.58 1.72 0.56 1.47 0.56 3.22 1.52 4.52 1.77 1.55 4.16 2.41 5.58 4.34 2.21 4.88 4.86 9.54 6.76 14.57 1.07 0.3 2.14 0.6 3.22 0.92 1.28-5.94 1.22-12.08 2.65-17.98 1.43 0.01 2.86 0.03 4.29 0.05-0.33 2.45-1.7 4.9-0.95 7.38 1.71 7.04 4.59 13.93 3.86 21.33 5.94 0.15 8.28 6.43 9.35 11.31 0.57 1.26-0.48 3.81-2.17 2.87-2.1-1.33-3.41-3.49-4.66-5.56-0.45 0.22-1.35 0.67-1.79 0.89 0.1 1.2 0.21 2.41 0.32 3.62 5.1 1.31 10.14 3.33 14.47 6.36 2.11 1.17 2 3.74 2.45 5.8-1.21 0.02-2.43 0.04-3.64 0.05-1.33-1.39-2.64-2.81-4.12-4.04-1.74-0.27-1.86 2.25-2.84 3.19 1.33 1.15 2.89 1.99 4.53 2.63 8.46 3.93 13.83 11.94 17.62 20.15-0.78 0.42-2.35 1.28-3.13 1.71-2.53-2.51-5.46-4.52-8.73-5.92-2.35 3.23 1.8 5.71 4.06 7.36 4.38 1.97 9.81 1.04 13.8 4.04 3.4 1.9 5.29 5.44 7.93 8.18 1.5 1.52 2.4 3.45 3.23 5.39-0.31 0.74-0.93 2.23-1.24 2.98-3.22-1.39-3.05-5.65-6.16-7.2-0.65 1.63-1.29 3.27-1.85 4.94-1.97 1.59-4.55 1.68-6.74 2.7-0.34 2.19 2.2 1.62 3.58 2.05 1.6 1.44 3.33 2.73 4.89 4.21 2.35 3.9 5.34 7.57 9.38 9.83 1.56 2.54 3.5 5.54 1.23 8.34-5.92-2.71-10.28-8.65-17.16-9.25-0.73 3.35 1.32 6.26 2.43 9.27 5.95 4.63 12.99 9.97 13.78 18.07-1.22 0.16-2.45 0.3-3.68 0.44-0.86-1.35-1.73-2.69-2.61-4.03-2.13-0.43-4.24-0.94-6.37-1.29-0.98 1.78-1.58 3.73-1.59 5.78 3.72 1.76 7.21 3.97 10.9 5.83 1.64 0.57 1.56 2.6 2.28 3.92-8.06 2-15.63 5.62-23.61 7.9-1.55 1.47-3.17 2.88-4.87 4.19-2.92 2.17-4.31 5.99-7.74 7.57-3 1.09-6.14 1.73-9.24 2.46-6.57 2.13-12.99 4.93-19.08 8.19-5.68 3.2-11.83 5.39-18.06 7.22-4.65-2.54-11.13-5.48-10.59-11.84 3.28-1.83 6.96-2.97 9.96-5.3 1.59-1.63 1.21-4.05 1.34-6.11-3.63 1.38-6.5 4.04-9.51 6.39-1.56-0.21-3.55 0.37-4.49-1.27-0.68-4.59 2.69-8.29 6.35-10.47 3.73-0.67 4.87-5.27 8.65-5.54-1.24-4.86-0.23-9.8-0.1-14.71-0.58-9.27-0.39-18.57-1.46-27.81-1.18-7.26-0.01-14.62-0.76-21.91-6.25 1.04-10.41 6.61-16.68 7.62-3.86 12.06-2.96 24.9-3.68 37.38 1.38 7.83-0.63 15.88 1.41 23.62 0.63 2.06-0.08 4.15-0.51 6.17 0.08 10.84 4.85 21.11 4.82 32 1.14 6.95 3.65 13.61 4.23 20.66-4.88 0.2-7.41-4.64-11.93-5.11-2.02-0.79-3.94-1.81-5.75-2.99 0.48-7.75-3.75-14.85-3.55-22.53 0.76-3.07 2.77-5.78 2.82-9.01 0.5-6.27 0.09-12.56-0.3-18.82-1.39-4.08-2.92-8.12-3.67-12.38-1.17-3.66 0.9-7.67-0.91-11.18-2.6-4.79-2.1-10.48-4.57-15.34-2.4-8.06-6.92-15.71-6.5-24.36-0.4-3.65 0.41-7.47 3.31-9.93 2.35-2.49-2.27-3.66-3.77-4.93-3.64-3.69-7.59-7.2-10.39-11.62-1.63-2.27-2.02-5.24-4.17-7.15-2.29 5.44-1.23 11.58-1.86 17.33-1.81 0.74-3.62 1.57-5.61 1.48-0.45-2.7-2.1-4.82-3.95-6.72-2.52-4.79-4.34-9.99-4.34-15.46-0.91 0.49-1.86 0.82-2.86 1-2.43-3.12-4.84-6.26-7.3-9.36 1.44-2.14 2.92-4.25 4.37-6.38 2.1-0.68 4.14-1.54 6.12-2.51-0.91-4.04-2.56-7.9-4.93-11.3-2.13-0.67-4.2-1.51-6.26-2.37-2.1 2.99-4.59 5.84-5.63 9.42-2.08 3.05-3.99 6.23-5.49 9.61-2.14 4.84-6.63 8.03-8.99 12.72 5.8 1.81 10.61 5.69 15.24 9.46 1.79 6.08 2.64 12.41 3.63 18.67 0.23 3.54 0.55 8.12-2.02 10.81-2.82-0.93-6.03-1.65-7.78-4.29-2.07-2.7-5.75-3.85-7.27-6.97-0.67-3.57 3.45-5.84 3.09-9.44-2-0.1-4.1 0.47-6.03-0.19-1.83-1.15-3.02-3.04-4.5-4.56-1.89 2.43-2.61 6.12-0.74 8.76 3.13 4.86 6.05 9.91 9.94 14.23 4.72 5.39 8.72 11.35 12.73 17.28 2.75 7.14 4.13 14.71 4.21 22.36-0.85 3.18-1.58 6.38-2.13 9.62-1.07 0.17-2.15 0.3-3.24 0.4-2.96-2.86-6.55-5.51-7.88-9.57-1.23-3.57-4.68-5.89-5.79-9.52 0.38-2.11 1.75-3.86 2.39-5.88-1.85-1.84-4.4-3.14-5.32-5.73-2.91-6.7-6.11-13.54-11.82-18.35-6.09-7.18-14.07-12.76-18.72-21.13 0.25-5.14 3.43-9.1 6.12-13.21-3.09-1.57-6.73-1.52-9.7-3.34-6.42-4.14-14.36-5.03-20.83-9.1-1.35-1.05-3.07-2.29-3.15-4.16-0.13-5.32 3.38-9.8 6.72-13.58 5.05-3.6 8.61-8.83 13.59-12.5 2.8-1.78 5.92-4.15 6.28-7.71-0.83-4.66-4.62-8.13-5.26-12.88-4.01-7.49-5.66-16.7-2.61-24.8 1.66-5.81 4.18-11.32 6.09-17.04 2.81-3.58 4.73-7.84 8.08-10.98 2.27-2.1 3.76-4.95 6.32-6.76 2.21-1.55 4.28-3.3 5.96-5.42-1.08-5.55-2.07-11.27-4.99-16.22-1.34-2.05-1.97-4.43-2.89-6.67-1.57 0.14-3.13 0.42-4.69 0.65-1.59 5.89-3.35 11.74-5.64 17.4-1.39 3.91-4.94 7.06-4.69 11.43-0.11 9.37-2.06 18.72-5.65 27.37-2.36 1.22-4.98 2.24-6.62 4.46-3.16 4.98-3.41 11.82-8.31 15.64-1.68-0.24-1.93-2.21-2.38-3.51 1.76-5.38 5.11-11.76 1.12-16.98 0.43-2.28 0.75-4.59 0.81-6.91-0.24-5.74 2.79-11.02 2.14-16.81-0.55-0.39-1.63-1.16-2.17-1.54-0.05-2.83 0-5.74 1.41-8.28 2.36-4.44 2.97-9.46 4.2-14.26 1.63-4.5 3.94-8.73 5.6-13.21-0.61-3.84-2.33-8.12 0.01-11.73 1.59-4.19 5.56-6.77 7.43-10.8 1.81-3.61 3.98-7.16 7.22-9.68 2.52-2.21 6.07-2.28 9.22-2.69 6.8 0.75 13.71 2.52 19.52 6.23 1.77 3.51 5.1 6.17 5.94 10.16 1.24 3.84 1.3 7.92 2.19 11.84 0.97 9.39-1.5 18.83-5.91 27.09 1.35 0.59 2.71 1.19 4.07 1.77 4.4 0.51 8.75 1.28 13.2 1.08 6.51 2.07 13.75 0.94 19.99 3.94 3.93 3.16 8.14 6.27 10.69 10.74 3.71-1.07 8-1.63 11.1 1.26 0.46-0.16 1.36-0.48 1.81-0.63 0.95-3.46 0.43-7.4 2.56-10.49 0.85-1.57 2.25-3.04 2.03-4.97-1.42-4.09-3.82-7.82-4.95-12.02-0.57-4.4-0.95-8.88 0.07-13.24 0.39-9.42 3.73-18.84 1.23-28.21-1.53-3.54-4.49-6.14-7.35-8.61-1.68-2.99-3.52-5.87-5.93-8.35-3.67-6.59-6.96-14.52-4.71-22.08 7.65-9.14 19.28-14.03 26.46-23.65 0.05-0.43 0.16-1.28 0.21-1.7-2.47-4.55-7.58-6.74-10.21-11.18-1.81-3.38-4.14-7.01-3.06-11.02-0.23-3.87 3.83-5.26 6.57-6.83 2.98-0.6 5.95-1.19 8.93-1.8 2.45 0.26 4.91 0.35 7.38 0.21 0.57 0.33 1.73 0.99 2.31 1.33 3.2-2.62 6.35-5.31 9.45-8.05m6.47 156.17c-0.55 3.44-1.87 6.67-2.87 9.99-1.18 4.32 0.95 8.51 1.52 12.74-0.28 7-2.19 14.55 1.53 20.98 2.54-1.27 5.16-2.4 7.94-3.03 0.65-4.23-2.21-7.89-4.3-11.3 0.15-3.27-2.02-6.13-1.46-9.4 0.61-5.01-1.79-10.07-0.16-14.98 1.01-3.12 0.87-6.42 0.71-9.65-1.21 1.38-2.84 2.64-2.91 4.65m-128.83 109.34c3.66 2.56 7.86 4.25 11.33 7.11 1.7-2.77 3.03-5.74 3.83-8.89 1.46-2.7 3.77-4.91 4.68-7.9-6.2 3.93-12.73 7.55-19.84 9.68m146.93 53.98c-0.68 9.91 0.35 19.77 0.83 29.65-0.43 8.74-1.26 17.7 0.91 26.27 1.71-3.29 3.43-6.57 5.74-9.48 2.51-6.25 6.05-12.09 10.56-17.1-2.09-6.56-6.36-12.14-9.45-18.24-1.44-1.94-2.88-3.88-4.04-5.99-1.36-1.85-2.62-3.82-4.55-5.11z"/>
  <path d="m323.01 86.22c6-0.51 11.99 0.25 18 0.13 4.85 0.09 9.69-0.56 14.55-0.25-0.23 4.28-5.44 5.75-5.92 9.96-0.92 11.59 0.62 23.33-0.98 34.88 0.01 15.69 0.01 31.37 0 47.05-0.39 11.35 1.73 23.01 7.38 32.97 7.25 12.71 21.32 21.5 36.02 21.78 15.21 0.66 29.46-6.51 41.46-15.23 1.41-1.25 3.68-2.26 3.61-4.45 0.18-16.02-0.3-32.06 0.37-48.07-0.27-21.94 0.39-43.87 0.17-65.8-0.06-5.21-4.87-8.14-9.04-10.1-0.02-0.77-0.07-2.3-0.09-3.07 6.15-0.15 12.28 0.57 18.44 0.28 5.45-0.29 10.92-0.48 16.37-0.01 0.03 0.98 0.06 1.95 0.1 2.94-2.76 1.96-6.17 3.51-7.51 6.88-2.62 5.95-1.51 12.6-1.76 18.89-1.2 12.29-0.12 24.66-0.73 36.98-0.3 10 0.13 20.02-0.22 30.03-0.8 2.58-0.56 5.3-0.57 7.96 0.02 6.69 0.03 13.38 0.01 20.07-0.33 6.45-0.43 13.03 1.15 19.35 1.13 3.88 5.27 5.1 8.45 6.8 0.56 1.36 0.23 2.42-0.98 3.2-3.1 0.31-6.13-0.58-9.2-0.74-7.1-0.53-14.23-0.26-21.33-0.02-0.3-0.42-0.9-1.26-1.19-1.68 1.63-2.41 4.3-4.09 5.38-6.88 0.72-1.95 1.16-3.98 1.66-5.99-1.73 0.18-3.26 0.99-4.63 2.01-13.5 9.33-29.69 14.87-46.12 15.15-4.66-0.61-9.35-1.08-13.96-2.04-8.09-2.38-16.06-5.91-21.97-12.12-6.82-6.11-11.23-14.34-14.14-22.92-0.93-5.31-1.86-10.65-2.11-16.05-0.17-17.38 0.04-34.76 0.15-52.14 1.69-12.27-0.18-24.6-0.32-36.9-1.62-4.53-5.84-8.03-10.46-9.27-0.02-1.19-0.03-2.39-0.04-3.58z"/>
  <path d="m1094.9 107.45c12.02-0.67 24.73-2.25 36.15 2.6 10.11 4.1 16.9 14.24 18.46 24.83 0.33 6.22 0.76 12.77-1.93 18.58-3.31 7.62-8.63 14.57-15.71 19.03 11.32 18.1 23.63 35.74 38.14 51.46 5.31 5.66 12.12 11.41 20.45 10.48 0.9 1.2 1.65 2.49 2.13 3.94-10.57 0.97-22.32 1.01-31.21-5.65-9.09-6.92-16.47-15.83-22.76-25.3-5.18-7.78-10.95-15.12-16.26-22.8-1.58-2.1-2.88-4.45-4.8-6.25-6.37-0.37-12.76 0.49-19.14 0.33-0.01 15.45-1 30.88-0.46 46.34 0.18 2.2 0.48 4.46 1.56 6.43 1.47 3.08 5.69 2.69 7.55 5.53-2.94 3.47-7.25 1.4-11.04 1.39-7.15-0.08-14.29-0.03-21.42 0.26-0.03-0.97-0.04-1.95-0.03-2.92 2.85-1.2 5.76-2.26 8.52-3.67 0.61-3.01 1.48-6.01 1.47-9.11-0.02-33.65-0.01-67.3 0-100.96 0.1-5.38-3.76-10.78-9.42-11.08 0.22-1.05 0.4-2.12 0.85-3.11 1.32-0.28 2.65-0.16 4 0.34 4.98 0.48 9.9-0.84 14.9-0.69m2.88 7.57c0.77 8.97 0.52 17.97 0.55 26.96-0.2 9.78 0.73 19.54 0.31 29.33 7.18 0.57 14.51 0.48 21.38-1.95 4.16-2.08 8.24-4.73 10.61-8.87 4.63-8.14 5.97-18.1 3.73-27.19-2.06-7.93-7.9-14.92-15.5-18.05-6.71-2.91-14.21-1.96-21.08-0.23z"/>
  <path d="m1685.4 109.4c8.23-0.85 16.7 0.42 24.79-1.59 1.05 0.29 2.09 0.57 3.15 0.94 0.38 1.12 0.22 2.34 0.32 3.51-3.89 1.15-7.94 2.58-10.7 5.71-5.26 5.68-7.22 13.36-11.15 19.86-18.64 35.35-37.23 70.74-55.98 106.03-2.83 5-6.27 9.65-10.23 13.8-5.84 5.77-14.44 7.91-22.44 6.9 0.05-1 0.11-2.01 0.2-3 3.98-1.05 8.27-1.9 11.4-4.8 8.04-7.13 12.26-17.28 16.7-26.81-3.08-8.46-7.03-16.63-10.6-24.91-11.87-28.18-24.93-55.84-37.18-83.84-2.04-5.02-6.89-8.27-12.18-8.94-0.09-0.98-0.16-1.95-0.21-2.93 3.89-0.52 7.8 0.1 11.72 0.1 7.49 0.08 15-0.26 22.48-0.91 0.03 0.52 0.09 1.55 0.12 2.06-1.95 1.84-4.02 3.55-5.83 5.51-1.07 1.81-0.17 4.01-0.13 5.97 3.99 10.83 8.77 21.35 13.4 31.92 8.78 20.34 17.67 40.64 26.47 60.98 13.3-24.99 26.03-50.28 39.21-75.33 3.15-6.5 6.72-12.81 9.16-19.63 1.17-2.88-0.81-5.59-2.23-7.94-0.12-0.89-0.2-1.77-0.26-2.66z"/>
  <path d="m524.95 108.65c4.97 0.35 9.78-1.18 14.73-1.28-0.25 2.56-1.21 5.01-1.27 7.59-0.07 2.28 1.56 4.05 2.89 5.72 25.19 29.09 50.05 58.47 75.34 87.47 0.43-27.38 0.03-54.78 0.2-82.16-0.03-3.29 0.14-7-2.13-9.67-1.7-2.29-4.6-2.99-7.1-4.02-0.08-0.96-0.16-1.93-0.24-2.89 4.53-0.58 9.08 0.18 13.62 0.04 5.52 0.15 10.98-1.07 16.51-0.76 0.6 4.24-4.29 4.22-6.75 6.09-2.48 1.48-2.33 4.66-3.02 7.11-1.29 14.33 0.31 28.76-0.99 43.09-0.04 16.37 0.04 32.74-0.04 49.11-0.53 8.18-0.13 16.39-0.31 24.58-1.43-0.04-3.19 0.42-3.97-1.14-28.93-34.38-58.21-68.47-87.21-102.78-0.99-1.15-1.96-2.44-3.48-2.89-0.3 18.05-0.43 36.1-0.34 54.16 0.11 14.49-0.45 29.04 1.11 43.48 1.97 2.98 5.11 4.41 8.42 5.38 0.19 0.59 0.59 1.76 0.79 2.35-0.63 0.28-1.88 0.84-2.5 1.12-8.08-0.72-16.23-0.6-24.3 0-1.36 0.12-2.61-0.22-3.74-1 0.43-0.66 1.29-1.96 1.72-2.61 2.11-0.68 4.17-1.53 6.13-2.59 2.82-4.16 1.9-9.35 2.05-14.07 0.66-14.34 0.19-28.71 0.34-43.06 0.68-14.64-0.05-29.3 0.42-43.95 1.12-3.97 0.39-8.14 0.71-12.19-2.14-3.24-5.45-5.4-9.14-6.47-1.86-0.21-1.79-2.22-1.74-3.63 4.36-1.06 8.86 0.2 13.29-0.13z"/>
  <path d="m949 109.84c0.57-0.28 1.7-0.83 2.26-1.11 10.21-0.66 20.58 0.75 30.72-0.75 7.45 0.73 14.94-0.39 22.4 0.49 3.08 3.64 4.15 8.53 4.14 13.21-1.16-0.04-2.3-0.09-3.43-0.15-1.6-2.23-3.5-4.9-6.5-5.06-9.07-0.42-18.16 0.13-27.23 0.23-0.56 7.43 0.14 14.93-0.29 22.38-1.01 9.03 0.61 18.06 0.09 27.12 10.05-1.46 20.43 0.83 30.33-1.93 2.39-1.19 3.82-3.62 5.48-5.63 0.85-0.03 1.71-0.06 2.59-0.09-0.01 6.47-0.52 12.92-0.4 19.38 0.07 2.14-1.34 3.06-3.36 2.61 0.27-2.14-0.67-3.8-2.41-4.93-10.42-2.54-21.25-1.14-31.84-0.9-1.16 18.31-0.98 36.72-0.21 55.06 6.55 0.15 13.11-0.03 19.66 0.11 7.47-0.1 14.97-0.33 22.35-1.59 4.06-1.36 6.11-5.29 8.43-8.54 0.65-0.01 1.95-0.04 2.6-0.05 0.52 1.78 0.09 3.63-0.12 5.42-1.97 3.99-2.36 9.16-6.21 11.93-3.57 2.41-8.09 1.63-12.13 1.69-8.54-0.75-17.11-0.07-25.65-0.48-10.32-0.93-20.65 0.26-30.98 0.36-0.01-1.23 0-2.45 0.04-3.67 3.45-1.28 7.45-3.9 7.27-8.06 0.29-5.96-0.24-11.95 0.74-17.87 0.09-21.34 0.01-42.7 0.03-64.05-0.11-9.06 0.55-18.21-1.19-27.16-1.16-3.6-5-5.11-7.18-7.97z"/>
  <path d="m1243.7 112.06c11.79-6.15 26.05-3.73 38.2 0.12 1.08 0.26 2.19 0.5 3.31 0.74 1.98 5.67 1.53 12.1-0.22 17.78-3.54-0.72-4.34-4.75-6.6-7.05-8.22-10.28-25.01-11.61-34.83-2.9-8.52 7.27-8.24 22.3 0.37 29.39 11.64 12.61 27.14 20.63 39.77 32.13 4.59 3.57 6.61 9.18 8.5 14.46 0.76 7.06 1.18 14.51-1.65 21.2-3.29 8.58-10.03 15.58-18.37 19.4-2.38 0.54-4.75 1.14-7.05 1.93-6.92 0.81-13.95 0.67-20.86-0.1-5.45-1.09-10.99-1.54-16.51-1.93-1.42-7.4-1.54-14.95-1.93-22.45 0.54-0.29 1.63-0.88 2.17-1.17 0.5 0.3 1.51 0.9 2.02 1.2 1.14 5.38 3.31 11.07 8.35 13.93 6.89 4.69 15.58 4.24 23.53 3.88 8.07-1.17 15.72-6.74 18.3-14.65 2.88-7.88 0.22-16.87-5.18-23.01-4.99-5.82-11.51-9.94-17.44-14.68-9.1-7.07-19.59-13.07-25.8-23.11-3.44-5.02-4.9-11.14-4.44-17.18-0.63-11.46 6.21-22.72 16.36-27.93z"/>
  <path d="m1430.9 113c1.33-2.12 3.21-4.65 6.04-4.39 30.02 0.01 60.04 0.02 90.07-0.01 2.5 0.12 5.44 0.08 7.34 2.01 2.45 4.27 2.35 9.42 2.02 14.18-3.21-0.32-4.07-3.31-5.58-5.58-2.27-2.43-5.87-1.97-8.86-2.05-10.79 0.13-21.58-0.17-32.36 0.16-0.08 10.22 0.29 20.45-0.35 30.66-0.03 25.36 0.01 50.71-0.02 76.07 0.03 2.75 0.27 5.63 1.66 8.07 1.35 1.8 3.79 1.91 5.75 2.69 0.01 1.16 0.01 2.33 0.03 3.5-10.44-0.15-20.92-0.98-31.34 0.21-0.02-1.27-0.01-2.54 0.05-3.8 4.71-0.26 9.14-3.71 8.94-8.75 0.09-12.32 0.53-24.63 0.38-36.95 0.15-7.35-0.49-14.74 0.7-22.03 0.13-12.67-0.02-25.35 0.06-38.03 0.18-3.8 0.54-7.61 0.19-11.42-7.21-0.63-14.45-0.27-21.67-0.36-5.94 0.05-12.04-0.37-17.8 1.33-3.72 1-4.39 6.48-8.61 6.26-0.25-4.18 1.27-8.22 3.36-11.77z"/>
  <path d="m682.37 109.55c3.83-0.97 7.74-0.01 11.63-0.12 6.37-0.07 12.79 0.35 19.11-0.76 1.56-0.47 2.87 0.5 4.12 1.28-2.54 3.5-7.71 3.69-9.74 7.69-1.27 3.31-0.76 6.94-0.85 10.4 0.17 12.98-0.41 25.98 0.46 38.94 0.01 19.34-0.03 38.69 0.01 58.03 0.22 2.73 0.09 5.82 2.03 8.01 1.74 1.53 3.8 2.64 5.71 3.95-1.29 0.69-2.15 2.74-3.83 2.34-7.23-1.53-14.68-0.95-22-0.51-1.36-0.09-4.37 0.6-3.9-1.77-0.12-2.52 3.46-2.61 5.19-3.6 1.32-2.25 2.2-4.78 2.04-7.42 0-33.01-0.03-66.02 0.02-99.03 0.14-3.97 0.1-8.4-2.72-11.54-1.39-1.93-3.8-2.35-5.88-3.08-0.35-0.7-1.05-2.11-1.4-2.81z"/>
  <path d="m763.54 109.53c5.08-1.01 10.33-0.16 15.48-0.45 3.54 0.16 7.38-1.39 10.61 0.69-0.65 1.02-1.31 2.04-1.97 3.06-0.97 2.77-1.11 5.8 0.17 8.51 4.44 9.52 8.79 19.08 13.24 28.61 8.7 18.92 17.43 37.82 26.17 56.72 1.62 3.5 2.96 7.14 5.16 10.34 0.49-1.02 0.96-2.05 1.46-3.06 8.27-16.71 16.69-33.34 24.97-50.04 7.51-14.68 14.64-29.58 20.6-44.96 1.4-3.45-1.08-6.46-2.44-9.42 4.23-1.43 8.65 0.38 13-0.08 4.42 0.36 8.95-1 13.29 0.11 0.02 0.69 0.06 2.06 0.08 2.74-4.88 2.51-10.96 4.1-13.42 9.58-18.04 36.13-36.03 72.29-54.52 108.18-2.08 3.37-2.81 7.98-6.63 9.92-2.21-3.23-3.62-6.89-5.27-10.41-14.95-32.09-29.62-64.31-44.53-96.42-3.2-6.07-5.15-13.14-10.43-17.82-1.87-1.87-5.7-2.4-5.02-5.8z"/>
  <path d="m1344 109.44c9.99-0.68 20.11 0.88 30.08-0.66 1.73-0.46 3.43 0.09 4.88 1.12-2.37 3.59-7.62 3.52-9.63 7.43-1.44 3.34-0.8 7.09-0.93 10.62-0.17 27 0.55 53.99 0.32 80.99 0.21 7.02-0.52 14.11 0.51 21.08 0.49 3.52 4.27 4.86 6.93 6.48-0.89 2.19-2.98 3.4-5.31 2.75-7.9-2.16-16.18 0.06-24.22-0.68-0.06-0.6-0.16-1.8-0.21-2.39 1.78-1.19 3.75-2.04 5.62-3.1 1.96-2.54 1.91-6.03 2.15-9.09-0.02-23.66 0.04-47.31-0.06-70.96 0.26-5.69-0.62-11.37 0.04-17.05-0.32-6.43 1.1-13.37-1.87-19.36-1.74-3.78-7.4-2.81-8.3-7.18z"/>
  <path d="m580.18 308.7c0.86-0.36 1.77-0.69 2.66-1.02 3.51 1.53 7.44 0.64 11.15 0.85 7.11-0.21 14.36 0.75 21.36-0.85 1.73 0.8 1.24 2.72 1.14 4.23-4.59 2.39-4.59 8.38-2.87 12.61 7.65 18.23 16.75 35.81 24.82 53.85 0.88-0.78 1.8-1.56 2.35-2.64 9.6-16.91 18.94-33.99 27.49-51.47 2.04-3.84 1.17-8.73-1.75-11.87-1.5-1.3-1.87-3.9 0.24-4.83 11.13 2.67 22.45-0.57 33.68 0.01 0.08 1.57 0.05 3.14-0.09 4.71-8.13-0.31-15.31 5.04-19.12 11.91-11.14 20.23-22.6 40.29-33.06 60.88-1.15 2.46-4.05 5.07-2.43 7.94 3.07 6.99 6.13 13.99 9.36 20.91 3.47 7.2 6.44 14.7 10.63 21.53 18.63-34.9 37.77-69.53 56.15-104.57 2.35-4.76 4.93-9.71 4.65-15.19-1.82-2.63-6.02-4.38-4.96-8.12 5.19-0.59 10.21 1.55 15.42 0.99 6.79 0.55 13.42-1.25 20.19-1.11 0.37 0.69 1.11 2.07 1.48 2.75-2.96 2.63-7.02 3.19-10.29 5.29-5.55 3.37-9.29 8.9-12.61 14.33-8.21 13.7-15.39 27.99-23.12 41.96-11.5 21.43-23.09 42.81-34.73 64.15-4.63 8.12-8.7 16.58-13.81 24.42-1.5 0.03-2.99 0.07-4.47 0.13-6.44-17.22-16.47-32.74-24.45-49.22-0.4 0.02-1.2 0.07-1.6 0.1-9.01 16.21-17.99 32.46-26.48 48.96-0.6 0.3-1.79 0.89-2.39 1.19-1.25-1.25-2.27-2.7-2.99-4.3-6.51-13.28-12.45-26.83-18.89-40.13-13.3-28.97-26.89-57.8-40.44-86.65-4.14-8.72-12.02-16.35-21.98-17.41-0.05-1.2-0.08-2.39-0.08-3.57 7.83-1.47 15.77 0.15 23.65-0.09 5.18 0.17 10.31-0.77 15.49-0.68 0.22 3.86-3.86 5.78-5.05 9.18 6.96 16.66 15.08 32.83 22.55 49.27 10.37 22.39 20.8 44.75 31.14 67.15 3.59-6.5 6.27-13.5 10.49-19.65 3.83-5.7 7.72-11.38 10.93-17.46-10.08-21.58-20.13-43.16-30.13-64.77-2.96-6.76-6.28-13.89-12.52-18.24-1.82-1.43-4.18-1.54-6.36-1.87-0.13-1.2-0.25-2.4-0.35-3.59z"/>
  <path d="m987.54 336.69c17.27-8.84 38.14-10.45 56.44-3.87 13.88 4.85 24.9 15.72 32.09 28.31 8.86 17.07 11.03 37.46 6.14 56.05-6.74 21.79-26.02 38.9-48.15 43.92-9.47 2.45-19.41 2-29.06 1.09-19.44-3.38-35.96-17.1-45.27-34.18-3.87-7.83-5.77-16.39-7-24.97-1.17-16.22 2.54-33.04 11.9-46.5 5.72-8.48 13.69-15.41 22.91-19.85m22.6-0.7c-12.54 2.02-24.22 9.13-31.65 19.46-8.89 12.31-12.52 28.1-10.51 43.1 1.05 13.36 6.03 26.43 14.29 37 9.03 12.48 24.24 20.41 39.71 20.06 9.52 0.05 18.91-3.38 26.33-9.32 11.07-8.93 19.08-22.08 20.61-36.35 2.2-14.68 0.19-30.19-6.57-43.49-5.55-11.41-14.47-21.52-26.13-26.88-8.05-4.01-17.28-4.54-26.08-3.58z"/>
  <path d="m1428.3 330.38c9.08 0.32 18.2 0.52 27.23-0.88 0.22 3.84-2.71 8.21 0.41 11.54 24.02 27.99 48.05 55.97 72.12 83.92 1.61 1.84 3.05 3.84 4.56 5.79 0.71-10.23 0.07-20.51 0.29-30.75 0-17.99-0.01-35.99 0.01-53.98 0.05-2.95-0.59-6.06-2.61-8.31-1.98-1.98-5.18-2.03-7.12-3.99-0.23-2.91 3.83-2.36 5.79-2.45 5.67 0.59 11.36 0.23 17.05-0.11 2.36-0.63 4.82-0.73 7.28-0.64 1.17 4.31-3.82 4.61-6.4 6.25-3.14 2.37-3.03 6.71-3.41 10.24-0.38 11.66 0.11 23.33-0.23 34.98-0.96 5.31-0.56 10.7-0.61 16.07-0.02 11.98 0.01 23.96-0.01 35.95-0.55 8.89-0.31 17.81-0.28 26.71-1.81 0.47-3.43-0.13-4.44-1.68-29.82-35.47-60.01-70.62-89.9-106.03-1.04 26.3-0.46 52.66-0.59 78.98 0.49 6.41-0.13 12.94 1.26 19.26 1.35 3.99 5.98 4.58 9.23 6.35-0.58 1-1.19 1.99-1.74 3-9.55-0.5-19.13-0.31-28.68 0.01-0.53-4.59 5.02-4.23 7.42-6.6 2.82-2.58 1.54-6.7 1.96-10.05 1.17-6.58 0.32-13.3 0.57-19.94 0.24-9.66-0.57-19.36 0.61-28.97-0.22-12.02 0.1-24.05-0.2-36.07 0.81-6.15 0.48-12.36 0.51-18.54-2.61-3.52-6.57-5.61-10.78-6.54 0.21-1.18 0.44-2.35 0.7-3.52z"/>
  <path d="m1642.9 328.86c10.09-0.84 20.4-1.16 30.35 1.04 6.4 1.09 12.56 3.25 18.73 5.22 3.39 1.35 7.26 1.68 10.36 3.71 1.06 6.16-0.2 12.57-1.16 18.71-1.17 0.04-2.32 0.07-3.45 0.09-1.84-8.31-8.29-15.03-15.98-18.31-9.69-4.04-20.35-5.28-30.77-4.53-11.05 1.52-22.24 5.04-30.82 12.45-7.88 6.03-12.83 15.24-15.06 24.78-1.3 7.56-2.25 15.34-1.09 22.99 0.75 9.72 2.47 19.53 6.56 28.45 4.42 9.22 11.16 17.52 20.06 22.73 8.94 4.9 19.12 7.79 29.38 7.32 7.4 0.35 14.66-1.32 21.95-2.28 1.83-0.58 3.71-1.11 5.57-1.7 0.26-10.5 1.25-21.01 0.59-31.51-0.23-4.45-3.74-7.93-7.85-9.14 0.11-1.11 0.22-2.23 0.4-3.33 2.1 0 4.23 0.1 6.31 0.6 5.99 0.15 12.04 0.47 17.98-0.61 1.92-0.49 3.56 0.98 5.33 1.52-0.41 0.08-1.23 0.24-1.64 0.32-1.52 2.46-4.71 3.41-5.94 6.05-0.67 4.46-0.22 9.02-1 13.48-0.05 9.71-1.3 19.64 0.67 29.2-0.32 0.77-0.97 2.3-1.3 3.07-8.37-0.79-16.82-0.15-25.12 0.93-11.02 0.82-22.12 2.18-33.14 0.66-17.03-1.48-33.27-10.95-42.68-25.26-2.6-3.86-4.45-8.15-6.35-12.37-4.61-12.46-5.28-25.98-3.86-39.09 2.77-20.17 15.18-39.29 33.44-48.69 6.07-3.35 12.82-4.98 19.53-6.5z"/>
  <path d="m809.88 331.17c2-0.62 4.09-0.63 6.18-0.63-0.18 4.64-6.84 5.67-6.49 10.45 1.31 7.32 4.81 14.02 7.65 20.84 3.68 8.34 7.13 16.78 10.96 25.06 5.85 13.78 11.85 27.5 17.88 41.21 1.18 2.97 2.46 5.89 3.92 8.74 14.3-27.12 28.41-54.33 42.32-81.66 2.1-4.3 4.47-8.52 5.93-13.1 0.98-3.34-1.03-6.31-2.65-9.03 0.3-0.61 0.91-1.82 1.21-2.42 8.75 2.03 17.64-0.8 26.47-0.21 0.37 0.72 1.1 2.17 1.47 2.9-3.35 2.32-7.68 2.87-10.6 5.84-4.78 4.71-7.04 11.17-10.01 17.03-15.52 29.44-31.03 58.89-46.5 88.36-6.48 11.13-11.2 23.43-19.79 33.21-2.66 3.59-6.61 5.8-10.61 7.57-2.61 0.66-5.26 1.12-7.95 1.2l0.56 1.23c-1.56-0.05-3.1-0.1-4.63-0.14l0.51-1.33c-0.63 0.02-1.88 0.06-2.51 0.08-0.1-1.87 0.89-3.53 2.92-3.56 2.73-0.45 5.53-1.1 7.71-2.92 7.45-5.76 11.68-14.44 15.69-22.72 0.87-2.08 2.84-4.24 1.9-6.62-13.83-32.3-28.1-64.42-42.61-96.42-2.65-5.28-3.98-11.43-8.21-15.76-2.28-2.62-5.91-2.91-8.9-4.28-0.01-0.62-0.03-1.88-0.03-2.51 5.39-0.99 10.85 0.47 16.29 0.06 3.96-0.33 7.94-0.34 11.92-0.47z"/>
  <path d="m1139.2 334.35c-1.75-0.28-1.52-2.39-1.83-3.68 5.24 0.15 10.58-0.6 15.75 0.5 4.93 0.6 9.77-0.93 14.71-0.57-2.4 5.55-1.22 11.8 1.79 16.85 10.6 22.02 21.27 44.01 32.08 65.94 3.42 6.66 5.98 13.84 10.38 19.95 12.29-27.01 25.23-53.73 37.61-80.71 1.63-4.19 4.08-8.15 4.71-12.66 0.62-3.07-2.96-5.3-2-8.33 5.54-0.14 11.08 0.22 16.63-0.02 3.43-0.27 6.82-1.09 10.3-1.1 0.12 1.17 0.28 2.34 0.43 3.52-3.89 1.72-9.05 2.57-10.97 6.86-0.57 3.07 0.31 6.15 0.85 9.17 1.9 11.21 3.45 22.5 5.59 33.67 1.81 13.47 4.19 26.85 6.17 40.29 1.83 8.94 2.26 18.19 4.92 26.95 1.33 4.87 6.8 5.77 10.59 8.03-0.05 0.65-0.15 1.93-0.2 2.58-11.3-1.03-22.66-0.08-33.96-1.07 2.04-2.69 5.08-4.27 7.68-6.35 0.81-6.73-0.52-13.45-1.7-20.05-0.54-3.72-0.91-7.46-1.79-11.11-1.64-10.35-3.07-20.74-5.06-31.02-1.33-10.48-3.6-20.82-4.77-31.32-1.96 3.26-3.59 6.7-5.05 10.21-13.06 28.58-26.21 57.12-39.37 85.65-1.02 1.75-1.85 5.08-4.53 3.67-9.11-18.14-17.24-36.77-26.18-55-6.43-14.08-13.59-27.83-19.7-42.05-0.34 0.17-1.03 0.52-1.38 0.7-1.15 6.43-2.74 12.78-3.75 19.24-2.47 10.69-3.92 21.6-6.04 32.36-1.64 11.55-4.76 22.95-5.25 34.63 0.09 4.03 3.53 6.26 6.94 7.52-0.12 0.92-0.23 1.85-0.33 2.79-10.17 0.02-20.33 0.41-30.51 0.29 0.81-4.69 6.61-3.42 9.12-6.55 2.89-2.95 3.44-7.18 4.31-11.04 2.72-14.75 5.88-29.41 8.48-44.18 2.52-11.93 4.81-23.93 7.09-35.92 0.97-4.27 1.6-8.6 2.54-12.88 1.33-4.3-1.77-8.17-4.41-11.21-2.52-2.87-6.29-3.88-9.89-4.55z"/>
  <path d="m1363 331.69c5.01 0.32 9.9-0.96 14.89-1.18-0.11 0.88-0.34 2.64-0.45 3.52-3.99 1.57-8.96 3.88-8.99 8.89-0.03 23.69 0.02 47.4-0.02 71.1-0.02 1.68 0.29 3.35 0.71 4.99 0.24 7.68 0.05 15.38 0.11 23.07 0.07 3.99-0.32 8.05 0.62 11.98 1.39 1.89 3.58 2.93 5.64 3.98-0.03 1.09-0.07 2.19-0.08 3.3-9.69-1.35-19.49-0.24-29.18-0.73-0.14-3.94 4.5-4.01 6.87-6.07 1.87-7.37 0.99-14.99 1.18-22.5-0.13-29.18 0.23-58.39-0.17-87.57 0.06-5.59-4.42-8.96-9.22-10.57l-0.56-2.56c6.22-0.27 12.42 0.63 18.65 0.35z"/>
  <path d="m383.36 395.64c8.17-1.74 17.01-0.41 24.28 3.74 14.77 9.07 19.93 29.71 13.11 45.26-5.08 10.62-15.9 18.27-27.65 19.36-5.71 0.33-11.64 0.29-16.98-2.02-10.02-4.26-17.84-13.55-19.96-24.28-3.54-14.84 3.49-32.21 17.55-38.92 3.05-1.5 6.32-2.49 9.65-3.14m-1.92 3.93c-5.52 1.8-10.5 5.41-13.53 10.42-6.18 9.48-5.94 21.9-1.83 32.14 3.11 7.24 8.61 13.99 16.26 16.65 6.67 2.6 14.63 2.04 20.66-1.93 5.47-3.6 9.5-9.19 11.48-15.4 3.8-13.29-0.06-29.03-10.99-37.87-6.07-4.99-14.62-6.29-22.05-4.01z"/>
  <path d="m443.03 396.66c2.18-1.06 4.63-0.77 6.97-0.8 7.78 0.13 15.57-0.14 23.36-0.1 1.76 1.92 1.95 4.54 2.17 7.03-1.77-0.35-3.04-1.66-4.56-2.48-5.61-0.4-11.23 0.01-16.84 0.12-0.26 7.91-0.25 15.81-0.02 23.72 5.15-0.28 10.36 0.09 15.49-0.59 1.37-1.18 2.18-3.04 4.02-3.62-0.05 4.36 0.51 8.8-0.47 13.09-1.47-1.27-2.32-3.42-4.19-4.13-4.94-0.53-9.91 0.06-14.86 0.21 0.12 8.94-0.09 17.87 0.09 26.8 0.02 2.99 2.92 4.59 4.15 7.03-5.22 0.1-10.47 0.35-15.67-0.19 0.85-1.28 2.02-2.27 3.3-3.09 1.31-2.72 0.89-5.78 0.98-8.69-0.05-16 0.09-32.01-0.07-48.01 0.17-2.76-2.13-4.54-3.85-6.3z"/>
  <path d="m202.26 476.12c3.53-2.32 7.62 0.23 9.83 3.14 1.02 2.47 0.03 5.18-0.09 7.74-3.33 3.24-9.99 4.52-12.87 0.07-3.17-3.48-1.27-9.55 3.13-10.95m-2.42 4.12c-0.38 2.85 0.46 5.56 2.2 7.82 2.37-0.03 4.74-0.05 7.12-0.02-1.7-1.59-3.05-3.48-4.4-5.34-0.42 1.48-0.85 2.96-1.3 4.44-2.1-2.36-0.97-5.52-0.59-8.29 1.82-0.03 3.63-0.06 5.45-0.1 0.97 1.71 0.19 3.38-0.38 5.07 0.53 1.13 1.12 2.24 1.76 3.34 0.46-2.24 1.48-4.5 1.01-6.82-1.13-1.61-2.95-2.57-4.72-3.31-2.56-0.45-4.35 1.81-6.15 3.21m4.35 0.04c-1.22 1.58 1.69 2.65 2.64 1.46 1.22-1.6-1.7-2.7-2.64-1.46z"/>
 </g>
</svg>
