<?xml version="1.0" encoding="UTF-8" standalone="no"?>
<svg xmlns:rdf="http://www.w3.org/1999/02/22-rdf-syntax-ns#" xmlns="http://www.w3.org/2000/svg" height="99.602" width="99.467" version="1.1" xmlns:cc="http://creativecommons.org/ns#" xmlns:dc="http://purl.org/dc/elements/1.1/" viewBox="0 0 79.573896 79.681897">
 <g style="">
  <ellipse rx="39.309" ry="39.362" cy="39.885" cx="39.888" fill="#fff"/>
  <path d="m64.105 26.254c-0.376-0.021-0.758 0.022-1.123 0.111-0.486 0.125-1.065 0.237-1.312 0.733 1.036 0 2.34-0.116 2.957 0.923-0.276 0.118-0.577 0.152-0.871 0.116-3.248-0.203-6.484-1.253-9.752-0.68-1.627 0.249-3.047 1.172-4.231 2.27-0.651-0.454-1.154-1.117-1.906-1.43-1.899-1.082-4.181-1.132-6.297-0.859-2.302 0.111-4.556 0.881-6.877 0.654-0.858-0.064-1.613-0.532-2.463-0.635-0.091 0.981-0.012 1.967-0.027 2.951-0.005 10.061-0.079 20.125 0.016 30.184 0.051 0.529 0.71 0.627 1.131 0.711 1.723 0.108 3.469 0.065 5.166-0.293 1.54-0.335 3.115-0.467 4.685-0.582 2.072-0.042 4.283-0.145 6.16 0.888 0.246-0.007 0.493-0.007 0.739-0.002 0.658-0.179 1.252-0.553 1.929-0.679 1.25-0.258 2.531-0.361 3.805-0.416 2.126 0.078 4.245 0.32 6.369 0.457 1.504 0.188 3.068 0.29 4.539-0.153 0.238-0.1 0.588-0.186 0.641-0.482 0.104-0.785 0.024-1.58 0.041-2.369 0.02-9.272-0.002-18.541 0-27.813-0.006-0.79 0.042-1.584-0.049-2.373-0.313 0.052-0.621 0.138-0.934 0.182-0.479-0.304-0.728-0.884-1.248-1.141-0.342-0.166-0.712-0.252-1.088-0.273zm-0.011 0.324c0.38 0.016 0.747 0.1 1.054 0.356 0.979 0.691 1.372 1.951 1.299 3.107 0.083 1.2-0.416 2.313-0.804 3.418-0.694 1.78-1.889 3.297-3.098 4.752-0.93 1.312-2.123 2.394-3.199 3.58-0.844 0.928-1.831 1.709-2.703 2.605-0.752 0.782-1.655 1.386-2.475 2.088-0.9 0.751-1.747 1.577-2.748 2.194-0.712 0.435-1.351 0.972-2.045 1.433-1.577 0.981-3.211 1.89-4.943 2.571-0.569 0.21-1.161 0.398-1.774 0.396-0.477-0.007-0.92-0.215-1.392-0.256-0.811 0.496-1.457 1.212-2.239 1.752-1.136 0.796-2.11 1.819-3.314 2.516 0.033-0.311 0.064-0.627 0.172-0.922l-0.164-0.035c-0.196 0.529-0.495 1.047-0.473 1.629 0.104 0.007 0.316 0.02 0.42 0.027 0.355-0.551 0.955-0.853 1.451-1.258 0.712-0.519 1.33-1.16 2.076-1.631 0.037-0.089 0.11-0.271 0.147-0.363 0.185-0.026 0.372-0.044 0.558-0.057 0.346-0.559 0.886-1.001 1.477-1.281 0.922 0.161 1.878 0.225 2.787-0.066 1.016-0.212 1.845-0.93 2.854-1.139-0.182-0.298 0.327-0.613 0.515-0.32 0.63-0.445 1.258-0.994 2.035-1.135-0.086-0.278 0.217-0.81 0.479-0.391 0.384-0.437 0.883-0.762 1.406-1.009 0.099-0.593 0.828-0.649 1.295-0.823 0.11-0.23 0.27-0.434 0.477-0.587 0.979-0.769 1.934-1.567 2.873-2.385l-0.129-0.129c0.181-0.088 0.375-0.126 0.576-0.115 0.622-0.902 1.57-1.508 2.266-2.352 0.093-0.154 0.177-0.319 0.31-0.441 0.086 0.009 0.258 0.028 0.344 0.037 0.455-0.919 1.413-1.439 1.914-2.332 0.082-0.119 0.171-0.23 0.269-0.336 0.099-0.002 0.3-0.004 0.399-0.008 0.033-0.456 0.393-0.767 0.658-1.102 0.456-0.521 0.841-1.113 1.381-1.554-0.137-0.302-0.036-0.429 0.301-0.387 0.097-0.273 0.237-0.526 0.388-0.77 1.285-1.976 2.22-4.335 1.887-6.732 0.024-0.348-0.25-0.772 0.016-1.064 0.106 0 0.32 0.002 0.427 0.002 0.028 10.173-0.015 20.351 0.014 30.525 0.002 0.461 0.026 0.925-0.029 1.385-1.468 0.644-3.116 0.387-4.668 0.365-3.321-0.359-6.708-0.794-10.029-0.205-0.928 0.128-1.716 0.675-2.598 0.933-0.49-0.115-0.923-0.394-1.395-0.562-1.414-0.558-2.963-0.518-4.457-0.502-3.143 0.005-6.203 0.918-9.341 0.977-0.714-0.032-1.497-0.042-2.106-0.463-0.018-10.868 0.012-21.738-0.016-32.606 2.323 0.873 4.866 0.607 7.252 0.166 2.304-0.256 4.735-0.624 6.977 0.149 1.076 0.347 1.96 1.07 2.85 1.74 0.098-0.02 0.291-0.062 0.39-0.082 0.114 0.472 0.084 0.96 0.086 1.441-0.036 2.952 0.038 5.906-0.037 8.856-0.108-0.022-0.324-0.066-0.432-0.086-1.189 0.666-2.312 1.441-3.468 2.162-0.006 0.079-0.018 0.236-0.024 0.314-0.071-0.012-0.212-0.043-0.283-0.056-0.988 0.794-2.035 1.533-2.816 2.55 0.009 0.238-0.106 0.36-0.346 0.368-0.738 0.838-1.336 1.78-1.684 2.845 0.004 0.085 0.012 0.25 0.018 0.332l-0.158 0.028c-0.046 0.604-0.083 1.222-0.272 1.801-0.492 0.413-1.013 0.8-1.562 1.136 0.025 0.418-0.406 0.362-0.694 0.42-0.468 0.467-1.049 0.79-1.574 1.186-0.509 0.375-0.441 1.088-0.668 1.623-0.047 0.181-0.097 0.362-0.15 0.543l0.064 0.207c0.09-0.046 0.266-0.14 0.354-0.186-0.031-0.611 0.126-1.243 0.468-1.754 1.23-1.182 2.83-1.89 4.102-3.015 0.152-0.873 0.134-1.792 0.525-2.608 0.504-1.074 1.15-2.099 2.004-2.929 1.201-1.199 2.524-2.285 3.969-3.176 2.716-1.846 5.695-3.238 8.594-4.764 0.404-0.205 0.789-0.449 1.166-0.703-0.236-0.011-0.469-0.029-0.703-0.049-0.266 0.412-0.757 0.551-1.174 0.756-1.759 0.761-3.402 1.761-5.109 2.623-0.119-2.316-0.014-4.64-0.047-6.959 0.044-0.951-0.121-1.922 0.09-2.859 1.271-1.316 3.088-2.115 4.921-2.143 2.396-0.128 4.769 0.291 7.129 0.637 0.837 0.13 1.69 0.047 2.528 0.17-0.132 0.739-0.426 1.459-0.911 2.039l0.108 0.168c0.983-0.76 1.488-2.431 0.582-3.434-0.443-0.397-1.067-0.481-1.592-0.73 0.365-0.019 0.76-0.072 1.141-0.057zm3.988 1.408c-0.095 0.002-0.288 0.002-0.383 0.004-0.086 2.388-0.011 4.784-0.037 7.176 0.028 1.286-0.059 2.577 0.043 3.861 0.093 0.004 0.28 0.01 0.373 0.014 0.017-3.683 0.004-7.371 0.004-11.055zm-36.424 0.254c-0.122 0.901-0.034 1.811-0.053 2.717 0.03 2.694-0.065 5.392 0.041 8.084 0.083-0.016 0.246-0.046 0.327-0.061 0.025-3.577 0.002-7.155 0.013-10.732-0.082-0.002-0.247-0.006-0.328-0.008zm36.635 0.526c-0.07 3.352 0.005 6.708-0.039 10.062-0.007 0.716-0.064 1.435 0.033 2.149 0.075 0.001 0.226 0.005 0.301 0.007 0.004-4.053-0.002-8.109-0.004-12.162-0.073-0.014-0.218-0.042-0.291-0.056zm-37.195 0.119v0.002c-0.103 2.455-0.008 4.917-0.039 7.377 0.034 1.295-0.085 2.598 0.045 3.89l0.214-0.002c0.143-1.412 0.007-2.837 0.051-4.254-0.042-2.333 0.082-4.672-0.058-6.998l-0.213-0.015zm-0.551 0.185c-0.097 0.869-0.028 1.747-0.041 2.619 0.044 2.074-0.086 4.153 0.06 6.221l0.196 0.028c0.111-0.859 0.047-1.727 0.056-2.588-0.042-2.085 0.088-4.18-0.058-6.258l-0.213-0.022zm38.265 0.018v0.002c-0.029 0.327-0.031 0.657-0.003 0.986 0.102-0.002 0.303-0.004 0.404-0.006 0.033-0.325 0.035-0.654 0.008-0.98-0.101 0-0.306 0-0.409-0.002zm-19.759 2.189c-0.394-0.018-0.164 0.538-0.246 0.778 0.047 2.554-0.075 5.117 0.058 7.666l0.182 0.035c0.088-0.919 0.026-1.84 0.039-2.76-0.024-1.907 0.053-3.816-0.033-5.719zm11.396 4.075c-0.574-0.054-0.487 0.696-0.582 1.084 0.104-0.032 0.312-0.094 0.416-0.125 0.152-0.295 0.168-0.636 0.166-0.959zm-1.105 1.058c-0.558-0.075-0.486 0.613-0.59 0.981 0.52 0.02 0.506-0.615 0.59-0.981zm-1.492 0.486c-0.376 0.365-0.405 0.904-0.373 1.393 0.484-0.185 0.751-1.047 0.373-1.393zm2.49 0.338c-0.079 0.063-0.238 0.188-0.317 0.25 0.602 0.103 1.202 0.253 1.813 0.293 0.062-0.087 0.184-0.263 0.246-0.351-0.578-0.094-1.16-0.142-1.742-0.192zm-3.596 0.563c-0.39 0.359-0.459 0.912-0.377 1.412 0.39-0.296 0.664-0.993 0.377-1.412zm2.697 0.154c-0.179 0.136-0.349 0.279-0.517 0.424 0.852 0.11 1.708 0.277 2.574 0.244-0.024-0.068-0.072-0.206-0.096-0.275-0.64-0.185-1.311-0.246-1.961-0.393zm-3.777 0.328c-0.478 0.348-0.454 1.092-0.529 1.637l0.152 0.066c0.511-0.364 0.423-1.143 0.377-1.703zm2.668 0.6c-0.172 0.137-0.344 0.271-0.514 0.406 0.747 0.158 1.491 0.351 2.256 0.401 0.07-0.231-0.011-0.371-0.242-0.422-0.5-0.134-1.006-0.241-1.5-0.385zm-3.84 0.326c-0.106 0.004-0.314 0.014-0.42 0.018-0.119 0.582-0.194 1.172-0.209 1.765 0.068-0.013 0.202-0.04 0.27-0.054 0.21-0.553 0.295-1.145 0.359-1.729zm-1.187 0.332l-0.186 0.002c-0.467 0.626-0.321 1.503-0.426 2.242 0.088-0.002 0.266-0.006 0.354-0.008 0.099-0.744 0.234-1.486 0.258-2.236zm3.896 0.223c-0.214 0.148-0.42 0.309-0.627 0.467 0.935 0.042 1.855 0.291 2.795 0.24-0.538-0.611-1.451-0.477-2.168-0.707zm-5.391 0.662c-0.241 0.714-0.252 1.482-0.285 2.228 0.063 0.004 0.186 0.007 0.248 0.01 0.337-0.66 0.312-1.463 0.385-2.191-0.086-0.013-0.262-0.036-0.348-0.047zm4.141 0.281c-0.183 0.126-0.358 0.267-0.535 0.402 0.928 0.176 1.859 0.39 2.807 0.401-0.048-0.079-0.144-0.236-0.19-0.317-0.682-0.206-1.398-0.279-2.082-0.486zm-5.211 0.283l-0.183 0.055c-0.105 0.842-0.494 1.745-0.2 2.576 0.546-0.739 0.423-1.763 0.383-2.631zm3.934 0.635c-0.181 0.126-0.354 0.265-0.526 0.404 0.999 0.174 1.985 0.464 3.004 0.5-0.042-0.073-0.125-0.223-0.166-0.298-0.757-0.249-1.567-0.311-2.312-0.606zm-5.031 0.451c-0.088 0.013-0.266 0.036-0.354 0.049-0.135 0.853-0.258 1.717-0.211 2.584 0.174-0.095 0.289-0.237 0.346-0.422 0.207-0.717 0.231-1.47 0.219-2.211zm3.91 0.424c-0.132 0.097-0.265 0.198-0.395 0.299 0.853 0.274 1.729 0.55 2.631 0.57 0.053-0.071 0.16-0.213 0.213-0.283-0.824-0.168-1.661-0.284-2.449-0.586zm-5.02 0.49c-0.09 0.006-0.272 0.014-0.361 0.018-0.072 0.805-0.26 1.605-0.231 2.416l0.188 0.047c0.413-0.754 0.34-1.652 0.404-2.481zm3.865 0.321c-0.172 0.104-0.331 0.23-0.494 0.347 1.076 0.245 2.173 0.659 3.293 0.496-0.825-0.549-1.904-0.43-2.799-0.843zm-5.162 0.42c-0.089 0.011-0.267 0.029-0.357 0.039-0.254 0.819-0.265 1.7-0.221 2.55 0.072-0.023 0.214-0.07 0.285-0.093 0.185-0.816 0.286-1.658 0.293-2.496zm3.735 0.593c-0.134 0.101-0.263 0.207-0.387 0.319 1.118 0.351 2.28 0.573 3.453 0.644-0.013-0.089-0.038-0.272-0.049-0.363-1.003-0.221-2.069-0.159-3.017-0.6zm-5.034 0.299l-0.148 0.065c-0.298 0.818-0.298 1.72-0.225 2.578l0.157-0.086c0.227-0.796 0.364-1.632 0.353-2.461l-0.137-0.096zm3.799 0.604c-0.13 0.093-0.258 0.186-0.386 0.283 1.167 0.294 2.348 0.578 3.554 0.633-0.014-0.079-0.044-0.234-0.06-0.313-1.018-0.282-2.099-0.265-3.108-0.603zm-4.865 0.353l-0.176 0.035c-0.322 0.798-0.351 1.683-0.369 2.534 0.079-0.004 0.236-0.009 0.315-0.012 0.168-0.838 0.314-1.699 0.23-2.557zm3.67 0.506c-0.192 0.128-0.382 0.257-0.568 0.391 1.237 0.031 2.42 0.459 3.65 0.545 0.02-0.083 0.06-0.244 0.08-0.325-1.032-0.313-2.13-0.294-3.162-0.611zm-4.92 0.744c-0.093 0.007-0.28 0.022-0.373 0.029-0.101 0.747-0.213 1.491-0.242 2.245 0.073-0.037 0.22-0.11 0.293-0.145 0.258-0.677 0.282-1.415 0.322-2.129zm3.672 0.168c-0.154 0.114-0.309 0.224-0.465 0.334 1.232 0.159 2.434 0.53 3.678 0.598-0.024-0.097-0.074-0.292-0.1-0.389-1.026-0.241-2.096-0.248-3.113-0.543zm-1.291 0.957c-0.146 0.108-0.295 0.213-0.442 0.32 1.161 0.209 2.309 0.574 3.495 0.59 0.084-0.034 0.251-0.101 0.336-0.134-1.01-0.635-2.291-0.377-3.389-0.776zm-3.543 0.401c-0.075 0.016-0.226 0.05-0.303 0.066-0.185 0.454-0.247 0.947-0.287 1.432 0.093-0.013 0.282-0.038 0.377-0.051 0.121-0.474 0.191-0.961 0.213-1.447zm2.482 0.384c-0.212 0.154-0.424 0.307-0.638 0.459 1.284 0.13 2.534 0.504 3.826 0.557l-0.051-0.402c-1.037-0.249-2.152-0.147-3.137-0.614zm-1.263 0.944c-0.169 0.133-0.33 0.277-0.496 0.414 1.052 0.201 2.102 0.536 3.187 0.465-0.302-0.462-0.878-0.442-1.359-0.536-0.456-0.065-0.899-0.193-1.332-0.343zm-1.141 0.945c-0.159 0.119-0.315 0.239-0.469 0.361 0.869 0.196 1.735 0.485 2.637 0.461-0.538-0.624-1.441-0.584-2.168-0.822zm6.516 0.424l-0.196 0.012c-0.109 1.163-0.023 2.334-0.048 3.501 0.029 1.226-0.065 2.458 0.046 3.682l0.198 0.026c0.056-2.405 0.056-4.817 0-7.221zm-9.293 0.553c-0.117 0.345-0.226 0.693-0.323 1.044 0.194-0.159 0.391-0.313 0.588-0.468-0.093-0.191-0.181-0.382-0.265-0.576zm-1.276 0.966c-0.082 0.324-0.1 0.659-0.146 0.991 0.194-0.139 0.392-0.272 0.582-0.42-0.097-0.236-0.123-0.549-0.436-0.571zm-1.027 0.817c-0.192 0.382-0.257 0.806-0.273 1.228 0.204-0.161 0.407-0.328 0.601-0.504-0.102-0.245-0.211-0.488-0.328-0.724zm-5.885 1.226c-0.058 2.171-0.023 4.346-0.017 6.516 0.104-0.002 0.311-0.006 0.416-0.008 0.018-2.17 0.017-4.339 0.011-6.508h-0.41zm36.506 0.088c-0.095 0.002-0.288 0.004-0.385 0.006-0.126 2.044 0.076 4.104-0.084 6.147-0.56 0.349-1.239 0.425-1.884 0.427-1.3-0.007-2.603 0.025-3.897-0.131 0.002 0.088 0.004 0.26 0.006 0.346 1.656 0.057 3.317 0.112 4.973 0.029 0.461-0.097 1.27-0.101 1.261-0.744 0.028-2.023 0.027-4.054 0.01-6.08zm0.225 1.186c-0.132 1.855 0.055 3.722-0.086 5.578-1.47 0.421-3.005 0.054-4.496 0.252-0.002 0.079-0.006 0.235-0.008 0.312 1.59-0.089 3.25 0.235 4.787-0.279 0.132-0.366 0.085-0.764 0.096-1.144-0.037-1.572 0.015-3.144-0.014-4.715-0.07 0-0.21-0.004-0.279-0.004zm-37.201 0.101c-0.107 0.924-0.029 1.858-0.043 2.785 0.014 0.921-0.067 1.847 0.054 2.762l0.203 0.008c0.114-0.919 0.035-1.847 0.049-2.77-0.014-0.927 0.064-1.86-0.056-2.783l-0.207-0.002zm-0.342 0.541l-0.203 0.024c-0.119 0.979-0.031 1.967-0.051 2.951 0.018 0.838-0.082 1.687 0.07 2.516l0.174 0.058c0.124-0.915 0.055-1.837 0.066-2.756-0.012-0.931 0.059-1.867-0.056-2.793zm25.865 4.034c-1.375-0.002-2.747 0.212-4.111 0.369-0.293 0.1-0.807-0.007-0.868 0.392 0.332 0.185 0.723 0.03 1.077 0.01 1.041-0.188 2.098-0.228 3.152-0.285 1.383-0.081 2.757 0.236 4.143 0.119 0.003-0.084 0.012-0.252 0.017-0.338-0.677-0.075-1.36-0.096-2.035-0.183-0.458-0.059-0.917-0.084-1.375-0.084zm-12.998 0.136c-0.381 0.008-0.762 0.023-1.143 0.049-1.176 0.079-2.389 0.055-3.523 0.41 0.009 0.081 0.028 0.242 0.037 0.321 1.881-0.218 3.769-0.417 5.668-0.362 1.305-0.113 2.584 0.234 3.883 0.221l0.025-0.188c-0.481-0.203-0.998-0.3-1.515-0.345-1.142-0.08-2.288-0.129-3.432-0.106zm12.523 0.573c-1.33 0.025-2.664 0.146-3.951 0.468 0.026 0.059 0.08 0.178 0.108 0.237 2.439-0.249 4.909-0.667 7.359-0.246 0.344-0.019 0.904 0.254 1.068-0.178-1.039-0.39-2.17-0.254-3.256-0.28-0.441-0.008-0.884-0.01-1.328-0.001zm-12.785 0.007c-1.163 0.031-2.324 0.174-3.467 0.393-0.243 0.005-0.349 0.132-0.312 0.375 2.141-0.304 4.325-0.65 6.478-0.238 0.436 0.005 0.934 0.316 1.332 0.058-0.051-0.239-0.371-0.233-0.556-0.301-1.148-0.235-2.312-0.317-3.475-0.287zm3.822 1.487c-0.075 0.969 0.858 1.562 1.704 1.699 1.035 0.161 2.228 0.111 3.07-0.594 0.335-0.262 0.412-0.706 0.433-1.105l-0.167 0.033c-0.302 0.483-0.629 1.042-1.231 1.178-0.829 0.188-1.725 0.198-2.545-0.045-0.554-0.149-0.839-0.672-1.096-1.135l-0.168-0.031z" fill="#b7b7b7" transform="scale(.8)"/>
  <path d="m50.164 0.59766c-0.571 0.12991-1.075 0.45604-1.633 0.61524-0.428-0.1391-0.83-0.41148-1.297-0.37306-0.607-0.03659-1.13 0.31016-1.677 0.50786-0.588-0.086-1.177-0.4203-1.772-0.1934-0.465 0.0878-0.861 0.3579-1.289 0.5391-0.47-0.0915-0.946-0.1902-1.426-0.1426-0.6 0.0219-1.065 0.444-1.568 0.7148-0.578-0.0677-1.175-0.234-1.746-0.0254-0.483 0.1171-0.827 0.4919-1.211 0.7774-0.505-0.0147-1.025-0.2207-1.518-0.0176-0.567 0.161-0.973 0.6074-1.425 0.9551-0.548 0.0293-1.143-0.1342-1.643 0.164-0.448 0.205-0.776 0.5803-1.135 0.9024-0.468 0.1427-1.01-0.0721-1.457 0.1914-0.607 0.1885-0.987 0.7074-1.402 1.1484-1.089-0.097-2.082 0.5031-2.633 1.418-0.565 0.1427-1.214 0.1087-1.687 0.5039-0.401 0.2873-0.643 0.7188-0.901 1.125-0.38 0.1299-0.787 0.1615-1.166 0.2969-0.635 0.3069-1.034 0.9209-1.373 1.5159-0.437 0.126-0.924 0.138-1.301 0.422-0.516 0.347-0.765 0.941-1.049 1.468-0.342 0.233-0.796 0.243-1.144 0.481-0.613 0.347-0.822 1.065-1.129 1.65-0.443 0.211-0.956 0.317-1.295 0.701-0.483 0.383-0.581 1.01-0.832 1.536-0.39 0.226-0.846 0.352-1.168 0.679-0.399 0.454-0.539 1.054-0.801 1.584-0.362 0.309-0.827 0.497-1.131 0.879-0.3911 0.474-0.4963 1.094-0.7085 1.654-0.4099 0.31-0.8878 0.56-1.1641 1.012-0.311 0.465-0.3457 1.037-0.4902 1.563-0.4392 0.294-0.8842 0.614-1.0781 1.13-0.3806 0.557-0.0517 1.44-0.7032 1.823-0.8545 0.521-0.9525 1.578-1.0019 2.478-0.3495 0.339-0.7378 0.665-0.9043 1.139-0.2781 0.505-0.1585 1.091-0.1914 1.639-0.2873 0.366-0.6347 0.689-0.8653 1.099-0.2726 0.577-0.1589 1.221-0.1699 1.834-0.2159 0.45-0.6507 0.784-0.7715 1.285-0.1299 0.557-0.0204 1.126 0.0235 1.684-0.3019 0.536-0.7686 1.038-0.7539 1.693-0.0421 0.432 0.135 0.837 0.1972 1.258-0.1134 0.366-0.4477 0.629-0.541 1.008-0.1811 0.697-0.0193 1.414 0.0996 2.107-0.1921 0.483-0.55719 0.926-0.50778 1.475-0.05673 0.573 0.27208 1.091 0.25198 1.66-0.10433 0.377-0.31688 0.715-0.43948 1.088-0.24337 0.785 0.72838 1.488 0.34961 2.266-0.22324 0.497-0.20222 1.061-0.13086 1.591 0.10796 0.493 0.59343 0.951 0.32813 1.471-0.37146 0.9-0.0398 1.875 0.5 2.623-0.1043 0.518-0.3652 1.04-0.1914 1.574 0.0695 0.515 0.4231 0.91 0.6738 1.344 0.0348 0.54-0.1777 1.081-0.0332 1.621 0.0659 0.573 0.5236 0.962 0.7871 1.44-0.0018 0.525-0.1276 1.069 0.0371 1.584 0.1867 0.528 0.6382 0.891 0.9492 1.341-0.2982 1.106 0.2751 2.149 1.1114 2.838 0.064 0.546-0.0911 1.143 0.2383 1.629 0.2232 0.502 0.6748 0.825 1.0664 1.186 0.0347 0.466-0.0177 0.962 0.2129 1.39 0.2452 0.566 0.7925 0.889 1.25 1.266 0.0439 0.518 0.0291 1.067 0.3457 1.514 0.258 0.529 0.835 0.736 1.2851 1.06 0.0531 0.666 0.1847 1.391 0.752 1.823 0.307 0.391 1.003 0.413 1.055 0.988 0.095 0.999 0.968 1.655 1.826 2.013 0.21 0.452 0.263 0.986 0.607 1.372 0.405 0.492 1.047 0.658 1.574 0.98 0.163 0.428 0.264 0.911 0.616 1.238 0.399 0.472 1.04 0.56 1.558 0.838 0.231 0.375 0.359 0.817 0.664 1.147 0.463 0.393 1.055 0.574 1.606 0.804 0.353 0.377 0.507 0.926 0.959 1.219 0.455 0.353 1.032 0.434 1.564 0.61 0.35 0.446 0.62 0.996 1.153 1.255 0.43 0.269 0.95 0.27 1.427 0.393 0.535 0.924 1.547 1.487 2.616 1.445 0.355 0.359 0.609 0.853 1.109 1.041 0.492 0.286 1.072 0.194 1.613 0.256 0.388 0.342 0.716 0.779 1.217 0.969 0.54 0.273 1.147 0.239 1.734 0.254 0.352 0.298 0.646 0.697 1.104 0.844 0.545 0.212 1.14 0.082 1.709 0.138 0.39 0.22 0.727 0.532 1.144 0.707 0.623 0.24 1.294 0.08 1.936 0.024 0.311 0.221 0.588 0.505 0.943 0.666 0.703 0.153 1.421-0.04 2.123 0.009 0.714 0.559 1.66 0.692 2.514 0.401 0.597-0.247 1.062 0.358 1.627 0.451 0.785 0.302 1.57-0.678 2.295-0.135 0.822 0.522 1.816 0.177 2.623-0.185 0.615 0.271 1.305 0.582 1.975 0.289 0.461-0.112 0.873-0.623 1.371-0.385 0.92 0.348 1.924 0.099 2.716-0.436 0.89 0.321 1.908 0.279 2.659-0.347 0.384-0.39 0.888-0.034 1.343-0.047 0.78 0.051 1.391-0.494 1.993-0.9 0.565 0.031 1.15 0.128 1.705-0.051 0.443-0.198 0.771-0.571 1.146-0.865 0.498-0.037 1.011 0.082 1.494-0.084 0.564-0.185 0.933-0.682 1.418-0.997 0.43-0.056 0.891 0.051 1.293-0.15 0.604-0.205 1.039-0.684 1.44-1.154 0.547-0.097 1.142-0.077 1.634-0.375 0.399-0.273 0.703-0.658 1.006-1.03 0.434-0.276 1.011-0.123 1.457-0.386 0.529-0.249 0.821-0.778 1.12-1.25 0.42-0.247 0.954-0.182 1.375-0.438 0.534-0.322 0.866-0.865 1.181-1.385 0.491-0.173 1.056-0.202 1.455-0.574 0.447-0.36 0.663-0.907 0.94-1.392 0.437-0.165 0.934-0.233 1.293-0.561 0.499-0.393 0.68-1.023 1.004-1.543 0.446-0.214 0.956-0.344 1.294-0.732 0.436-0.372 0.528-0.957 0.756-1.449 0.41-0.262 0.902-0.412 1.235-0.782 0.377-0.461 0.514-1.054 0.783-1.574 0.359-0.252 0.776-0.433 1.07-0.767 0.43-0.456 0.529-1.094 0.717-1.667 0.445-0.334 0.973-0.612 1.234-1.128 0.264-0.438 0.305-0.953 0.414-1.44 0.344-0.331 0.791-0.574 1.022-1.01 0.318-0.516 0.341-1.132 0.478-1.707 0.357-0.353 0.852-0.61 1.024-1.113 0.265-0.505 0.184-1.08 0.254-1.623 0.476-0.386 0.903-0.859 1.062-1.467 0.073-0.45 0.005-0.909 0.076-1.357 0.28-0.353 0.619-0.666 0.84-1.061 0.3-0.571 0.149-1.229 0.174-1.842 0.291-0.45 0.71-0.843 0.807-1.392 0.157-0.525-0.014-1.057-0.071-1.58 0.264-0.481 0.731-0.889 0.756-1.469 0.068-0.505-0.036-1.003-0.191-1.48 0.188-0.379 0.482-0.706 0.588-1.123 0.271-0.656-0.074-1.326-0.119-1.987 0.091-0.413 0.156-0.521 0.425-0.83 0.088-0.333 0.054-1.15 0.038-1.486-0.167-0.35-0.298-0.366-0.274-0.783 0.11-0.271 0.187-0.457 0.354-0.69 0.029-0.521 0.029-1.045 0.006-1.566-0.172-0.235-0.236-0.434-0.364-0.698 0.061-0.34 0.177-0.64 0.336-0.933 0.015-0.399 0.057-0.679 0.008-1.076-0.267-0.315-0.366-0.681-0.516-1.069 0.299-0.858 0.407-1.873-0.138-2.66-0.416-0.461 0.039-1.041-0.01-1.566 0.04-0.696-0.417-1.255-0.746-1.819 0.033-0.543 0.265-1.09 0.051-1.625-0.09-0.538-0.527-0.897-0.784-1.347 0.021-0.67 0.176-1.404-0.209-2.004-0.175-0.355-0.53-0.576-0.72-0.916-0.02-0.412 0.049-0.826-0.026-1.235-0.177-0.68-0.707-1.175-1.142-1.695-0.075-0.512 0.073-1.076-0.205-1.541-0.231-0.483-0.679-0.795-1.065-1.141-0.077-0.523 0.006-1.09-0.289-1.558-0.267-0.529-0.781-0.844-1.211-1.219-0.062-0.41 0-0.851-0.207-1.226-0.278-0.608-0.876-0.957-1.414-1.303-0.09-0.496-0.086-1.03-0.406-1.449-0.269-0.474-0.779-0.703-1.233-0.957-0.263-0.441-0.211-1.033-0.566-1.434-0.395-0.474-0.966-0.719-1.471-1.045-0.155-0.446-0.241-0.938-0.578-1.293-0.36-0.478-0.963-0.632-1.461-0.916-0.25-0.428-0.344-0.952-0.736-1.289-0.351-0.45-0.911-0.601-1.42-0.789-0.362-0.381-0.467-0.949-0.871-1.295-0.445-0.34-0.995-0.489-1.492-0.727-0.311-0.301-0.467-0.732-0.785-1.031-0.432-0.468-1.079-0.5909-1.664-0.7556-0.478-0.5233-0.845-1.2384-1.582-1.4434-0.388-0.2232-0.984-0.0143-1.227-0.459-0.492-0.8362-1.464-1.2487-2.408-1.2011-0.441-0.3733-0.731-0.9488-1.307-1.1446-0.503-0.1628-1.035-0.1841-1.553-0.2793-0.402-0.3385-0.761-0.7623-1.285-0.916-0.503-0.2415-1.067-0.1278-1.597-0.1992-0.368-0.322-0.729-0.6633-1.17-0.8848-0.547-0.1299-1.114-0.0287-1.666-0.0781-0.441-0.2671-0.825-0.6401-1.323-0.8066-0.576-0.1409-1.164 0.0086-1.744-0.0078-0.591-0.4319-1.315-0.9039-2.082-0.6953-0.39 0.0677-0.856 0.3056-1.189-0.0274-0.628-0.5197-1.504-0.4956-2.254-0.3144-0.674 0.322-1.186-0.47671-1.85-0.44926-0.585-0.05855-1.115 0.22986-1.668 0.36526-0.481-0.2141-0.935-0.505-1.451-0.63674zm0.029 0.75004c0.372 0.0016 0.732 0.1041 1.008 0.375 0.708 0.5947 1.154 1.4198 1.674 2.1718 0.143 0.2379 0.375 0.4756 0.311 0.7793-0.476 0.0696-0.981 0.1477-1.448-0.0078-0.873-0.4556-1.3-1.3834-1.894-2.1172-0.244-0.3257-0.557-0.6031-0.733-0.9746 0.327-0.129 0.711-0.2281 1.082-0.2265zm-3.08 0.0527c0.314-0.0204 0.627 0.0302 0.907 0.2031 0.801 0.4849 1.267 1.3281 1.822 2.0527 0.174 0.269 0.489 0.5007 0.445 0.8575-0.51 0.2287-1.156 0.3307-1.644-0.0078-0.91-0.6204-1.463-1.6082-2.235-2.3731-0.163-0.1262-0.207-0.3179-0.211-0.5137 0.288-0.1079 0.602-0.1984 0.916-0.2187zm6.19 0.0508c0.365 0.0505 0.713 0.2087 0.982 0.4941 0.783 0.8125 1.255 1.8698 1.762 2.8652-0.357 0.269-0.851 0.3201-1.25 0.1133-0.93-0.4025-1.384-1.3692-1.889-2.1816-0.219-0.3898-0.615-0.6829-0.705-1.1367 0.349-0.1473 0.734-0.2049 1.1-0.1543zm-9.172 0.2539c0.306-0.0064 0.622 0.0456 0.89 0.1133 1.02 0.6203 1.689 1.67 2.395 2.5996-0.333 0.5837-1.261 0.451-1.773 0.1308-0.824-0.5617-1.43-1.3774-2.157-2.0508-0.119-0.1372-0.416-0.379-0.187-0.5546 0.228-0.1666 0.525-0.2319 0.832-0.2383zm11.791 0.0371c0.221 0.0121 0.458 0.0604 0.646 0.0586 1.031 0.4593 1.397 1.6149 1.893 2.5371 0.115 0.3202 0.484 0.7938 0.105 1.0664-0.711 0.1775-1.391-0.2462-1.806-0.7988-0.483-0.6496-0.803-1.4004-1.211-2.0957-0.061-0.1958-0.321-0.397-0.186-0.6075 0.131-0.1491 0.338-0.1722 0.559-0.1601zm-14.537 0.3555c0.468 0.007 0.938 0.178 1.273 0.5019 0.692 0.6405 1.333 1.3336 1.977 2.0234-0.54 0.4959-1.379 0.6144-1.985 0.1661-0.924-0.6313-1.753-1.4036-2.533-2.2051 0.331-0.3358 0.799-0.4934 1.268-0.4863zm17.603 0.164c0.254 0.0032 0.508 0.0325 0.746 0.1231 0.623 0.3623 0.901 1.0651 1.2 1.6836 0.261 0.6313 0.572 1.2503 0.716 1.9218-0.43 0.0202-0.877 0.0727-1.291-0.0664-0.732-0.4428-1.066-1.2745-1.412-2.0156-0.223-0.5453-0.557-1.0442-0.718-1.6133 0.248-0.0137 0.505-0.0364 0.759-0.0332zm-20.656 0.4375c0.451-0.0327 0.925 0.1007 1.279 0.377 0.708 0.569 1.39 1.1754 2.043 1.8086v0.332c-0.452 0.2123-0.975 0.5314-1.474 0.2734-1.148-0.4776-2.035-1.4015-2.989-2.1718 0.261-0.3889 0.69-0.5865 1.141-0.6192zm23.356 0.1582c0.511 0.0148 1.022 0.1508 1.353 0.5762 0.728 1.0064 1.095 2.2509 1.309 3.4531-0.377 0-0.796 0.0862-1.127-0.1426-0.703-0.344-0.96-1.1385-1.262-1.8027-0.254-0.6898-0.591-1.3508-0.777-2.0644 0.164-0.0156 0.333-0.0245 0.504-0.0196zm-26.176 0.7031c0.447-0.0356 0.906 0.0763 1.279 0.3379 0.754 0.5051 1.447 1.0981 2.141 1.6836 0.053 0.2288-0.198 0.3097-0.344 0.4121-0.589 0.388-1.391 0.2429-1.94-0.1523-0.779-0.4849-1.503-1.0547-2.277-1.5469-0.016-0.0476-0.048-0.1458-0.064-0.1933 0.323-0.3239 0.758-0.5054 1.205-0.5411zm29.095 0.1915c0.513 0.0199 1.023 0.1655 1.334 0.6074 0.699 1.0082 0.828 2.2732 1.135 3.4297-0.922 0.3129-1.771-0.3754-2.049-1.2207-0.32-0.9296-0.662-1.8548-0.925-2.8008 0.164-0.0147 0.335-0.0223 0.505-0.0156zm-31.486 0.7519c0.188 0.021 0.375 0.0737 0.551 0.1602 0.906 0.4227 1.68 1.0715 2.471 1.6699 0.135 0.2928-0.258 0.373-0.428 0.5176-0.416 0.2891-0.982 0.3112-1.432 0.0898-0.97-0.3861-1.761-1.0864-2.685-1.5566-0.011-0.0842-0.034-0.2498-0.045-0.334 0.42-0.3939 1.004-0.61 1.568-0.5469zm34.197 0.1875c0.918 0.0308 1.697 0.8021 1.87 1.7051 0.172 0.8838 0.537 1.7739 0.449 2.6797-0.906 0.0164-1.675-0.6411-1.924-1.4883-0.286-0.9479-0.5-1.9173-0.795-2.8633 0.135-0.0277 0.269-0.0376 0.4-0.0332zm-16.425 0.2285c0.477 0.1922 0.921 0.5522 1.462 0.5156 0.506 0.0513 0.94-0.2462 1.413-0.3652 0.419 0.2379 0.823 0.5807 1.334 0.5606 0.494 0.0622 0.967-0.1124 1.443-0.2149 0.346 0.1556 0.632 0.4245 0.992 0.5508 0.586 0.1025 1.176-0.0269 1.764-0.0195 0.408 0.2818 0.791 0.6236 1.285 0.748 0.478 0.0476 0.958-0.0231 1.437-0.0176 0.412 0.1922 0.707 0.5777 1.141 0.7442 0.509 0.0933 1.029 0.0248 1.545 0.0449 0.384 0.3312 0.707 0.7856 1.23 0.9082 0.476 0.1976 0.997 0.1023 1.495 0.1719 0.329 0.3605 0.624 0.7959 1.113 0.9551 0.448 0.2177 0.962 0.0894 1.439 0.1699 0.278 0.3165 0.498 0.7041 0.869 0.9301 0.465 0.265 1.008 0.299 1.528 0.363 0.331 0.393 0.569 0.895 1.047 1.137 0.426 0.245 0.924 0.259 1.4 0.318 0.313 0.543 0.618 1.165 1.238 1.414 0.341 0.187 0.77 0.14 1.088 0.357 0.244 0.374 0.386 0.832 0.748 1.116 0.403 0.313 0.917 0.401 1.369 0.619 0.238 0.424 0.401 0.911 0.782 1.238 0.344 0.333 0.825 0.426 1.254 0.606 0.248 0.369 0.312 0.837 0.605 1.183 0.355 0.434 0.915 0.577 1.395 0.822 0.197 0.463 0.274 0.99 0.607 1.383 0.32 0.381 0.816 0.53 1.217 0.805 0.159 0.448 0.2 0.955 0.512 1.336 0.309 0.426 0.785 0.671 1.201 0.978 0.175 0.511 0.119 1.106 0.47 1.547 0.258 0.359 0.665 0.554 0.996 0.832 0.173 0.525 0.093 1.129 0.42 1.596 0.257 0.404 0.689 0.637 1.026 0.963 0.047 0.434-0.007 0.892 0.207 1.293 0.188 0.498 0.667 0.779 1.037 1.133 0.055 0.505-0.029 1.022 0.066 1.525 0.172 0.479 0.564 0.814 0.901 1.178 0.08 0.496-0.075 1.035 0.181 1.498 0.165 0.402 0.475 0.716 0.735 1.06 0.035 0.522-0.071 1.049 0.01 1.571 0.155 0.475 0.496 0.85 0.765 1.261-0.064 0.434-0.294 0.859-0.189 1.307 0.153 0.485 0.453 0.898 0.718 1.326 0.055 0.414-0.204 0.8-0.193 1.215-0.038 0.606 0.347 1.118 0.574 1.65-0.075 0.493-0.34 0.953-0.265 1.469-0.055 0.527 0.259 0.97 0.427 1.445-0.173 0.482-0.469 0.947-0.386 1.483-0.044 0.514 0.418 0.928 0.398 1.422-0.355 0.818-0.36 1.765-0.053 2.599-0.159 0.456-0.519 0.824-0.627 1.303-0.183 0.584 0.204 1.161 0.129 1.746-0.353 0.664-0.759 1.403-0.427 2.166 0.278 0.604-0.448 0.892-0.649 1.371-0.161 0.626-0.029 1.272-0.06 1.907-0.374 0.413-0.787 0.849-0.873 1.425-0.043 0.416 0.007 0.833-0.006 1.25-0.255 0.322-0.606 0.573-0.782 0.953-0.287 0.511-0.11 1.118-0.179 1.674-0.406 0.333-0.866 0.653-1.041 1.176-0.097 0.469-0.09 0.951-0.211 1.418-0.319 0.351-0.751 0.616-0.959 1.059-0.22 0.391-0.132 0.858-0.207 1.285-0.432 0.402-1.029 0.665-1.276 1.234-0.206 0.412-0.093 0.916-0.318 1.319-0.381 0.232-0.826 0.401-1.08 0.791-0.36 0.439-0.408 1.022-0.633 1.523-0.386 0.22-0.82 0.387-1.111 0.738-0.344 0.379-0.367 0.925-0.625 1.35-0.425 0.252-0.924 0.407-1.25 0.797-0.315 0.391-0.417 0.898-0.656 1.332-0.385 0.164-0.826 0.237-1.137 0.535-0.45 0.384-0.58 0.982-0.873 1.471-0.432 0.091-0.898 0.148-1.236 0.463-0.432 0.312-0.595 0.842-0.897 1.257-0.575 0.187-1.216 0.303-1.645 0.77-0.25 0.3-0.422 0.656-0.64 0.978-0.335 0.167-0.753 0.024-1.092 0.2-0.648 0.21-0.964 0.846-1.385 1.326-0.437 0.049-0.903-0.006-1.297 0.228-0.497 0.202-0.779 0.671-1.105 1.067-0.457 0.093-0.939 0.092-1.373 0.277-0.474 0.22-0.764 0.675-1.15 1.01-0.56 0.036-1.17-0.115-1.682 0.183-0.408 0.176-0.683 0.539-0.99 0.844-0.463 0.134-0.976-0.015-1.45 0.113-0.424 0.18-0.742 0.532-1.144 0.743-0.483 0-0.966-0.082-1.447-0.014-0.482 0.166-0.876 0.499-1.313 0.746-0.536-0.027-1.079-0.14-1.611-0.021-0.399 0.168-0.744 0.431-1.123 0.638-0.516-0.051-1.033-0.338-1.549-0.174-0.408 0.09-0.77 0.306-1.15 0.463-0.317 0.079-0.617-0.109-0.92-0.166-0.61-0.166-1.244-0.023-1.789 0.272-0.315 0.205-0.651-0.055-0.965-0.119-0.741-0.183-1.492-0.009-2.184 0.263-0.865-0.419-1.859-0.398-2.752-0.074-0.419-0.203-0.775-0.592-1.269-0.594-0.549-0.067-1.089 0.053-1.621 0.17-0.319-0.168-0.609-0.388-0.952-0.504-0.592-0.102-1.19 0.01-1.783 0.03-0.366-0.229-0.642-0.595-1.066-0.727-0.566-0.113-1.146 0-1.717-0.029-0.688-0.772-1.721-0.975-2.711-0.895-0.384-0.282-0.681-0.712-1.17-0.826-0.437-0.174-0.915-0.078-1.371-0.111-0.337-0.33-0.61-0.742-1.051-0.942-0.452-0.27-1-0.138-1.5-0.189-0.417-0.357-0.702-0.884-1.232-1.096-0.373-0.19-0.807-0.143-1.211-0.203-0.412-0.41-0.647-1.026-1.227-1.24-0.408-0.227-0.888-0.147-1.324-0.266-0.219-0.433-0.415-0.904-0.83-1.191-0.406-0.346-1-0.309-1.43-0.602-0.25-0.358-0.435-0.771-0.773-1.058-0.379-0.359-0.914-0.432-1.377-0.629-0.223-0.434-0.373-0.93-0.756-1.256-0.357-0.324-0.842-0.425-1.281-0.582-0.231-0.432-0.314-0.955-0.682-1.303-0.349-0.377-0.864-0.5-1.316-0.705-0.172-0.478-0.232-1.019-0.606-1.396-0.32-0.419-0.883-0.534-1.234-0.909-0.128-0.415-0.204-0.856-0.451-1.222-0.286-0.463-0.806-0.673-1.227-0.983-0.15-0.518-0.144-1.104-0.486-1.545-0.267-0.347-0.642-0.582-0.985-0.841-0.1-0.487-0.113-1.005-0.355-1.45-0.242-0.497-0.732-0.79-1.1015-1.179-0.0604-0.399 0.0085-0.832-0.1836-1.202-0.1976-0.451-0.6223-0.737-0.959-1.08-0.0842-0.495 0.0866-1.023-0.1348-1.494-0.1665-0.519-0.5642-0.902-0.9375-1.275-0.0878-0.487 0.0836-1.015-0.1543-1.471-0.1518-0.423-0.4817-0.736-0.7617-1.074-0.0421-0.58 0.0782-1.168-0.0371-1.742-0.161-0.419-0.4804-0.743-0.7402-1.098 0.1354-0.472 0.2914-0.955 0.1816-1.449-0.1866-0.469-0.5095-0.86-0.7383-1.303 0.0732-0.419 0.2629-0.82 0.2227-1.254 0.0219-0.567-0.3711-1.018-0.5742-1.515 0.042-0.43 0.3464-0.799 0.3574-1.237 0.0512-0.596-0.2954-1.114-0.5059-1.644 0.1299-0.425 0.4027-0.818 0.3789-1.28 0.0622-0.538-0.2303-1.007-0.4023-1.492 0.0567-0.4 0.3617-0.728 0.4551-1.125 0.2397-0.604-0.1616-1.185-0.2989-1.759 0.3971-0.71 0.7824-1.519 0.4512-2.34-0.3348-0.705 0.4961-1.189 0.4961-1.869 0.0567-0.447-0.1128-0.871-0.1934-1.301 0.2727-0.366 0.6436-0.677 0.7735-1.133 0.2653-0.522 0.0287-1.089-0.0371-1.625 0.3184-0.428 0.7664-0.796 0.8945-1.338 0.064-0.463 0.0073-0.932 0.0293-1.396 0.3202-0.407 0.7706-0.747 0.9023-1.274 0.0604-0.45 0.0139-0.905 0.045-1.357 0.3714-0.353 0.8446-0.64 1.0312-1.143 0.2214-0.457 0.1705-0.97 0.207-1.459 0.3441-0.368 0.811-0.643 1.02-1.117 0.144-0.448 0.166-0.923 0.314-1.369 0.337-0.275 0.762-0.461 1.002-0.838 0.302-0.472 0.302-1.053 0.434-1.58 0.366-0.24 0.785-0.41 1.078-0.748 0.393-0.428 0.438-1.032 0.631-1.555 0.384-0.225 0.828-0.379 1.119-0.732 0.342-0.379 0.408-0.906 0.615-1.356 0.474-0.32 1.108-0.463 1.414-0.992 0.236-0.359 0.28-0.827 0.557-1.156 0.435-0.194 0.935-0.315 1.255-0.694 0.348-0.362 0.456-0.87 0.696-1.296 0.421-0.112 0.891-0.137 1.224-0.452 0.441-0.314 0.63-0.836 0.907-1.279 0.452-0.159 0.963-0.189 1.349-0.502 0.458-0.289 0.671-0.803 0.94-1.246 0.481-0.108 0.996-0.115 1.431-0.375 0.476-0.247 0.706-0.751 1.039-1.143 0.82 0.021 1.692-0.261 2.163-0.974 0.25-0.5125 0.883-0.4161 1.353-0.5314 0.624-0.1098 0.979-0.6794 1.412-1.0801 0.542-0.0457 1.126 0.1115 1.623-0.1758 0.461-0.1811 0.77-0.5811 1.143-0.8867 0.393-0.0347 0.79 0.003 1.183-0.039 0.577-0.1281 0.954-0.6305 1.461-0.8848 0.935 0.3952 1.859-0.0553 2.602-0.6152 0.56-0.0055 1.131 0.1663 1.683-0.002 0.39-0.1812 0.726-0.4583 1.094-0.6797 0.463 0.0677 0.91 0.2745 1.391 0.2031 0.543 0.011 0.983-0.3409 1.455-0.5605 0.478 0.1647 0.951 0.4207 1.477 0.3457 0.642 0.0512 1.193-0.6646 1.826-0.2949 0.779 0.3239 1.648 0.1454 2.379-0.2188zm-20.606 0.6797c0.091 0.0065 0.183 0.021 0.275 0.0469 1.111 0.3422 1.967 1.1828 3.012 1.664 0.136 0.2892-0.298 0.4057-0.461 0.5704-0.708 0.5361-1.58 0.1272-2.271-0.2168-0.721-0.3935-1.505-0.6967-2.153-1.209 0.38-0.498 0.961-0.9008 1.598-0.8555zm39.992 0.3359c0.488 0.0709 0.924 0.3617 1.201 0.7872 0.687 1.0338 0.546 2.3268 0.756 3.4963-0.774 0.168-1.483-0.3242-1.734-1.0452-0.361-1.0448-0.527-2.1473-0.723-3.2324 0.17-0.0284 0.338-0.0295 0.5-0.0059zm-42.541 1.0801c0.364 0.0221 0.726 0.1202 1.043 0.2774 0.721 0.3659 1.432 0.7552 2.137 1.1523-0.404 0.5764-1.042 1.0164-1.777 0.8242-1.074-0.2854-2.029-0.8996-3.067-1.2949 0.009-0.086 0.026-0.2597 0.033-0.3457 0.414-0.4735 1.025-0.6501 1.631-0.6133zm45.01 0.2578c0.518-0.0313 1.071 0.3888 1.367 0.8067 0.602 1.1107 0.487 2.4119 0.518 3.6309-0.884 0.104-1.595-0.642-1.733-1.467-0.19-0.9624-0.323-1.945-0.371-2.9276 0.072-0.0242 0.145-0.0385 0.219-0.043zm-23.873 0.1172c-0.461-0.0018-0.923 0.0191-1.381 0.0703-0.585 1.0229-0.87 2.2012-1.287 3.3031-0.086-0.004-0.256-0.014-0.34-0.018-0.591-0.9679-1.077-2.0049-1.754-2.9198-0.519-0.0549-1.045 0.0059-1.545 0.1523 0.948 1.4218 1.897 2.8425 2.825 4.2775 0.325 0.907 0.27 1.908 0.316 2.861 0.425 0.068 0.857 0.03 1.285 0.012 0.097-0.941-0.063-1.882-0.047-2.822 0.567-1.664 1.377-3.2457 1.928-4.9164zm-6.898 0.8028c-0.454-0.0403-0.893 0.1286-1.332 0.2109-0.945 0.2434-1.905 0.437-2.831 0.748 0.041 0.4172 0.172 0.82 0.288 1.2207 0.441-0.084 0.874-0.204 1.322-0.25 0.644 1.949 0.929 4.015 1.533 5.979 0.432-0.048 0.856-0.155 1.273-0.276-0.091-1.414-0.683-2.744-0.939-4.133-0.106-0.671-0.45-1.318-0.373-2.0094 0.373-0.0677 0.749-0.1212 1.111-0.2383 0.251-0.3861-0.034-0.8366-0.052-1.2519zm-17.221 0.2871c1.264-0.1187 2.39 0.7945 3.558 1.2011 0.088 0.4414-0.399 0.6984-0.726 0.8654-1.451 0.348-2.726-0.6078-4.072-0.9591-0.085-0.4611 0.405-0.7176 0.689-0.9902 0.187-0.0636 0.37-0.1003 0.551-0.1172zm35.043 0.0371c-0.504-0.0286-1.014 0.0452-1.496 0.2383-1.265 0.419-2.226 1.5261-2.535 2.8081-0.139 0.943-0.108 1.956 0.378 2.799 0.824 1.656 2.949 2.433 4.678 1.866 2.088-0.586 3.414-3.172 2.475-5.172-0.526-1.4482-1.988-2.4536-3.5-2.5394zm15.334 0.1914c0.856 0.1098 1.636 0.7861 1.808 1.641 0.079 1.002 0.045 2.013 0.045 3.019-0.99 0.097-1.554-0.897-1.636-1.754-0.059-0.971-0.263-1.9289-0.217-2.906zm-38.508 0.9023c-0.437 0.0128-0.856 0.1657-1.24 0.3633-0.004 0.6224 0.301 1.1814 0.476 1.7634 0.661 1.711 1.209 3.465 1.813 5.196 0.402 0.181 0.85-0.062 1.236-0.194 0.114-0.203 0.056-0.435-0.021-0.638-0.815-2.141-1.474-4.339-2.264-6.4907zm22.941 0.2266c1.321-0.0698 2.631 1.0891 2.602 2.4511 0.207 1.696-1.688 3.312-3.32 2.697-1.292-0.406-2.143-1.935-1.676-3.232 0.192-0.902 0.992-1.531 1.832-1.8087 0.185-0.0631 0.374-0.0974 0.562-0.1074zm-36.793 0.2911c0.953 0.067 1.865 0.56 2.776 0.842 0.243 0.025 0.301 0.32 0.183 0.498-0.371 0.558-1.096 0.813-1.744 0.683-1.041-0.206-2.011-0.651-3.041-0.9 0-0.494 0.494-0.784 0.858-1.025 0.328-0.097 0.651-0.121 0.968-0.098zm54.901 0.348c0.973-0.026 1.698 0.879 1.68 1.808-0.017 0.961 0.061 1.952-0.163 2.893-0.905-0.057-1.479-0.959-1.49-1.801-0.031-0.968-0.018-1.934-0.027-2.9zm-11.406 0.242c-0.067-0.009-0.135-0.005-0.206 0.017-0.795 1.633-1.517 3.303-2.292 4.948-0.271 0.572-0.638 1.11-0.788 1.734 0.293 0.36 0.785 0.497 1.207 0.654 0.504-0.884 0.759-1.894 1.342-2.734 0.694 0.249 1.346 0.596 2.02 0.896 0.227-0.36 0.626-0.778 0.445-1.234-0.657-0.317-1.342-0.58-1.98-0.932 0.248-0.499 0.51-0.992 0.752-1.494 0.812-0.049 1.479 0.618 2.22 0.891 0.256-0.357 0.465-0.748 0.645-1.149-0.924-0.466-1.867-0.9-2.791-1.367-0.187-0.073-0.374-0.205-0.574-0.23zm-33.463 0.513c-0.376-0.018-0.767 0.034-1.123 0.073-0.813 0.338-1.525 1.16-1.403 2.086-0.086 0.946 0.626 1.861 1.533 2.088 0.835 0.106 1.678-0.081 2.51 0.025 0.864 0.32 0.748 1.65-0.121 1.879-0.494 0.3-0.878-0.28-1.295-0.455-0.435 0.047-0.804 0.331-1.168 0.554 0.066 0.527 0.638 0.83 1.037 1.11 0.604 0.104 1.227 0.095 1.834 0.025 0.78-0.212 1.366-0.856 1.659-1.592 0.435-1.425-0.821-3.262-2.391-3.017-0.732-0.095-1.831 0.415-2.219-0.465-0.245-0.41 0.176-0.91 0.574-0.998 0.419-0.106 0.734 0.26 1.094 0.402 0.361-0.152 0.714-0.318 1.047-0.527 0.059-0.381-0.279-0.62-0.531-0.834-0.299-0.247-0.662-0.335-1.037-0.354zm-12.43 0.61c0.114 0.003 0.229 0.019 0.338 0.045 0.904 0.228 1.798 0.496 2.68 0.793-0.011 0.858-1.042 1.271-1.782 1.152-1.03-0.181-2.039-0.483-3.062-0.701 0.15-0.81 1.025-1.315 1.826-1.289zm59.699 0.469c0.822 0.029 1.59 0.783 1.524 1.625 0.018 1.03-0.021 2.067-0.241 3.076-0.702 0.022-1.264-0.597-1.384-1.252-0.231-1.146 0.13-2.298 0.101-3.449zm-61.754 1.5c0.982 0.031 1.954 0.345 2.873 0.673-0.212 0.56-0.664 1.081-1.283 1.17-1.206 0.15-2.345-0.422-3.547-0.377-0.082-0.636 0.503-1.079 0.973-1.394 0.328-0.062 0.657-0.083 0.984-0.072zm9.303 0.205c-0.105 0.006-0.213 0.021-0.32 0.045-0.979 0.362-1.799 1.037-2.674 1.595-0.463 0.22-0.167 0.768 0.057 1.055 1.242 1.771 2.39 3.603 3.638 5.371 0.478 0.097 0.843-0.342 1.155-0.641-0.359-0.849-1.025-1.527-1.413-2.365 1.067 0.287 2.011 0.903 3.073 1.199 0.576-0.038 0.985-0.576 1.457-0.869-0.961-0.536-2.068-0.717-3.069-1.164 0.132-0.355 0.354-0.67 0.498-1.019 0.548-1.517-0.819-3.305-2.402-3.207zm54.705 0.14c0.52 0.256 1.115 0.511 1.369 1.071 0.308 1.253-0.122 2.512-0.201 3.763-0.596 0.086-1.199-0.361-1.377-0.918-0.199-1.31 0.149-2.611 0.209-3.916zm-54.709 1.315c0.161-0.014 0.325 0.001 0.492 0.049 0.379 0.25 0.761 0.661 0.723 1.146-0.141 0.715-0.814 1.114-1.395 1.449-0.435-0.349-0.686-0.864-0.992-1.32-0.119-0.201-0.323-0.47-0.135-0.697 0.377-0.306 0.825-0.587 1.307-0.627zm-11.586 0.496c0.995-0.03 1.997 0.133 2.973 0.308-0.075 0.718-0.693 1.316-1.406 1.389-0.434 0.029-0.871 0.026-1.297-0.055-0.721-0.152-1.477-0.072-2.176-0.33 0.223-0.455 0.473-0.931 0.914-1.211 0.329-0.06 0.661-0.091 0.992-0.101zm68.471 0.379c0.9 0.164 1.535 1.07 1.42 1.974-0.092 0.963-0.39 1.894-0.612 2.832-0.552 0.165-0.927-0.415-1.183-0.81-0.269-1.349 0.236-2.666 0.375-3.996zm-8.016 0.211c-0.26-0.042-0.305 0.236-0.408 0.406-1.061 2.13-2.301 4.173-3.342 6.31 0.011 0.412 0.569 1.059 1.008 0.715 0.913-0.563 1.846-1.093 2.74-1.687 0.399-0.255 0.801-0.526 1.264-0.655-0.785 1.373-1.657 2.696-2.418 4.083-0.161 0.367 0.258 0.603 0.469 0.833 0.122 0.171 0.361 0.071 0.506-0.015 2.184-1.193 4.308-2.495 6.535-3.611-0.277-0.407-0.615-0.808-1.037-1.059-1.51 0.944-3.033 1.873-4.559 2.793 0.844-1.495 1.736-2.964 2.625-4.432 0.205-0.428-0.37-0.667-0.617-0.91-1.508 0.937-3.039 1.838-4.539 2.791 0.776-1.57 1.774-3.028 2.631-4.555-0.086-0.435-0.547-0.715-0.858-1.007zm-53.943 0.734c-0.959 0.906-1.988 1.741-2.908 2.686 1.672 1.861 3.311 3.759 5.095 5.517 1.01-0.761 1.84-1.731 2.827-2.519 0.13-0.471-0.411-0.74-0.655-1.057-0.805 0.338-1.29 1.186-2.011 1.68-0.454-0.368-0.851-0.803-1.209-1.26 0.503-0.641 1.214-1.065 1.765-1.656-0.066-0.416-0.484-0.637-0.744-0.93-0.776 0.309-1.178 1.218-1.961 1.473-0.406-0.372-1.085-0.743-1.07-1.356 0.494-0.549 1.127-0.949 1.648-1.469 0.227-0.508-0.459-0.829-0.777-1.109zm26.648 0.189c-0.415-0.023-0.842 0.085-1.103 0.432-0.178 0.165-0.262 0.451-0.494 0.541-0.518-0.567-1.351-1.069-2.094-0.588-0.441 0.163-0.503 0.712-0.836 0.963-0.467-0.432-1.094-0.937-1.766-0.646-0.603 0.117-0.871 0.689-1.072 1.203-0.468-0.167-0.835-0.635-1.369-0.576-0.791 0.025-1.371 0.742-1.43 1.498-0.479-0.205-0.943-0.56-1.496-0.43-0.774 0.148-1.219 0.972-1.191 1.721-0.633-0.443-1.595-0.713-2.194-0.067-0.42 0.322-0.365 0.872-0.427 1.338-0.626-0.148-1.35-0.471-1.93-0.017-0.58 0.325-0.605 1.029-0.598 1.615-0.525-0.092-1.121-0.346-1.595 0.029-0.685 0.34-0.805 1.152-0.717 1.836-0.58-0.004-1.283-0.208-1.705 0.32-0.513 0.403-0.54 1.074-0.488 1.67-0.582 0.019-1.236 0.111-1.651 0.559-0.399 0.541-0.311 1.261-0.027 1.828-0.571-0.064-1.203-0.103-1.598 0.4-0.629 0.478-0.461 1.346-0.195 1.975-0.619-0.006-1.347 0.11-1.655 0.725-0.408 0.58-0.175 1.292 0.176 1.832-0.594 0.1-1.283 0.258-1.509 0.902-0.418 0.631 0.003 1.309 0.376 1.836-0.62 0.133-1.296 0.42-1.494 1.086-0.325 0.598 0.178 1.158 0.436 1.672-0.705 0.185-1.437 0.709-1.348 1.529-0.091 0.611 0.403 1.006 0.785 1.387-0.728 0.142-1.335 0.78-1.3 1.545-0.061 0.596 0.551 0.895 0.757 1.377-0.424 0.32-0.946 0.635-1.023 1.216-0.209 0.692 0.374 1.26 0.877 1.639-0.406 0.463-1.011 0.895-0.887 1.6 0.011 0.646 0.586 1 1.018 1.381-0.214 0.459-0.843 0.786-0.74 1.388-0.063 0.778 0.609 1.332 1.302 1.51-0.375 0.399-0.893 0.794-0.789 1.416-0.051 0.794 0.638 1.321 1.344 1.48-0.242 0.484-0.719 0.998-0.467 1.573 0.147 0.733 0.864 1.083 1.539 1.183-0.212 0.401-0.602 0.764-0.549 1.254 0.013 0.438 0.256 0.864 0.571 1.162 0.331 0.163 0.687 0.266 1.025 0.414-0.36 0.601-0.477 1.423 0.065 1.961 0.32 0.518 0.969 0.387 1.478 0.506-0.192 0.624-0.442 1.429 0.125 1.936 0.37 0.481 0.97 0.547 1.533 0.498-0.055 0.622-0.282 1.412 0.311 1.855 0.366 0.482 0.989 0.376 1.517 0.416-0.053 0.626-0.054 1.361 0.5 1.78 0.473 0.439 1.143 0.401 1.698 0.16-0.068 0.68-0.036 1.522 0.629 1.91 0.503 0.384 1.111 0.177 1.67 0.08 0.003 0.562 0.022 1.197 0.554 1.535 0.538 0.588 1.321 0.222 1.973 0.098 0.029 0.587 0.147 1.292 0.769 1.539 0.615 0.397 1.285-0.005 1.856-0.274 0.011 0.67 0.299 1.382 0.972 1.627 0.599 0.278 1.176-0.116 1.719-0.336 0.092 0.569 0.362 1.202 0.977 1.354 0.627 0.326 1.24-0.144 1.763-0.457 0.315 0.558 0.664 1.314 1.44 1.215 0.648 0.115 1.151-0.318 1.533-0.778 0.161 0.646 0.692 1.249 1.389 1.28 0.633 0.036 1.154-0.407 1.474-0.912 0.295 0.556 0.759 1.143 1.459 1.103 0.679 0.075 1.148-0.466 1.481-0.976 0.366 0.378 0.702 0.854 1.269 0.923 0.745 0.094 1.309-0.504 1.659-1.091 0.4 0.377 0.824 0.885 1.443 0.779 0.768 0.035 1.29-0.652 1.445-1.338 0.516 0.474 1.22 0.944 1.938 0.604 0.607-0.108 0.686-0.814 1.051-1.155 0.536 0.244 1.144 0.641 1.73 0.289 0.62-0.249 0.876-0.928 0.92-1.549 0.512 0.44 1.219 0.571 1.857 0.338 0.527-0.307 0.725-0.889 0.844-1.451 0.578 0.145 1.251 0.441 1.789 0.022 0.582-0.344 0.673-1.042 0.662-1.655 0.63 0.262 1.464 0.44 2-0.103 0.45-0.377 0.494-0.988 0.491-1.531 0.578 0.036 1.246 0.191 1.709-0.27 0.576-0.408 0.519-1.139 0.457-1.76 0.574 0.046 1.233 0.132 1.681-0.324 0.52-0.457 0.384-1.195 0.373-1.807 0.511-0.033 1.113 0.08 1.487-0.365 0.629-0.512 0.431-1.341 0.283-2.021 0.704 0.093 1.444-0.209 1.75-0.879 0.293-0.525-0.071-1.087-0.114-1.627 0.67 0.027 1.367-0.298 1.565-0.985 0.298-0.561-0.132-1.102-0.27-1.638 0.762-0.128 1.644-0.679 1.518-1.565 0.064-0.488-0.35-0.8-0.584-1.17 0.441-0.146 0.962-0.216 1.234-0.642 0.558-0.664 0.24-1.625-0.324-2.178 0.663-0.229 1.394-0.702 1.319-1.5 0.095-0.615-0.423-1.016-0.774-1.432 0.604-0.259 1.236-0.756 1.137-1.496 0.055-0.635-0.514-1.027-0.924-1.408 0.697-0.298 1.305-1.047 1.014-1.836-0.092-0.53-0.586-0.787-0.991-1.054 0.326-0.429 0.963-0.73 0.901-1.375 0.095-0.743-0.557-1.213-1.074-1.606 0.353-0.428 0.835-0.868 0.711-1.484 0.01-0.762-0.716-1.147-1.331-1.383 0.288-0.417 0.712-0.817 0.612-1.379 0.036-0.823-0.799-1.331-1.528-1.424 0.247-0.355 0.662-0.663 0.602-1.148 0.134-0.928-0.84-1.593-1.684-1.578 0.229-0.363 0.502-0.719 0.553-1.159-0.031-0.351-0.17-0.693-0.375-0.978-0.318-0.415-0.889-0.425-1.338-0.615 0.191-0.553 0.45-1.211 0.03-1.729-0.33-0.595-1.026-0.671-1.635-0.662 0.069-0.571 0.362-1.184-0.028-1.707-0.331-0.653-1.097-0.697-1.738-0.658-0.013-0.606 0.164-1.347-0.367-1.797-0.456-0.566-1.229-0.355-1.852-0.324 0.169-0.425 0.342-0.942 0.055-1.36-0.24-0.474-0.75-0.724-1.236-0.865-0.284 0.053-0.554 0.155-0.836 0.217 0.029-0.562-0.007-1.175-0.463-1.572-0.516-0.542-1.314-0.286-1.965-0.262-0.106-0.461-0.094-0.997-0.48-1.334-0.516-0.595-1.391-0.391-2.03-0.139-0.109-0.631-0.35-1.37-1.056-1.537-0.558-0.3-1.095 0.149-1.633 0.272-0.156-0.546-0.33-1.174-0.914-1.405-0.617-0.335-1.252 0.051-1.797 0.336-0.24-0.512-0.491-1.099-1.088-1.269-0.715-0.31-1.344 0.241-1.838 0.693-0.15-0.36-0.221-0.789-0.541-1.047-0.412-0.393-1.027-0.328-1.543-0.25-0.316 0.201-0.521 0.554-0.863 0.713-0.234-0.668-0.885-1.171-1.608-1.1-0.559 0.086-0.951 0.522-1.267 0.954-0.251-0.368-0.512-0.765-0.949-0.93-0.13-0.033-0.266-0.057-0.405-0.065zm-0.101 0.524c0.319 0.004 0.627 0.138 0.795 0.432 0.626 0.697-0.571 1.886-1.268 1.271-0.655-0.32-0.577-1.498 0.156-1.664 0.104-0.026 0.211-0.04 0.317-0.039zm-34.828 0.029c0.685-0.002 1.367 0.103 2.047 0.19 0.221 0.051 0.681-0.06 0.656 0.306-0.18 0.683-0.84 1.24-1.565 1.207-1.063 0.024-2.128-0.045-3.189-0.08 0.026-0.735 0.657-1.41 1.365-1.58 0.228-0.029 0.457-0.042 0.686-0.043zm37.736 0.008c0.663 0.044 1.303 0.872 0.773 1.436-0.358 0.622-1.412 0.604-1.648-0.114-0.339-0.481 0.1-1.139 0.592-1.291 0.092-0.029 0.188-0.037 0.283-0.031zm-5.746 0.152c0.614 0.066 1.195 0.777 0.783 1.371-0.258 0.538-1.075 0.744-1.463 0.243-0.424-0.354-0.393-1.145 0.09-1.436 0.177-0.15 0.385-0.199 0.59-0.178zm8.525 0.186c0.331-0.023 0.675 0.026 0.867 0.322 0.43 0.637-0.094 1.688-0.91 1.541-0.905-0.091-1.124-1.458-0.277-1.822 0.101-0.017 0.21-0.034 0.32-0.041zm31.791 0.199c0.505 0.218 0.969 0.59 1.168 1.119 0.264 1.285-0.376 2.492-0.689 3.705-0.56 0.125-0.926-0.419-1.106-0.867-0.212-1.358 0.404-2.641 0.627-3.957zm-43.324 0.031c0.518-0.018 1.078 0.438 0.981 0.989 0.038 0.527-0.485 0.99-1.008 0.881-0.829 0.014-1.174-1.254-0.449-1.68 0.136-0.126 0.304-0.184 0.476-0.19zm14.406 0.352c0.32-0.037 0.66 0.111 0.848 0.387 0.534 0.563-0.039 1.656-0.822 1.48-0.944 0.05-1.196-1.427-0.332-1.766 0.096-0.055 0.2-0.089 0.306-0.101zm-17.131 0.359c0.541 0.031 1.064 0.625 0.897 1.186-0.135 0.397-0.486 0.772-0.941 0.697-0.888 0.081-1.213-1.29-0.477-1.705 0.159-0.136 0.341-0.188 0.521-0.178zm10.018 0.125c0.307 0.524 0.763 1.105 1.451 1.004 0.602 0.077 1.005-0.414 1.391-0.787 0.282 0.399 0.516 0.908 1.047 1.014 0.69 0.322 1.329-0.219 1.814-0.653 0.2 0.707 0.779 1.491 1.608 1.344 0.437 0.037 0.734-0.358 1.144-0.424 0.176 0.535 0.5 1.076 1.074 1.245 0.558 0.217 1.082-0.153 1.59-0.334 0.108 0.402 0.131 0.866 0.481 1.152 0.512 0.595 1.379 0.375 2.021 0.152 0.148 0.617 0.364 1.358 1.063 1.537 0.505 0.256 1.016-0.074 1.488-0.25-0.002 0.518-0.056 1.113 0.383 1.485 0.457 0.55 1.208 0.381 1.828 0.336-0.136 0.779 0.301 1.519 0.996 1.863 0.401 0.049 0.802-0.011 1.203-0.033-0.016 0.49-0.12 1.006 0.047 1.484 0.393 0.6 1.154 0.608 1.787 0.732 0 0.571-0.158 1.242 0.336 1.667 0.357 0.488 0.99 0.368 1.516 0.382-0.189 0.611-0.423 1.353 0.062 1.895 0.298 0.494 0.916 0.481 1.412 0.605-0.225 0.575-0.458 1.305-0.039 1.848 0.276 0.47 0.857 0.549 1.315 0.76-0.346 0.527-0.625 1.244-0.209 1.818 0.249 0.498 0.81 0.642 1.302 0.777-0.388 0.478-0.763 1.08-0.494 1.711 0.161 0.59 0.769 0.798 1.252 1.063-0.289 0.38-0.684 0.771-0.607 1.295-0.073 0.728 0.617 1.158 1.162 1.476-0.386 0.403-0.917 0.82-0.807 1.452-0.046 0.693 0.603 1.086 1.112 1.408-0.332 0.254-0.741 0.46-0.891 0.877-0.082 0.358-0.083 0.739-0.004 1.099 0.216 0.321 0.519 0.565 0.793 0.836-0.45 0.383-1.079 0.773-1.01 1.451-0.104 0.623 0.411 1.033 0.791 1.43-0.536 0.269-1.155 0.657-1.144 1.338-0.112 0.578 0.315 1.015 0.584 1.475-0.657 0.188-1.329 0.695-1.305 1.445-0.075 0.507 0.292 0.898 0.564 1.277-0.693 0.103-1.399 0.579-1.494 1.315-0.104 0.501 0.243 0.91 0.424 1.345-0.45 0.13-0.989 0.161-1.269 0.594-0.507 0.54-0.272 1.338-0.02 1.942-0.466 0.113-1.032 0.099-1.34 0.533-0.543 0.49-0.389 1.278-0.138 1.877-0.58 0.014-1.253 0.059-1.608 0.592-0.439 0.417-0.214 1.059-0.238 1.589-0.553-0.011-1.144 0.071-1.57 0.454-0.524 0.411-0.245 1.165-0.286 1.732-0.572-0.035-1.262-0.198-1.685 0.312-0.478 0.361-0.536 0.96-0.51 1.514-0.479-0.005-0.969-0.094-1.441 0.024-0.604 0.338-0.836 1.025-0.776 1.685-0.536-0.069-1.106-0.417-1.619-0.084-0.629 0.24-0.784 0.928-0.918 1.512-0.635-0.266-1.528-0.461-2.031 0.144-0.326 0.302-0.366 0.766-0.465 1.174-0.401-0.188-0.787-0.499-1.256-0.431-0.739-0.013-1.225 0.68-1.404 1.326-0.567-0.335-1.241-0.631-1.895-0.338-0.549 0.177-0.689 0.776-0.861 1.258-0.424-0.374-0.876-0.862-1.502-0.754-0.662 0.02-1.084 0.566-1.346 1.113-0.263-0.238-0.479-0.529-0.775-0.725-0.408-0.111-0.848-0.099-1.26-0.011-0.369 0.221-0.588 0.601-0.824 0.947-0.326-0.512-0.805-1.037-1.473-0.975-0.616-0.044-1.015 0.488-1.355 0.916-0.326-0.576-0.824-1.216-1.574-1.117-0.573-0.057-0.935 0.461-1.303 0.815-0.225-0.624-0.695-1.271-1.443-1.202-0.547-0.098-0.967 0.269-1.364 0.581-0.205-0.559-0.558-1.227-1.22-1.29-0.493-0.102-0.945 0.138-1.407 0.262-0.28-0.446-0.464-1.011-1.007-1.213-0.575-0.362-1.176 0.052-1.7 0.295-0.139-0.54-0.157-1.243-0.757-1.496-0.549-0.388-1.193-0.139-1.768 0.026-0.077-0.612-0.285-1.29-0.893-1.565-0.47-0.295-1.015-0.054-1.498 0.072 0.041-0.6-0.012-1.323-0.599-1.65-0.461-0.372-1.07-0.185-1.606-0.182 0.009-0.529 0.129-1.138-0.306-1.543-0.401-0.545-1.103-0.495-1.702-0.482 0-0.58 0.18-1.28-0.347-1.695-0.361-0.498-1.01-0.327-1.533-0.383 0.064-0.476 0.374-0.988 0.078-1.444-0.273-0.686-1.037-0.977-1.733-0.904 0.191-0.602 0.466-1.354-0.047-1.879-0.32-0.468-0.886-0.516-1.402-0.521 0.242-0.562 0.629-1.199 0.279-1.803-0.206-0.595-0.883-0.682-1.388-0.893 0.219-0.466 0.568-0.921 0.451-1.47-0.031-0.714-0.749-1.061-1.338-1.26 0.242-0.529 0.778-1.092 0.447-1.697-0.15-0.535-0.649-0.803-1.119-1.006 0.324-0.491 0.817-0.973 0.686-1.617-0.017-0.63-0.607-0.965-1.094-1.229 0.183-0.494 0.896-0.729 0.781-1.353 0.156-0.745-0.469-1.213-0.998-1.592 0.322-0.211 0.702-0.371 0.91-0.713 0.117-0.408 0.11-0.846 0.033-1.26-0.078-0.408-0.657-0.49-0.73-0.887 0.554-0.261 1.136-0.702 1.104-1.388 0.08-0.619-0.43-1.04-0.768-1.481 0.503-0.161 1.012-0.425 1.185-0.963 0.359-0.611-0.174-1.202-0.417-1.744 0.602-0.188 1.369-0.556 1.32-1.304 0.11-0.531-0.217-0.964-0.445-1.405 0.514-0.177 1.14-0.305 1.367-0.871 0.349-0.58 0.035-1.237-0.26-1.764 0.575-0.084 1.283-0.182 1.516-0.808 0.358-0.512 0.075-1.108-0.081-1.633 0.72 0.031 1.557-0.292 1.791-1.033 0.22-0.441-0.084-0.901-0.128-1.348 0.528-0.007 1.169 0.133 1.533-0.363 0.53-0.41 0.298-1.114 0.412-1.68 0.613 0.041 1.318-0.052 1.697-0.599 0.417-0.419 0.234-1.04 0.223-1.563 0.631 0.286 1.45 0.272 1.894-0.328 0.392-0.355 0.332-0.891 0.33-1.367 0.485 0.068 1.002 0.346 1.463 0.041 0.681-0.245 0.892-1.015 0.914-1.666 0.54 0.296 1.202 0.551 1.756 0.123 0.639-0.269 0.686-1.001 0.797-1.588 0.421 0.357 0.947 0.742 1.524 0.48 0.655-0.173 0.901-0.841 1.265-1.335 0.364 0.164 0.728 0.395 1.149 0.33 0.764 0.02 1.175-0.74 1.455-1.34 0.358 0.342 0.74 0.734 1.289 0.619 0.754 0.102 1.172-0.609 1.463-1.182 0.375 0.328 0.721 0.823 1.283 0.778 0.726 0.075 1.292-0.473 1.535-1.108 0.373 0.427 0.771 0.93 1.396 0.93 0.659 0.011 1.122-0.484 1.477-0.977zm9.857 0.414c0.49-0.039 1.028 0.335 1.043 0.85 0.105 0.565-0.482 1.094-1.031 1.014-0.82 0-1.187-1.248-0.465-1.678 0.132-0.115 0.29-0.173 0.453-0.186zm-47.513 0.434c0.232 0.012 0.462 0.042 0.683 0.086 0.524 0.102 1.091-0.043 1.592 0.154-0.154 0.489-0.413 1.012-0.92 1.211-1.228 0.516-2.589 0.267-3.881 0.32 0.039-0.459 0.246-0.915 0.563-1.25 0.554-0.429 1.267-0.557 1.963-0.521zm24.781 0.1c0.528-0.056 1.093 0.291 1.082 0.869 0.115 0.73-0.868 1.271-1.435 0.804-0.632-0.377-0.495-1.321 0.132-1.625 0.073-0.025 0.146-0.04 0.221-0.048zm25.438 0.593c0.634-0.067 1.278 0.708 0.939 1.315-0.234 0.836-1.738 0.747-1.758-0.162-0.102-0.46 0.108-0.899 0.551-1.069 0.087-0.047 0.177-0.074 0.268-0.084zm-44.608 0.131c-0.357 0.308-0.847 0.679-0.834 1.195 1.04 1.667 2.152 3.293 3.166 4.973-1.736-0.499-3.436-1.124-5.154-1.685-0.3-0.081-0.741-0.195-0.902 0.166-0.138 0.261-0.521 0.529-0.393 0.849 2.487 0.718 4.956 1.498 7.434 2.24 0.349-0.19 0.77-0.561 0.82-0.976-1.449-2.207-2.657-4.592-4.137-6.762zm70.082 0.002c0.452 0.022 0.753 0.508 0.959 0.879 0.229 0.772-0.033 1.568-0.33 2.281-0.232 0.555-0.396 1.14-0.674 1.672-0.477-0.099-0.778-0.595-0.941-1.021-0.227-1.334 0.582-2.51 0.783-3.789 0.071-0.018 0.139-0.025 0.203-0.022zm-53.289 0.555c0.197 0.007 0.38 0.062 0.506 0.226 0.34 0.302 0.244 0.836 0.158 1.233-0.223 0.201-0.467 0.456-0.797 0.418-0.54 0.005-0.928-0.52-0.998-1.018 0.108-0.309 0.287-0.598 0.547-0.803 0.178-0.023 0.387-0.063 0.584-0.056zm30.324 0.722c0.361-0.015 0.722 0.103 0.912 0.438 0.123 0.439 0.161 1.085-0.361 1.27-0.613 0.468-1.455-0.141-1.447-0.842 0.088-0.319 0.265-0.622 0.543-0.809 0.113-0.031 0.233-0.051 0.353-0.057zm-53.716 0.364c0.482-0.002 0.966 0.005 1.447 0.021-0.015 0.69-0.568 1.24-1.199 1.428-1.126 0.339-2.3188 0.265-3.4789 0.281 0.1079-0.882 0.8609-1.708 1.7829-1.701 0.482-0.017 0.965-0.028 1.448-0.029zm20.728 0.375c0.322-0.001 0.632 0.115 0.797 0.426 0.454 0.457 0.011 1.17-0.498 1.353-0.428 0.225-0.909-0.108-1.145-0.461-0.13-0.481-0.049-1.16 0.526-1.281 0.105-0.023 0.213-0.037 0.32-0.037zm57.518 0.377c0.51 0.102 0.844 0.605 1.088 1.033 0.054 0.527 0.068 1.089-0.186 1.572-0.375 0.796-0.721 1.608-1.156 2.373-0.604-0.43-1.024-1.146-0.826-1.902 0.274-1.052 0.761-2.037 1.08-3.076zm-6.782 0.388c-0.677 1.212-1.359 2.422-2.019 3.643-0.236 0.414-0.4 0.914-0.83 1.172-0.633 0.424-1.306 0.788-1.924 1.234 0.024 0.436 0.355 0.772 0.576 1.125 0.176 0.031 0.338-0.001 0.486-0.101 0.69-0.443 1.309-1.009 2.067-1.342 1.383-0.101 2.755-0.331 4.137-0.422 0.345-0.06 0.804 0.102 1.033-0.246-0.212-0.351-0.437-0.696-0.684-1.022-1.283-0.181-2.529 0.348-3.808 0.379 0.203-0.715 0.768-1.267 1.093-1.931 0.26-0.557 0.981-1.168 0.514-1.803-0.194-0.232-0.275-0.702-0.641-0.686zm-15.08 0.034c0.441 0.177 0.941 0.586 0.821 1.121-0.083 0.481-0.559 0.752-0.998 0.849-0.454-0.119-0.946-0.45-0.866-0.984-0.097-0.593 0.511-1.003 1.043-0.986zm-37.898 0.869c0.495 0.044 0.966 0.502 0.869 1.029 0.068 0.875-1.286 1.189-1.697 0.465-0.372-0.436-0.121-1.125 0.345-1.387 0.15-0.09 0.318-0.122 0.483-0.107zm-18.723 0.207c0.114 0.735-0.42 1.431-1.097 1.66-1.0618 0.454-2.2409 0.295-3.3462 0.562-0.1207-0.904 0.5619-1.726 1.4219-1.925 0.9845-0.236 2.0093-0.323 3.0213-0.297zm58.672 0.748c0.515-0.018 1.055 0.437 0.977 0.99 0.038 0.791-1.118 1.176-1.596 0.574-0.404-0.355-0.328-1.1 0.137-1.375 0.142-0.124 0.31-0.183 0.482-0.189zm21.549 0.301c0.432 0.353 0.88 0.823 0.842 1.423 0.023 1.263-0.901 2.257-1.366 3.368-0.602 0.089-0.865-0.706-0.982-1.176 0.06-1.083 0.728-1.979 1.104-2.965 0.115-0.221 0.155-0.531 0.402-0.65zm-63.781 0.746c0.359-0.013 0.723 0.078 0.91 0.424 0.106 0.45 0.136 1.032-0.34 1.283-0.595 0.505-1.555-0.107-1.469-0.846-0.029-0.364 0.291-0.617 0.547-0.82 0.113-0.021 0.232-0.037 0.352-0.041zm-17.881 0.736c0.077 0.807-0.5409 1.506-1.2893 1.715-1.021 0.324-2.0881 0.475-3.1347 0.687-0.0934-0.911 0.5907-1.761 1.4453-2.015 0.9606-0.297 1.9757-0.402 2.9787-0.387zm62.295 0.348c0.318 0.006 0.624 0.133 0.785 0.439 0.093 0.437 0.152 1.064-0.346 1.279-0.569 0.432-1.251-0.117-1.467-0.664 0.002-0.422 0.301-0.897 0.711-1.023 0.104-0.022 0.211-0.033 0.317-0.031zm-58.977 0.015c-0.311 0.344-0.568 0.764-0.658 1.223 1.855 1.118 3.735 2.199 5.602 3.301 0.281 0.137 0.529 0.397 0.843 0.437 0.277-0.36 0.641-0.767 0.582-1.256-2.115-1.248-4.252-2.46-6.369-3.705zm79.563 0.934c0.47-0.075 0.755 0.504 0.894 0.877 0.357 1.561-1.058 2.646-1.638 3.941-0.72-0.218-0.896-1.188-0.715-1.844 0.38-1.039 0.985-1.977 1.459-2.974zm-66.817 0.023c0.578 0.074 1.135 0.772 0.785 1.313-0.194 0.551-0.948 0.733-1.394 0.392-0.502-0.336-0.472-1.241 0.058-1.541 0.165-0.143 0.359-0.188 0.551-0.164zm3.744 0.26c-0.318 0.355-0.179 0.857-0.209 1.287 0.006 10.247-0.001 20.491 0.002 30.738 0.015 0.526-0.051 1.063 0.059 1.581 5.769 0.053 11.543-0.024 17.312 0.037l0.166 0.031c0.828 0.159 1.586 0.626 2.448 0.615 0.858 0.026 1.609-0.439 2.426-0.613l0.167-0.033c5.838-0.05 11.677 0.002 17.516-0.028 0.126-0.518 0.043-1.061 0.065-1.588 0.001-10.369-0.006-20.735 0.003-31.105-0.038-0.304 0.116-0.768-0.259-0.916-0.165 0.276-0.114 0.608-0.127 0.914 0.02 10.249-0.014 20.495 0.008 30.74-0.01 0.524 0.055 1.062-0.114 1.569-5.692 0.027-11.389 0.009-17.082 0.005-0.723-0.411-1.452-0.889-2.306-1.041-0.246-0.005-0.493-0.005-0.739 0.002-0.503 0.204-1.045 0.333-1.49 0.657-0.265 0.157-0.49 0.447-0.832 0.394-5.585-0.013-11.171-0.002-16.756-0.008-0.029-10.832-0.011-21.665-0.004-32.498 0.017-0.278-0.069-0.526-0.254-0.74zm35.553 0.139c-0.602 0.591-0.51 1.538-0.926 2.246-1.392 2.745-3.729 4.851-6.091 6.758-4.361 3.491-9.033 6.567-13.465 9.965-1.735 1.257-3.383 2.628-5.069 3.949-0.197 0.155-0.394 0.309-0.588 0.468-0.162 0.174-0.332 0.343-0.517 0.493-0.19 0.148-0.388 0.281-0.582 0.42-0.179 0.188-0.359 0.377-0.553 0.55-0.194 0.176-0.397 0.343-0.601 0.504-0.293 0.253-0.543 0.564-0.883 0.752-0.088 0.046-0.264 0.14-0.354 0.186-0.086 0.19-0.157 0.384-0.228 0.582l0.164 0.035c0.917-0.714 1.723-1.559 2.627-2.289 1.204-0.942 2.29-2.029 3.558-2.893 0.154-0.122 0.31-0.242 0.469-0.361 0.21-0.183 0.421-0.363 0.645-0.531 0.166-0.137 0.327-0.281 0.496-0.414 0.203-0.169 0.409-0.335 0.625-0.485 0.214-0.152 0.426-0.305 0.638-0.459 0.205-0.157 0.409-0.314 0.619-0.465 0.147-0.107 0.296-0.212 0.442-0.32 0.265-0.219 0.541-0.429 0.826-0.623 0.156-0.11 0.311-0.22 0.465-0.334 0.22-0.183 0.442-0.362 0.68-0.521 0.186-0.134 0.376-0.263 0.568-0.391 0.26-0.205 0.529-0.399 0.809-0.576 0.128-0.097 0.256-0.19 0.386-0.283 0.277-0.203 0.553-0.407 0.848-0.584 0.124-0.112 0.253-0.218 0.387-0.319 0.296-0.241 0.609-0.461 0.933-0.666 0.163-0.117 0.322-0.243 0.494-0.347 0.229-0.207 0.506-0.342 0.76-0.512 0.13-0.101 0.263-0.202 0.395-0.299 0.192-0.165 0.39-0.322 0.595-0.471 0.172-0.139 0.345-0.278 0.526-0.404 0.239-0.181 0.482-0.36 0.742-0.516 0.177-0.135 0.352-0.276 0.535-0.402 0.203-0.165 0.407-0.328 0.623-0.476 0.207-0.158 0.413-0.319 0.627-0.467 0.205-0.159 0.409-0.319 0.617-0.475 0.17-0.135 0.342-0.269 0.514-0.406 0.192-0.172 0.387-0.343 0.592-0.504 0.168-0.145 0.338-0.288 0.517-0.424 0.192-0.157 0.383-0.318 0.582-0.467 0.079-0.062 0.238-0.187 0.317-0.25 1.811-1.787 3.785-3.559 4.748-5.982 0.283-0.628 0.457-1.304 0.488-1.992zm-15.629 0.621c-0.099 0.02-0.292 0.062-0.39 0.082 0.031 3.376 0.015 6.753 0.007 10.129 0.108 0.02 0.324 0.064 0.432 0.086 0.075-2.95 0.001-5.904 0.037-8.856-0.002-0.481 0.028-0.969-0.086-1.441zm6.098 0.072c-1.035-0.009-2.064 0.092-3.063 0.406-0.605 0.182-1.231 0.453-1.57 1.02 0.878-0.3 1.665-0.859 2.606-0.973 2.217-0.263 4.453 0.007 6.656 0.287 1.079 0.165 2.204 0.311 3.287 0.106l-0.108-0.168c-1.575-0.086-3.152-0.181-4.712-0.43-1.021-0.12-2.061-0.238-3.096-0.248zm-12.697 0.002c-1.398 0.014-2.805 0.243-4.184 0.4-1.299 0.24-2.626 0.205-3.941 0.204l0.027 0.265c2.547 0.322 5.05-0.509 7.594-0.506 1.083-0.003 2.206-0.096 3.238 0.305 0.532 0.176 0.934 0.64 1.498 0.738-0.269-0.7-1.096-0.902-1.732-1.14-0.825-0.208-1.662-0.275-2.5-0.266zm30.961 0.006c0.501 0.066 1.018 0.447 1.003 0.994 0.041 0.485-0.41 0.846-0.822 0.996-0.53 0.042-1.147-0.42-1.043-0.996-0.1-0.534 0.417-0.864 0.862-0.994zm-65.362 0.129c0.1391 1.01-0.7912 1.729-1.664 1.971-0.8729 0.23-1.7446 0.472-2.6211 0.677-0.1226-0.858 0.3328-1.738 1.1562-2.05 0.9918-0.381 2.064-0.609 3.1289-0.598zm2.7678 0.914c-0.205 0.401-0.56 0.831-0.43 1.308 1.544 0.553 3.025 1.268 4.561 1.848 0.012 0.062 0.036 0.186 0.047 0.246-1.92 0.286-3.862 0.447-5.784 0.733-0.4242 0.369-0.5251 0.981-0.6989 1.494 1.0319 0.525 2.1469 0.86 3.2029 1.332 1.254 0.479 2.47 1.052 3.725 1.529 0.194-0.393 0.377-0.796 0.474-1.226l-0.093-0.137c-1.501-0.615-3.001-1.236-4.514-1.817-0.016-0.075-0.048-0.223-0.062-0.296 1.97-0.262 3.956-0.461 5.916-0.782 0.278-0.415 0.451-0.891 0.599-1.365-1.039-0.604-2.199-0.954-3.295-1.435-1.224-0.456-2.415-1.006-3.648-1.432zm12.59 0.197c0.513-0.036 0.988 0.341 1.07 0.867 0.077 0.782-1.046 1.357-1.586 0.737-0.529-0.419-0.315-1.325 0.293-1.563 0.074-0.023 0.149-0.036 0.223-0.041zm61.597 0.184c-0.229-0.02-0.458-0.018-0.687 0.004-0.262 0.025-0.522 0.078-0.776 0.162-1.551 0.481-2.775 1.957-2.74 3.615-0.229 2.505 2.467 4.706 4.879 4.023 1.307-0.375 2.485-1.398 2.836-2.734 0.075-0.734 0.079-1.475 0-2.209-0.387-1.604-1.91-2.724-3.512-2.861zm8.59 0.197c0.279 0.025 0.402 0.455 0.561 0.658 0.175 0.71 0.102 1.505-0.354 2.1-0.457 0.624-0.836 1.346-1.394 1.869-0.707-0.159-0.706-1.147-0.596-1.729 0.371-1.054 1.129-1.907 1.654-2.882 0.047-0.015 0.089-0.019 0.129-0.016zm-18.344 0.879c0.277 0.021 0.53 0.128 0.657 0.41 0.554 0.67-0.434 1.799-1.166 1.342-0.705-0.242-0.722-1.32-0.131-1.692 0.111-0.024 0.234-0.045 0.359-0.056 0.094-0.008 0.189-0.011 0.281-0.004zm-68.351 0.228c0.1995 0.919-0.5058 1.698-1.3164 1.993-0.9112 0.336-1.8535 0.583-2.7519 0.957 0.0201-0.535-0.1128-1.173 0.3007-1.596 0.5033-0.608 1.2695-0.879 2.0215-1.023 0.5819-0.105 1.1441-0.385 1.7461-0.331zm77.633 0.04c1.438-0.161 2.868 1.154 2.853 2.623-0.062 1.099-0.89 2.045-1.89 2.435-0.687 0.101-1.452 0.158-2.067-0.221-0.895-0.474-1.435-1.522-1.291-2.527 0.165-0.955 0.837-1.856 1.781-2.148 0.202-0.088 0.408-0.14 0.614-0.162zm-41.987 0.285c-1.664 0.007-3.327 0.216-4.972 0.447-1.065 0.267-2.173 0.158-3.258 0.152-0.04 0.288 0.275 0.289 0.48 0.321 3.021 0.164 5.966-0.888 8.987-0.637 1.046 0.069 1.977 0.57 2.859 1.096-0.02-0.094-0.058-0.282-0.076-0.375-0.67-0.542-1.497-0.868-2.356-0.938-0.554-0.048-1.109-0.069-1.664-0.066zm12.28 0.002c-0.558 0.005-1.116 0.031-1.672 0.084-0.941 0.142-1.996 0.408-2.621 1.17 0.543-0.096 1.017-0.395 1.539-0.563 1.575-0.609 3.31-0.495 4.953-0.299 0.946-0.018 1.849 0.368 2.797 0.326 0-0.082 0.002-0.247 0.004-0.328-1.654-0.233-3.328-0.406-5-0.39zm-32.84 0.629c0.205 0.023 0.406 0.123 0.574 0.25 0.439 0.413 0.383 1.203-0.137 1.525-0.397 0.064-0.925 0.162-1.201-0.213-0.417-0.412-0.318-1.276 0.293-1.453 0.085-0.058 0.175-0.09 0.266-0.106 0.068-0.011 0.136-0.011 0.205-0.003zm72.775 0.83c0.498 0.55 0.717 1.384 0.315 2.052-0.491 0.91-1.189 1.718-1.901 2.45-0.519-0.268-0.812-1.042-0.554-1.604 0.404-0.955 1.117-1.726 1.644-2.611 0.077-0.213 0.277-0.308 0.496-0.287zm-18.103 0.431c0.601 0.1 1.139 0.885 0.703 1.438-0.222 0.503-0.839 0.473-1.287 0.367-0.58-0.331-0.603-1.321-0.004-1.643 0.18-0.152 0.387-0.195 0.588-0.162zm-70.807 0.473c0.0055 0.532 0.0932 1.186-0.4082 1.539-0.9863 0.829-2.315 1.03-3.4238 1.648-0.1519-0.607-0.1729-1.363 0.3632-1.793 0.9424-0.856 2.2483-1.185 3.4688-1.394zm51.848 0.187c-0.429 0.152-0.814 0.477-1.287 0.452-1.353-0.004-2.743-0.174-4.051 0.259-0.668 0.213-1.522 0.336-1.848 1.049 0.631-0.21 1.193-0.594 1.846-0.746 1.034-0.247 2.112-0.275 3.17-0.213 0.234 0.02 0.467 0.038 0.703 0.049 0.468-0.315 0.991-0.544 1.467-0.85zm-14.543 0.409c-1.203-0.04-2.437 0.132-3.594 0.304-1.742 0.205-3.48 0.493-5.238 0.414 0.007 0.052 0.024 0.154 0.031 0.205 3.499 0.29 6.968-1.007 10.463-0.39 0.682 0.091 1.212 0.566 1.834 0.818-0.022-0.095-0.066-0.286-0.086-0.381-1.036-0.679-2.208-0.931-3.41-0.97zm-22.692 0.318c0.078-0.009 0.158-0.006 0.239 0.012 0.673-0.059 1.11 0.862 0.697 1.371-0.179 0.305-0.532 0.404-0.852 0.484-0.327-0.119-0.617-0.335-0.795-0.637-0.245-0.514 0.17-1.169 0.711-1.23zm42.815 0.332c-0.164 0.032-0.195 0.16-0.092 0.387 0.165-0.081 0.266-0.21 0.301-0.387-0.084-0.011-0.155-0.011-0.209 0zm32.267 0.609c0.518 0.533 0.623 1.323 0.422 2.018-0.313 0.677-0.905 1.154-1.387 1.707-0.269 0.284-0.499 0.617-0.845 0.816-0.659-0.534-0.617-1.542-0.119-2.17 0.591-0.827 1.199-1.664 1.929-2.371zm-17.931 0.371c0.484-0.035 1.009 0.347 1.023 0.856 0.099 0.554-0.454 1.124-1.014 1.021-0.827-0.007-1.17-1.255-0.459-1.691 0.132-0.115 0.288-0.174 0.45-0.186zm-72.541 0.534c-0.0074 0.437 0.0929 0.946-0.209 1.314-0.5691 0.791-1.5373 1.095-2.3809 1.496-0.4007 0.145-0.7767 0.487-1.2305 0.375-0.1683-0.885 0.2399-1.85 1.1036-2.199 0.8746-0.382 1.7433-0.957 2.7168-0.986zm2.8554 0.623c-0.247 0.411-0.3115 0.903-0.3261 1.375 1.672 0.437 3.403 0.62 5.07 1.076 0.789 0.208 1.326 1.19 0.791 1.902-0.362 0.712-1.234 0.648-1.904 0.524-1.468-0.339-2.9506-0.591-4.4199-0.916-0.2837 0.36-0.247 0.837-0.2891 1.267 0.9076 0.41 1.9539 0.48 2.922 0.729 1.085 0.148 2.166 0.581 3.271 0.373 1.596-0.502 2.407-2.585 1.577-4.041-0.469-1.019-1.689-1.255-2.686-1.416-1.332-0.306-2.687-0.509-4.0059-0.873zm11.875 0.259c0.701 0.095 0.992 1.177 0.387 1.635-0.604 0.403-1.499 0.011-1.574-0.728 0.071-0.419 0.391-0.894 0.863-0.881 0.115-0.032 0.224-0.039 0.324-0.026zm23.676 0.022c-0.331-0.011-0.663-0.006-0.99 0.008-2.747 0.005-5.428 0.864-8.186 0.617 0.028 0.071 0.08 0.216 0.108 0.289 2.089 0.192 4.159-0.284 6.232-0.473 0.805-0.012 1.588-0.25 2.398-0.195 1.285-0.048 2.509 0.393 3.629 0.977-0.064-0.202-0.122-0.427-0.343-0.502-0.868-0.512-1.856-0.688-2.848-0.721zm17.668 0.625c-0.099 0.004-0.3 0.006-0.399 0.008-0.098 0.106-0.187 0.217-0.269 0.336 0.92-0.112 1.849 0.062 2.767-0.051 0.172-0.013 0.258-0.11 0.252-0.289-0.785 0.011-1.568 0.047-2.351-0.004zm28.531 0.135c-0.667 0.041-1.328 0.212-1.994 0.265-1.596 0.37-3.254 0.401-4.844 0.78 0.011 0.402 0.091 0.802 0.188 1.195 1.685 0.159 3.316-0.504 4.99-0.594 0.077 0.384-0.398 0.428-0.621 0.596-1.34 0.697-2.719 1.324-4.031 2.072 0.022 0.395-0.054 0.845 0.199 1.186 1.85 0.424 3.762 0.594 5.597 1.088-1.476 0.325-2.992 0.439-4.478 0.726-0.302 0.081-0.705 0.01-0.9 0.307 0.049 0.34 0.113 0.679 0.171 1.021 0.555 0.086 1.124 0.011 1.678-0.056 1.933-0.353 3.922-0.451 5.826-0.932-0.095-0.626-0.069-1.329-0.38-1.887-1.85-0.333-3.694-0.695-5.547-1.009 0.014-0.079 0.044-0.24 0.058-0.321 1.642-0.865 3.302-1.701 4.94-2.572 0.066-0.622-0.063-1.248-0.184-1.856-0.224-0.024-0.446-0.023-0.668-0.009zm6.59 0.361c0.267 0.531 0.613 1.138 0.375 1.742-0.307 0.948-1.168 1.526-1.838 2.205-0.241 0.189-0.43 0.559-0.785 0.5-0.337-0.647-0.37-1.514 0.111-2.101 0.632-0.849 1.357-1.63 2.137-2.346zm-17.439 0.207c0.184 0.023 0.356 0.094 0.48 0.254 0.655 0.54 0.083 1.787-0.771 1.605-0.937-0.056-1.125-1.466-0.27-1.835 0.177-0.024 0.376-0.047 0.561-0.024zm-74.498 0.508c0.4885 0.966-0.323 1.92-1.1446 2.355-0.7795 0.397-1.504 0.916-2.3183 1.231-0.0439-0.502-0.0932-1.022 0.0312-1.516 0.5106-0.796 1.3918-1.217 2.2207-1.599 0.3989-0.167 0.7718-0.422 1.211-0.471zm14.584 0.916c0.225 0.014 0.43 0.087 0.557 0.291 0.269 0.278 0.335 0.736 0.088 1.051-0.223 0.512-0.858 0.417-1.307 0.349-0.561-0.331-0.582-1.307-0.006-1.631 0.201-0.031 0.444-0.074 0.668-0.06zm23.598 0.248c-2.683 0.068-5.362 0.807-8.055 0.693 0.01 0.064 0.028 0.19 0.038 0.252 3.484 0.258 6.925-1.1 10.396-0.476 0.071 0.013 0.212 0.042 0.283 0.054 0.006-0.078 0.018-0.233 0.024-0.312-0.896-0.182-1.792-0.234-2.686-0.211zm15.709 0.264c-0.133 0.122-0.217 0.287-0.31 0.441 0.905-0.093 1.808 0.063 2.703 0.19 0.938 0.062 1.887 0.108 2.824 0.009 0.002-0.08 0.008-0.242 0.012-0.324-1.625 0.35-3.266-0.126-4.885-0.279-0.086-0.009-0.258-0.028-0.344-0.037zm21.129 0.832c0.556 0.003 1.106 0.531 0.938 1.132 0.016 0.599-0.661 0.836-1.163 0.715-0.801-0.036-0.963-1.303-0.306-1.66 0.159-0.132 0.346-0.189 0.531-0.187zm17.381 0.134c0.103 0.015 0.197 0.079 0.211 0.194 0.254 0.549 0.303 1.272-0.067 1.783-0.474 0.805-1.323 1.252-1.976 1.887-0.201 0.183-0.395 0.41-0.692 0.406-0.225-0.516-0.353-1.155-0.041-1.664 0.548-1.012 1.554-1.639 2.297-2.49 0.052-0.094 0.165-0.13 0.268-0.116zm-92.77 0.342c0.0403 0.441 0.1018 0.899-0.0117 1.334-0.3696 0.765-1.1274 1.216-1.8301 1.631-0.5142 0.298-0.9611 0.697-1.4863 0.975-0.2891-0.798-0.2109-1.781 0.5137-2.321 0.871-0.636 1.8007-1.242 2.8144-1.619zm14.344 1c0.477 0.047 0.964 0.476 0.873 0.967 0.048 0.8-1.126 1.208-1.609 0.592-0.467-0.406-0.31-1.264 0.283-1.467 0.135-0.081 0.294-0.107 0.453-0.092zm23.77 0.447c-2.595 0.182-5.163 0.846-7.778 0.641 0.033 0.075 0.1 0.224 0.133 0.299 2.448 0.245 4.86-0.466 7.299-0.572 0.24-0.008 0.355-0.13 0.346-0.368zm13.57 0.038c-0.201-0.011-0.395 0.027-0.576 0.115l0.129 0.129c1.399 0.097 2.795 0.279 4.187 0.451 1.283 0.117 2.562 0.37 3.854 0.234 0.047-0.08 0.144-0.241 0.193-0.322-0.457 0.029-0.912 0.157-1.369 0.104-1.554-0.202-3.114-0.331-4.66-0.577-0.58-0.104-1.171-0.112-1.758-0.134zm24.144 0.943c0.485 0.039 0.959 0.494 0.873 1 0.033 0.792-1.107 1.203-1.599 0.592-0.491-0.399-0.322-1.248 0.26-1.479 0.143-0.092 0.305-0.126 0.466-0.113zm17.338 0.146c0.275 0.707 0.413 1.674-0.191 2.25-0.721 0.765-1.597 1.376-2.481 1.936-0.398-0.309-0.523-0.943-0.296-1.395 0.338-0.838 1.168-1.294 1.787-1.9 0.382-0.307 0.713-0.715 1.181-0.891zm-93.433 0.352c0.2854 0.715 0.102 1.531-0.4708 2.049-0.7355 0.671-1.6111 1.173-2.3613 1.832-0.4611 0.265-0.4203-0.535-0.5137-0.799-0.0439-1.149 1.0802-1.807 1.9219-2.359 0.463-0.258 0.8511-0.739 1.4239-0.723zm14.146 0.957c0.528-0.03 1.084 0.44 1.018 1.006-0.007 0.666-0.867 1.109-1.416 0.728-0.529-0.314-0.583-1.153-0.096-1.523 0.146-0.136 0.318-0.201 0.494-0.211zm36.926 0.557c-0.973-0.017-1.944 0.05-2.918 0.261-0.467 0.174-1.196 0.23-1.295 0.823 0.831-0.31 1.661-0.725 2.568-0.733 1.106-0.036 2.212-0.026 3.317 0.041 1.542 0.205 3.083 0.415 4.631 0.576 0.752 0.085 1.519 0.164 2.271 0.043 0.048-0.065 0.142-0.199 0.19-0.265-2.926 0.103-5.845-0.697-8.764-0.746zm-14.721 0.22c-1.884 0.216-3.771 0.719-5.675 0.457-0.004 0.064-0.012 0.19-0.016 0.254 0.624 0.187 1.287 0.148 1.926 0.08 1.209-0.133 2.421-0.246 3.625-0.431l0.158-0.028c-0.006-0.082-0.014-0.247-0.018-0.332zm39.815 0.67c0.313-0.002 0.617 0.112 0.785 0.407 0.525 0.618-0.164 1.692-0.951 1.453-0.899-0.145-0.99-1.511-0.145-1.821 0.102-0.024 0.206-0.038 0.311-0.039zm17.347 0.186c0.218 0.585 0.435 1.289 0.073 1.863-0.533 0.873-1.494 1.318-2.299 1.889-0.236 0.133-0.467 0.382-0.762 0.291-0.09-0.617-0.224-1.379 0.297-1.846 0.798-0.847 1.842-1.405 2.691-2.197zm-93.771 0.224c0.1493 0.04 0.2227 0.308 0.2598 0.459 0.3001 0.703-0.197 1.397-0.6855 1.866-0.646 0.574-1.2849 1.164-1.9766 1.685-0.5215 0.306-0.5817-0.489-0.5762-0.824-0.1024-0.827 0.5704-1.428 1.1504-1.896 0.5545-0.409 1.1144-0.807 1.6524-1.239 0.0681-0.051 0.126-0.064 0.1757-0.051zm84.109 0.333c-1.254-0.011-2.507-0.017-3.759 0.005-0.019 0.432-0.033 0.865-0.02 1.297 1.184 0.077 2.375-0.021 3.559 0.047 1.266 0.19 2.552 0.075 3.828 0.115 0.293-0.364 0.326-1.002 0.154-1.439-1.253 0.001-2.508-0.015-3.762-0.025zm-38.595 0.306c-0.192-0.014-0.346 0.336-0.282 0.545 0.022 3.393-0.015 6.787 0.014 10.178 0.108 0.042 0.326 0.128 0.434 0.17 0.075-3.578 0.011-7.161 0.031-10.739-0.066-0.104-0.134-0.149-0.197-0.154zm-30.877 0.418c0.384 0.05 0.73 0.32 0.775 0.734 0.123 0.496-0.251 0.949-0.695 1.118-0.584 0.117-1.168-0.42-1.164-0.998 0.088-0.355 0.302-0.764 0.695-0.827 0.127-0.035 0.26-0.044 0.389-0.027zm36.295 0.602c-1.274-0.011-2.563 0.191-3.704 0.748l-0.08 0.371c1.834-1.003 4.001-0.816 6.004-0.635 2.284 0.174 4.542 0.798 6.844 0.576 0.006-0.091 0.018-0.274 0.023-0.365-0.406 0.035-0.793 0.198-1.201 0.187-2.206-0.269-4.412-0.599-6.625-0.806-0.415-0.046-0.837-0.073-1.261-0.076zm-7.92 0.545c-0.214-0.021-0.466 0.211-0.33 0.435 0.159 0.103 0.315 0.127 0.47 0.072 0.011-0.098 0.034-0.295 0.045-0.392-0.047-0.073-0.114-0.108-0.185-0.115zm-8.377 0.013c-1.213 0.121-2.436 0.48-3.655 0.207 0.035 0.077 0.102 0.23 0.135 0.307 0.941 0.071 1.891 0.032 2.826-0.094 0.288-0.058 0.719-0.003 0.694-0.42zm-24.121 0.153c-0.412 0.022-0.875-0.049-1.215 0.238 0 0.827 0.256 1.63 0.236 2.461-0.503 0.265-1.082 0.227-1.633 0.26-0.346-0.749-0.196-1.601-0.275-2.399-0.456-0.086-0.925-0.032-1.383 0.02-0.046 0.834 0.231 1.652 0.188 2.49-0.527 0.154-1.0744 0.227-1.6215 0.236-0.0458-0.056-0.1399-0.17-0.1875-0.226-0.0641-0.785-0.1692-1.565-0.2735-2.346-0.4135-0.022-0.8286-0.005-1.2421 0.014 0.1171 1.341 0.2555 2.682 0.3671 4.025 0.7905 0.07 1.58-0.058 2.3615-0.162 1.136-0.082 2.267-0.236 3.398-0.381 0.584-0.033 1.173-0.049 1.742-0.199 0.061-0.646-0.089-1.287-0.166-1.924-0.047-0.708-0.11-1.421-0.296-2.107zm65.822 0.129c0.416 0.013 0.811 0.231 0.877 0.699 0.234 0.792-0.809 1.568-1.457 0.986-0.631-0.362-0.504-1.389 0.166-1.633 0.132-0.039 0.275-0.057 0.414-0.052zm4.041 0.269c-0.055 0.468-0.108 0.944-0.063 1.416 1.666 0.28 3.35 0.443 5.006 0.762-0.035 0.066-0.104 0.2-0.138 0.265-1.825 0.648-3.618 1.386-5.416 2.096-0.193 0.509-0.226 1.074-0.178 1.613 2.232 0.236 4.445 0.654 6.67 0.959 0.269 0.048 0.531 0.032 0.785-0.05 0.038-0.449 0.143-0.909 0.039-1.356-1.753-0.071-3.467-0.483-5.211-0.662 0.743-0.503 1.633-0.691 2.451-1.031 1.096-0.443 2.23-0.795 3.295-1.313 0.216-0.497 0.251-1.059 0.207-1.595-1.2-0.075-2.375-0.34-3.57-0.457-1.272-0.335-2.58-0.468-3.877-0.647zm-80.195 0.119c0.2799 0.602 0.3255 1.388-0.1192 1.924-0.6477 0.86-1.5186 1.523-2.2597 2.301-0.0568 0.014-0.1678 0.048-0.2227 0.062-0.3257-0.552-0.5201-1.289-0.1523-1.871 0.4885-0.953 1.4909-1.447 2.2265-2.178 0.1336-0.155 0.3243-0.234 0.5274-0.238zm93.418 0.028c0.051 0.009 0.153 0.028 0.205 0.037 0.109 0.658 0.216 1.449-0.311 1.966-0.832 0.849-1.965 1.313-2.982 1.899-0.364-0.721-0.136-1.667 0.515-2.149 0.818-0.64 1.745-1.126 2.573-1.753zm-78.711 1.046c0.466 0.046 0.908 0.352 0.855 0.879 0.082 0.593-0.531 0.888-1.016 0.983-0.51-0.15-0.999-0.59-0.843-1.17 0.047-0.52 0.537-0.737 1.004-0.692zm25.277 0.739c-1.539-0.022-3.08 0.22-4.602 0.425-0.186 0.013-0.373 0.031-0.558 0.057-0.037 0.092-0.11 0.274-0.147 0.363 1.633-0.263 3.279-0.44 4.924-0.597 1.213-0.106 2.366 0.316 3.475 0.748-0.22-0.63-0.999-0.707-1.555-0.877-0.511-0.077-1.024-0.112-1.537-0.119zm10.072 0.009c-0.898 0.019-1.797 0.121-2.629 0.475-0.214 0.108-0.53 0.21-0.451 0.516 1.577-0.666 3.337-0.963 5.029-0.617 1.779 0.106 3.532 0.453 5.307 0.607 0.8 0.159 1.625 0.178 2.436 0.094 0.034-0.086 0.101-0.254 0.134-0.34-3.004 0.234-5.934-0.733-8.929-0.731-0.297-0.006-0.597-0.01-0.897-0.004zm25.692 0.606c0.137-0.005 0.274 0.029 0.396 0.113 0.741 0.251 0.742 1.493-0.008 1.731-0.291 0.208-0.625 0.051-0.916-0.063-0.626-0.335-0.539-1.42 0.129-1.66 0.123-0.071 0.261-0.116 0.399-0.121zm-44.231 0.129c-0.293 0.009-0.586 0.013-0.877 0.027 0.236 0.181 0.489 0.338 0.727 0.518 0.053-0.181 0.103-0.364 0.15-0.545zm-31.344 0.363c0.1519 0.333 0.2996 0.679 0.3398 1.045-0.1061 0.463-0.3059 0.907-0.6152 1.27-0.6166 0.752-1.2541 1.494-1.9824 2.142-0.2324-0.534-0.5619-1.135-0.3496-1.724 0.2269-0.932 1.0866-1.473 1.7051-2.131 0.2763-0.233 0.4851-0.646 0.9023-0.602zm93.155 0.18c0.038 0.472 0.061 0.953-0.01 1.426-0.478 0.854-1.429 1.223-2.256 1.648-0.401 0.176-0.782 0.43-1.223 0.488-0.04-0.43-0.086-0.874 0.028-1.297 0.596-0.982 1.727-1.359 2.666-1.916 0.256-0.13 0.487-0.347 0.795-0.349zm-78.092 0.804c0.614 0.097 1.157 0.881 0.689 1.438-0.248 0.47-0.821 0.45-1.269 0.348-0.553-0.337-0.629-1.303-0.022-1.62 0.186-0.154 0.397-0.198 0.602-0.166zm-4.316 0.635c-0.489 0.019-0.954 0.175-1.418 0.309-1.913 0.56-3.872 1.024-5.7388 1.701 0.0183 0.397 0.0916 0.793 0.2325 1.168 1.0668 0.128 2.0473-0.733 3.1033-0.535 0.165 0.834 0.626 1.651 0.557 2.51-0.93 0.258-1.905 0.391-2.7814 0.81 0.0476 0.425 0.1623 0.838 0.2812 1.248 1.0452-0.091 2.0142-0.585 3.0352-0.812 1.413-0.434 2.894-0.697 4.254-1.274-0.114-0.432-0.256-0.853-0.438-1.261-1.013 0.217-1.977 0.795-3.029 0.769-0.192-0.842-0.548-1.66-0.598-2.525 0.957-0.352 2.009-0.462 2.926-0.901-0.027-0.415-0.128-0.876-0.386-1.207zm28.917 0.27c-0.325 0.002-0.649 0.013-0.97 0.023-1.374 0.156-2.75 0.285-4.115 0.512-1.184 0.234-2.4 0.262-3.602 0.203-0.104-0.007-0.316-0.02-0.42-0.027 0.006 0.086 0.016 0.26 0.022 0.347 2.3 0.302 4.567-0.426 6.851-0.584 1.149-0.166 2.316-0.215 3.475-0.13 0.715 0.043 1.338 0.426 2.017 0.613-0.12-0.167-0.201-0.391-0.402-0.473-0.896-0.42-1.878-0.491-2.856-0.484zm11.112 0.008c-1.301-0.03-2.659 0.037-3.86 0.589-0.036 0.092-0.111 0.278-0.148 0.37 0.668-0.196 1.301-0.521 2.004-0.598 3.387-0.346 6.696 0.711 10.068 0.771 0.258-0.025 1.003 0.072 0.754-0.398-0.377 0.044-0.748 0.159-1.131 0.137-2.567-0.238-5.105-0.751-7.687-0.871zm24.156 0.472c0.465 0.038 0.9 0.349 0.852 0.873 0.155 0.763-0.912 1.328-1.479 0.832-0.615-0.382-0.465-1.392 0.168-1.65 0.145-0.05 0.304-0.067 0.459-0.055zm-74.658 0.369c0.613 0.542 0.6676 1.534 0.1973 2.184-0.5471 0.836-1.2138 1.588-1.8652 2.342-0.4922-0.066-0.6317-0.683-0.6446-1.1-0.0914-0.723 0.3607-1.345 0.8438-1.826 0.5105-0.514 0.9674-1.076 1.4687-1.6zm92.406 0.381c0.3 0.815 0.005 1.85-0.814 2.237-0.897 0.461-1.818 0.959-2.815 1.142-0.388-0.745 0.146-1.646 0.834-2.023 0.895-0.518 1.853-0.939 2.795-1.356zm-76.994 0.608c0.331-0.054 0.683 0.151 0.914 0.398 0.179 0.417 0.201 1.03-0.23 1.305-0.473 0.309-1.214 0.136-1.424-0.42-0.291-0.412 0.059-0.915 0.42-1.137 0.1-0.083 0.209-0.128 0.32-0.146zm65.746 0.881c-0.821-0.038-1.653 0.169-2.342 0.625-1.026 0.713-1.753 1.869-1.861 3.123-0.075 1.143 0.299 2.358 1.15 3.152 0.396 0.379 0.838 0.861 1.436 0.822 0.41-0.843 0.641-1.762 1.055-2.605 0.21-0.652 0.664-1.277 0.58-1.987-0.359-0.177-0.766-0.305-1.164-0.222-0.35 0.856-0.621 1.744-0.993 2.592-0.364 0.087-0.489-0.428-0.595-0.686-0.507-1.321 0.396-2.84 1.672-3.301 0.688-0.11 1.459-0.165 2.08 0.217 0.834 0.467 1.496 1.379 1.38 2.373 0.059 1.122-0.9 1.931-1.83 2.359-0.298 0.429-0.418 0.961-0.591 1.448 1.215 0.124 2.351-0.655 3.013-1.623 1.179-1.651 0.863-4.167-0.715-5.453-0.645-0.517-1.454-0.797-2.275-0.834zm-7.305 0.529c0.189 0.021 0.361 0.092 0.469 0.271 0.357 0.342 0.358 0.992-0.037 1.307-0.307 0.395-0.964 0.397-1.275 0.006-0.531-0.41-0.303-1.323 0.275-1.557 0.175-0.019 0.38-0.048 0.568-0.027zm-73.296 0.496c0.5672 0.172 0.7227 0.928 0.6367 1.459-0.3898 1.026-1.1574 1.84-1.7246 2.766-0.0878 0.195-0.2631 0.336-0.4863 0.285-0.4886-0.579-0.51-1.429-0.2813-2.116 0.516-0.867 1.1656-1.66 1.8555-2.394zm91.124 0.443c0.253 0.531 0.194 1.387-0.322 1.793-0.97 0.815-2.255 1.128-3.467 1.373-0.058-0.583-0.038-1.244 0.487-1.617 0.975-0.745 2.223-0.987 3.302-1.549zm-75.146 0.385c0.537 0.019 1.079 0.566 0.939 1.127-0.097 0.425-0.534 0.797-0.992 0.719-0.858 0.056-1.181-1.258-0.457-1.67 0.153-0.13 0.331-0.182 0.51-0.176zm56.068 1.285c0.115 0.013 0.226 0.053 0.328 0.129 0.635 0.32 0.671 1.22 0.122 1.647-0.324 0.115-0.681 0.108-1.012 0.043-0.527-0.24-0.546-0.913-0.363-1.381 0.216-0.262 0.583-0.476 0.925-0.438zm-71.181 0.5c0.6405 0.626 0.7323 1.646 0.2949 2.414-0.4519 0.851-1.0204 1.638-1.5273 2.457-0.8234-0.631-0.8992-1.879-0.3301-2.701 0.4831-0.75 1.0062-1.474 1.5625-2.17zm11.217 0.248c-1.81 0.884-3.687 1.629-5.497 2.518-0.239-0.355-0.392-0.758-0.593-1.131-0.436-0.077-0.836 0.16-1.184 0.391 0.388 1.295 1.053 2.509 1.664 3.716 0.423 0.05 0.791-0.208 1.139-0.404-0.061-0.463-0.404-0.84-0.43-1.308 1.861-0.822 3.684-1.727 5.551-2.538-0.05-0.433-0.282-0.818-0.473-1.203-0.044-0.009-0.132-0.032-0.177-0.041zm78.167 0.52c0.33 0.15 0.194 0.548 0.168 0.824-0.247 1.03-1.333 1.517-2.279 1.717-0.62 0.095-1.216 0.44-1.851 0.363-0.171-0.836 0.425-1.607 1.166-1.92 0.904-0.401 1.883-0.602 2.796-0.984zm-72.89 0.129c0.151 0.003 0.301 0.021 0.449 0.05 0.573 0.366 0.558 1.267-0.006 1.633-0.401 0.057-0.935 0.161-1.217-0.211-0.439-0.406-0.239-1.252 0.323-1.437 0.148-0.029 0.3-0.039 0.451-0.035zm53.115 1.127c0.686 0.014 1.286 0.893 0.783 1.476-0.234 0.469-0.807 0.487-1.246 0.344-0.673-0.386-0.544-1.488 0.166-1.77 0.099-0.036 0.199-0.052 0.297-0.05zm-35.82 0.695c-0.272 0.019-0.539 0.068-0.793 0.139-1.374 0.506-2.141 2.195-1.59 3.554 0.36 1.175 1.648 1.869 2.826 1.799 0.575-0.033 1.138-0.508 1.701-0.219 0.321 0.075 0.67 0.373 0.991 0.139 0.009-0.247 0.009-0.495-0.022-0.738-0.194-0.083-0.384-0.164-0.576-0.244 0.637-1.12 0.719-2.74-0.317-3.655-0.559-0.63-1.405-0.833-2.22-0.775zm-32.924 0.016c0.0841 0.012 0.2556 0.036 0.3398 0.048 0.5599 0.648 0.563 1.622 0.1641 2.35-0.4044 0.809-0.8287 1.607-1.2422 2.412-0.871-0.192-1.1393-1.399-0.8301-2.166 0.4355-0.929 1.0926-1.735 1.5684-2.644zm39.928 0.013c-0.172-0.015-0.333-0.002-0.442 0.133-0.051 1.36 0.12 2.739-0.195 4.078-0.412 0.47-1.149 0.482-1.563 0.006-0.199-1.354-0.02-2.732-0.095-4.096-0.267-0.201-0.646-0.078-0.959-0.086l-0.063 0.094c-0.035 1.217-0.011 2.436-0.008 3.654-0.016 1.281 1.581 2.024 2.663 1.534 0.737-0.209 1.214-0.965 1.175-1.715 0.008-1.188 0.024-2.377-0.009-3.565-0.15 0.021-0.333-0.021-0.504-0.037zm10.398 0c-0.157-0.01-0.302 0.007-0.402 0.135-0.002 1.738-0.018 3.477 0.006 5.215 0.311 0.013 0.626 0.01 0.939-0.01 0.015-1.497-0.008-2.995 0.008-4.492-0.029-0.271 0.069-0.581-0.088-0.82-0.139 0.021-0.306-0.017-0.463-0.028zm-6.853 0.012c-0.138-0.002-0.27 0.016-0.383 0.094-0.522 1.14-1.009 2.297-1.463 3.467-0.222 0.592-0.566 1.145-0.682 1.773 0.344 0.011 0.695 0.025 1.037-0.035 0.2-0.416 0.337-0.858 0.553-1.266 0.619-0.042 1.241-0.037 1.861-0.01 0.255 0.407 0.4 0.867 0.618 1.291 0.327 0.039 0.657 0.037 0.988 0.034-0.073-0.754-0.479-1.415-0.777-2.094-0.46-1.071-0.881-2.158-1.344-3.227-0.13-0.003-0.271-0.025-0.408-0.027zm9.945 0c-0.672-0.005-1.344 0.008-2.008 0.074-0.002 0.278 0.012 0.556 0.037 0.834 0.3 0.024 0.606 0.017 0.908 0.041 0.108 1.457-0.112 2.954 0.104 4.387 0.273 0.015 0.548 0.016 0.822 0 0.24-1.446 0.01-2.93 0.121-4.389 0.302-0.02 0.607-0.013 0.91-0.037 0.022-0.155 0.066-0.469 0.088-0.627 0.637 0.758 0.958 1.731 1.455 2.58 0.462 0.752 0.224 1.644 0.303 2.471 0.311 0.016 0.625 0.016 0.94-0.004 0.064-0.639-0.073-1.296 0.072-1.92 0.499-1.153 1.098-2.264 1.748-3.336-0.362-0.066-0.732-0.095-1.098-0.051-0.435 0.701-0.701 1.489-1.072 2.223-0.057-0.009-0.17-0.026-0.227-0.035-0.442-0.681-0.637-1.523-1.087-2.176-0.669-0.006-1.344-0.03-2.016-0.035zm-5.791 0.012c-0.313-0.015-0.624-0.012-0.934 0.015-0.012 1.764-0.005 3.529-0.004 5.291 0.866 0.041 1.737 0.021 2.604 0.014 0.101-0.276 0.07-0.58 0.059-0.865-0.54-0.051-1.084-0.008-1.624-0.037-0.054-1.426 0.029-2.856-0.033-4.282l-0.068-0.136zm-18.055 0.004c-0.858-0.008-1.718-0.015-2.576 0.004l-0.131 0.091c0.02 1.739-0.006 3.479 0.014 5.219 0.968 0.004 1.94 0.047 2.906-0.031 0.009-0.234 0.009-0.467-0.008-0.696-0.58-0.397-1.417 0.069-1.951-0.3 0.029-0.394-0.189-0.93 0.248-1.159 0.525-0.051 1.081 0.083 1.592-0.078-0.009-0.278-0.027-0.555-0.051-0.83-0.587-0.093-1.247 0.113-1.793-0.125-0.018-0.384-0.01-0.77 0.018-1.154 0.604-0.053 1.211-0.006 1.816-0.031-0.016-0.299 0.143-0.674-0.084-0.91zm-12.418 0.494c0.103-0.004 0.21 0.011 0.319 0.047 0.259 0.164 0.477 0.392 0.638 0.654 0.251 0.906-1.106 1.636-1.674 0.842-0.51-0.594-0.002-1.515 0.717-1.543zm70.541 0.365c0.123 0.856-0.331 1.733-1.158 2.037-0.997 0.361-2.064 0.61-3.125 0.619-0.112-0.746 0.361-1.462 1.043-1.74 1.032-0.45 2.155-0.636 3.24-0.916zm-54.34 0.012c0.294 0.016 0.578 0.091 0.819 0.275 0.867 0.496 1.045 1.761 0.523 2.565-0.573-0.171-1.018-0.611-1.584-0.805-0.527-0.258-1.124-0.143-1.685-0.172-0.125-0.767 0.39-1.456 1.052-1.783 0.279-0.053 0.582-0.097 0.875-0.08zm10.098 0.695c0.278 0.436 0.547 0.917 0.516 1.453-0.3 0.075-0.613 0.059-0.916 0.031-0.187-0.497 0.252-1.012 0.4-1.484zm23.588 0.076c0.466-0.021 0.955 0.355 1.014 0.832 0.1 0.544-0.425 1.155-0.993 1.041-0.931 0.152-1.2-1.325-0.462-1.709 0.133-0.106 0.286-0.157 0.441-0.164zm-65.978 1.076c0.6605 0.059 1.0417 0.979 0.9082 1.586-0.3093 1.135-0.9658 2.133-1.3555 3.241-0.5837-0.394-1.1078-1.047-0.9688-1.795 0.2196-1.107 0.8946-2.049 1.4161-3.032zm17.866 0.121c0.664-0.02 1.287 0.771 0.845 1.372-0.21 0.508-0.85 0.459-1.293 0.355-0.62-0.348-0.538-1.477 0.164-1.664 0.094-0.039 0.189-0.06 0.284-0.063zm12.863 0.805c0.776-0.066 1.558 0.229 2.102 0.785-0.696 0.273-1.48 0.076-2.018-0.422-0.02-0.091-0.062-0.271-0.084-0.363zm54.754 0.024c0.155 1.043-0.791 1.905-1.746 2.097-0.879 0.148-1.765 0.315-2.658 0.291-0.077-0.893 0.662-1.616 1.484-1.806 0.962-0.231 1.937-0.473 2.92-0.582zm-21.318 0.15c0.22 0.001 0.438 0.081 0.593 0.25 0.396 0.262 0.297 0.816 0.213 1.211-0.329 0.576-1.275 0.581-1.592-0.012-0.358-0.373-0.166-0.923 0.178-1.226 0.166-0.147 0.387-0.224 0.608-0.223zm-44.266 1.09c0.463 0.041 0.906 0.345 0.853 0.867 0.18 0.853-1.074 1.393-1.603 0.727-0.503-0.449-0.247-1.256 0.297-1.545 0.142-0.047 0.298-0.063 0.453-0.049zm-18.551 0.193c0.4259 0.103 0.6819 0.549 0.8649 0.92 0.238 1.387-0.6013 2.64-1.0368 3.902-0.5892 0.103-0.9642-0.574-1.1289-1.045-0.1445-1.396 0.9001-2.509 1.3008-3.777zm9.3109 0.178c-0.139-0.017-0.28-0.016-0.418 0.002-0.185 0.024-0.365 0.08-0.528 0.168-0.627 0.351-1.058 1.205-0.759 1.898 0.226 0.725 1.042 1.205 1.785 1.061 0.494-0.176 0.955-0.513 1.191-0.99 0.048-0.509 0.147-1.107-0.217-1.526-0.239-0.356-0.637-0.563-1.054-0.613zm61.718 0c-0.215 0.019-0.427 0.085-0.617 0.203-0.955 0.459-1.082 1.994-0.183 2.568 0.459 0.383 1.151 0.527 1.685 0.221 0.719-0.362 1.114-1.338 0.694-2.062-0.246-0.626-0.931-0.988-1.579-0.93zm-10.412 0.68c0.646-0.054 1.25 0.586 0.983 1.255-0.183 0.602-0.891 0.586-1.389 0.461-0.611-0.356-0.537-1.419 0.129-1.648 0.091-0.038 0.185-0.061 0.277-0.068zm22.016 0.396c0.327 0.717-0.354 1.614-1.08 1.826-1.049 0.339-2.177 0.353-3.268 0.406-0.088-0.814 0.542-1.565 1.313-1.757 0.995-0.258 2.029-0.283 3.035-0.475zm-62.045 0.545c0.332-0.024 0.676 0.042 0.871 0.336 0.426 0.637-0.085 1.65-0.906 1.529-0.926-0.062-1.147-1.492-0.285-1.816 0.102-0.023 0.209-0.041 0.32-0.049zm-19.193 0.754c0.433 0.029 0.682 0.468 0.923 0.781 0.352 1.411-0.466 2.692-0.751 4.027-0.63 0.094-1.135-0.63-1.106-1.205-0.1665-1.29 0.527-2.43 0.934-3.603zm57.158 0.047c0.594 0.076 1.141 0.789 0.797 1.367-0.225 0.445-0.752 0.589-1.209 0.461-0.708-0.189-0.777-1.317-0.166-1.664 0.176-0.145 0.38-0.19 0.578-0.164zm-35.488 0.902c0.614 0.106 1.18 0.885 0.687 1.424-0.375 0.772-1.744 0.424-1.682-0.438-0.049-0.344 0.114-0.654 0.403-0.834 0.178-0.148 0.387-0.187 0.592-0.152zm58.168 0.479c-0.011 0.911-0.846 1.712-1.747 1.73-0.962 0.037-1.928 0.046-2.89 0.002 0.046-0.617 0.463-1.172 1.045-1.379 1.147-0.424 2.393-0.271 3.592-0.353zm-25.231 0.234c0.527 0.002 1.051 0.44 0.934 1.01 0.049 0.867-1.276 1.199-1.684 0.453-0.421-0.501-0.045-1.273 0.525-1.438 0.074-0.018 0.15-0.025 0.225-0.025zm-52.857 0.699c0.305 0.227 0.604 0.479 0.814 0.803 0.326 1.381-0.288 2.713-0.527 4.053-0.632 0.047-1.026-0.551-1.227-1.071-0.232-1.022 0.259-1.991 0.502-2.961 0.108-0.287 0.138-0.663 0.438-0.824zm10.179 0.018c-0.189-0.006-0.378 0.015-0.558 0.058-0.91 0.293-1.371 1.483-0.871 2.301 0.474 0.849 1.766 1.042 2.449 0.336 0.565-0.441 0.578-1.264 0.353-1.879-0.248-0.546-0.805-0.798-1.373-0.816zm12.17 0.012c0.569-0.057 0.921 0.519 0.985 1.015-0.143 0.425-0.465 0.931-0.985 0.856-0.512 0.067-0.845-0.429-0.988-0.854 0.024-0.499 0.434-1.076 0.988-1.017zm41.717 0.003c-0.271-0.021-0.552 0.015-0.811 0.059-0.779 0.39-1.22 1.401-0.785 2.197 0.401 0.84 1.586 1.148 2.336 0.586 0.868-0.558 0.842-1.982 0.004-2.554-0.212-0.186-0.473-0.266-0.744-0.288zm-13.6 0.602c0.589 0.109 1.118 0.894 0.721 1.428-0.236 0.355-0.749 0.706-1.164 0.429-0.715-0.237-0.768-1.353-0.133-1.707 0.177-0.148 0.38-0.186 0.576-0.15zm-25.39 0.678c0.218 0.016 0.431 0.114 0.572 0.289 0.456 0.335 0.378 1.091-0.076 1.398-0.533 0.452-1.464 0.03-1.484-0.666-0.043-0.324 0.146-0.624 0.384-0.822 0.163-0.151 0.386-0.216 0.604-0.199zm51.371 0.203c-0.04 0.878-0.856 1.712-1.758 1.666-0.966-0.017-1.973 0.068-2.914-0.115-0.082-0.992 0.981-1.438 1.797-1.53 0.959-0.029 1.918-0.016 2.875-0.021zm-28.674 0.326c0.447 0.047 0.854 0.365 0.859 0.857 0.123 0.745-0.905 1.313-1.48 0.825-0.628-0.366-0.485-1.386 0.176-1.635 0.144-0.048 0.296-0.063 0.445-0.047zm-46.141 0.502c0.568 0.139 1.118 0.64 1.1 1.264 0.075 1.231-0.207 2.445-0.467 3.64-0.814-0.307-1.478-1.077-1.381-1.984 0.152-0.992 0.337-2 0.748-2.92zm25.93 0.039c0.365-0.028 0.739 0.047 0.922 0.406 0.54 0.674-0.4 1.802-1.146 1.373-0.679-0.274-0.746-1.355-0.129-1.724 0.112-0.025 0.232-0.046 0.353-0.055zm17.455 0.348c0.153 0.005 0.306 0.03 0.453 0.074 0.626 0.351 0.536 1.424-0.123 1.685-0.455 0.29-1.022-0.026-1.291-0.425-0.128-0.476-0.028-1.134 0.506-1.291 0.149-0.034 0.302-0.049 0.455-0.043zm-14.57 0.283c0.76-0.074 1.395 1.149 0.678 1.685-0.516 0.564-1.46 0.129-1.549-0.566-0.079-0.41 0.171-0.828 0.541-1.002 0.11-0.069 0.221-0.107 0.33-0.117zm11.685 0.297c0.688 0.051 1.131 0.981 0.678 1.551-0.371 0.477-1.209 0.476-1.535-0.055-0.421-0.492-0.051-1.337 0.551-1.461 0.106-0.032 0.208-0.042 0.306-0.035zm-8.859 0.168c0.519-0.051 0.991 0.349 1.082 0.871 0.121 0.805-1.054 1.383-1.592 0.748-0.523-0.428-0.289-1.299 0.285-1.568 0.075-0.027 0.151-0.044 0.225-0.051zm5.891 0.152c0.654 0.006 1.288 0.764 0.859 1.361-0.337 0.661-1.363 0.709-1.68 0-0.378-0.461 0.062-1.155 0.541-1.316 0.092-0.032 0.186-0.046 0.28-0.045zm-2.778 0.072c0.612 0.106 1.182 0.913 0.684 1.45-0.362 0.673-1.608 0.495-1.674-0.299-0.091-0.39 0.051-0.782 0.402-0.987 0.176-0.156 0.385-0.199 0.588-0.164zm34.996 0.147c1.069-0.028 2.137 0.033 3.204 0.058-0.006 0.723-0.62 1.366-1.295 1.567-0.999 0.212-1.995-0.127-2.993-0.147-0.164-0.029-0.569 0.051-0.472-0.246 0.17-0.677 0.825-1.3 1.556-1.232zm-56.296 0.178c-0.252-0.009-0.505 0.044-0.733 0.173-0.518 0.266-0.911 0.828-0.873 1.424-0.038 0.82 0.715 1.628 1.553 1.551 0.909 0.075 1.678-0.866 1.572-1.74-0.022-0.796-0.765-1.383-1.519-1.408zm43.828 0.003c-0.278-0.004-0.553 0.067-0.791 0.231-1.104 0.609-0.888 2.396 0.258 2.822 0.973 0.449 2.209-0.381 2.126-1.457 0.094-0.886-0.76-1.581-1.593-1.596zm-55.399 0.543c0.517-0.025 0.958 0.415 1.166 0.868 0.176 1.275-0.085 2.55-0.185 3.82-0.659 0.016-1.147-0.538-1.44-1.066-0.221-1.206 0.198-2.384 0.235-3.581 0.076-0.024 0.15-0.037 0.224-0.041zm66.34 1.321c0.916 0.034 1.829 0.291 2.754 0.215 0.051 0.602-0.436 1.068-0.871 1.41-1.286 0.25-2.611 0.011-3.883-0.223-0.071-0.626 0.515-1.179 1.082-1.342 0.307-0.059 0.613-0.072 0.918-0.06zm-64.418 0.681c0.811-0.058 1.413 0.756 1.451 1.502 0.033 1.073-0.015 2.148-0.183 3.207-0.624-0.124-1.226-0.541-1.442-1.156-0.174-1.182 0.006-2.382 0.174-3.553zm40.772 1.131c-0.524 0.017-1.041 0.125-1.536 0.291-0.452 1.363-1.03 2.682-1.478 4.047-0.436 1.404 0.411 3.081 1.85 3.463 1.568 0.496 3.414-0.897 3.24-2.561 0.104-0.827-0.281-1.624-0.938-2.117-0.569-0.508-1.359-0.54-2.08-0.498 0.295-0.882 0.689-1.73 0.942-2.625zm-18.26 0.006c-0.11 0.353-0.193 0.716-0.244 1.084 0.206 0.2 0.508 0.198 0.771 0.264 0.075 0.307 0.013 0.628-0.053 0.933-0.45 1.735-0.733 3.509-1.207 5.239 0.438 0.173 0.919 0.249 1.387 0.203 0.529-2.229 0.992-4.473 1.508-6.703 0.033-0.202 0.053-0.403 0.023-0.604-0.726-0.141-1.446-0.354-2.185-0.416zm39.64 0.18c0.947 0.048 1.885 0.405 2.838 0.431 0.094 0.663-0.561 1.194-1.123 1.401-1.242 0.177-2.454-0.274-3.632-0.602-0.074-0.521 0.544-0.936 0.966-1.152 0.319-0.076 0.636-0.094 0.951-0.078zm-59.966 0.51c0.829 0.02 1.434 0.824 1.466 1.607 0.054 1.025 0.035 2.054 0.022 3.08-0.792-0.007-1.468-0.665-1.596-1.428-0.199-1.081 0.014-2.18 0.108-3.259zm32.422 0.185c-0.102-0.006-0.205-0.002-0.313 0.016-1.195-0.181-2.184 1.013-2.1 2.142-0.034 0.582 0.424 1.005 0.715 1.459-0.876 0.637-1.195 1.862-0.677 2.83 0.554 1.336 2.365 1.693 3.552 1.043 0.866-0.442 1.335-1.458 1.2-2.408 0.04-0.792-0.672-1.252-1.137-1.773 0.483-0.584 0.494-1.357 0.357-2.067-0.326-0.61-0.887-1.198-1.597-1.242zm-6.02 0.014c-0.453 0.031-0.882 0.175-1.176 0.562-0.761 0.692-0.743 1.925-0.15 2.715-0.247 0.417-0.75 0.637-0.947 1.1-0.575 1.228 0.103 2.856 1.406 3.281 0.799 0.199 1.736 0.192 2.43-0.318 0.896-0.575 1.133-1.744 0.904-2.729-0.19-0.382-0.49-0.691-0.746-1.027 0.216-0.478 0.697-0.867 0.615-1.442 0.104-0.878-0.484-1.75-1.287-2.07-0.189-0.03-0.389-0.057-0.592-0.07-0.152-0.01-0.306-0.012-0.457-0.002zm30.916 1.137c1.096-0.01 2.139 0.527 3.231 0.624 0.172 0.553-0.429 0.91-0.815 1.168-1.356 0.344-2.68-0.273-3.957-0.65-0.049-0.604 0.591-0.917 1.066-1.101 0.159-0.027 0.319-0.04 0.475-0.041zm-30.758 0.154c0.34-0.044 0.701 0.093 0.879 0.41 0.203 0.545-0.166 1.236-0.803 1.117-0.75 0.077-0.966-1.058-0.402-1.424 0.101-0.055 0.213-0.088 0.326-0.103zm5.674 0.008c0.188 0.02 0.358 0.089 0.461 0.269 0.501 0.419 0.044 1.362-0.584 1.25-0.84 0.126-1.129-1.086-0.441-1.488 0.173-0.021 0.377-0.052 0.564-0.031zm-29.816 0.263c0.523 0.004 1.056 0.549 1.234 1.039 0.366 1.144 0.364 2.366 0.398 3.557-1.004 0.035-1.743-0.866-1.828-1.807-0.049-0.918-0.031-1.839-0.025-2.756 0.073-0.023 0.146-0.033 0.221-0.033zm52.185 1.334c1.248-0.074 2.434 0.464 3.617 0.815 0.021 0.49-0.468 0.765-0.81 1.027-1.411 0.452-2.703-0.474-4.004-0.867-0.088-0.43 0.329-0.729 0.658-0.902 0.181-0.038 0.361-0.062 0.539-0.073zm-16.631 0.186c0.691-0.027 1.406 0.503 1.381 1.26 0.123 0.918-1.043 1.761-1.832 1.169-0.807-0.442-0.951-1.636-0.203-2.207 0.197-0.144 0.424-0.213 0.654-0.222zm-33.382 0.109c0.841 0.031 1.553 0.7 1.705 1.516 0.206 1.001 0.372 2.026 0.31 3.051-0.573-0.123-1.223-0.325-1.517-0.879-0.615-1.118-0.566-2.458-0.498-3.688zm21.935 1.022c0.146 0.007 0.292 0.042 0.43 0.107 0.269 0.201 0.525 0.449 0.662 0.762 0.117 0.541-0.207 1.056-0.633 1.361-0.362 0.072-0.737 0.07-1.098 0.002-0.461-0.368-0.885-1.085-0.461-1.631 0.226-0.402 0.662-0.625 1.1-0.601zm5.973 0.015c0.294 0.049 0.572 0.205 0.748 0.45 0.485 0.523 0.214 1.363-0.315 1.748-0.408 0.098-0.845 0.099-1.25-0.016-0.657-0.479-0.759-1.521-0.023-1.984 0.236-0.187 0.546-0.246 0.84-0.198zm19.974 0.137c0.234 0.013 0.46 0.047 0.659 0.088 0.911 0.316 1.813 0.667 2.72 1-0.269 0.368-0.582 0.713-0.959 0.971-1.502 0.399-2.764-0.698-4.074-1.225 0.196-0.72 0.953-0.872 1.654-0.834zm-45.086 0.361c0.694 0.048 1.242 0.642 1.401 1.313 0.258 0.99 0.502 1.994 0.597 3.014-0.711 0.089-1.403-0.31-1.736-0.932-0.578-1.025-0.537-2.243-0.566-3.381 0.104-0.017 0.205-0.02 0.304-0.014zm42.223 0.965c1.243-0.029 2.325 0.903 3.484 1.289-0.009 0.092-0.028 0.276-0.039 0.367-0.664 0.773-1.841 0.754-2.677 0.29-0.641-0.332-1.274-0.678-1.909-1.016-0.15-0.414 0.32-0.656 0.598-0.854 0.185-0.047 0.366-0.072 0.543-0.076zm-40.072 0.237c0.664-0.118 1.343 0.252 1.658 0.837 0.511 0.895 0.59 1.944 0.91 2.907 0.018 0.133 0.056 0.399 0.074 0.531-0.444 0.179-0.969-0.113-1.382-0.307-0.763-0.633-0.87-1.69-1.077-2.595-0.058-0.456-0.304-0.912-0.183-1.373zm37.545 0.88c0.186 0.013 0.372 0.061 0.554 0.153 0.987 0.459 2.014 0.907 2.887 1.556-0.432 0.471-1.017 0.967-1.707 0.825-1.217-0.262-2.117-1.209-3.221-1.729l-0.025-0.154c0.403-0.402 0.954-0.688 1.512-0.651zm-34.319 0.323c0.31 0.02 0.61 0.133 0.825 0.365 0.649 0.638 0.797 1.575 1.089 2.398 0.13 0.438 0.362 0.856 0.368 1.323-0.531 0.038-1.114 0.01-1.518-0.381-1.061-0.891-0.942-2.414-1.469-3.594 0.124-0.049 0.258-0.084 0.395-0.102 0.102-0.013 0.207-0.016 0.31-0.009zm31.639 0.759c0.16 0.014 0.318 0.052 0.471 0.116 1.046 0.426 1.931 1.152 2.914 1.701-0.507 0.633-1.438 1.002-2.199 0.603-0.89-0.406-1.681-1.021-2.416-1.654-0.019-0.066-0.052-0.196-0.071-0.262 0.334-0.367 0.821-0.545 1.301-0.504zm-28.871 0.192c0.25 0.021 0.486 0.09 0.674 0.281 0.79 0.661 1 1.725 1.414 2.621 0.11 0.362 0.398 0.708 0.301 1.104-0.595 0.082-1.253-0.015-1.664-0.489-0.875-0.969-1.084-2.311-1.479-3.511 0.241-0.002 0.504-0.027 0.754-0.006zm25.779 0.689c0.39-0.029 0.787 0.06 1.121 0.28 0.827 0.486 1.582 1.085 2.393 1.597 0.011 0.057 0.032 0.17 0.041 0.227-0.534 0.455-1.267 0.698-1.951 0.449-1.014-0.437-1.773-1.273-2.635-1.932-0.013-0.049-0.036-0.148-0.049-0.197 0.308-0.249 0.69-0.395 1.08-0.424zm-22.931 0.192c0.283 0.014 0.552 0.088 0.761 0.306 0.635 0.571 0.925 1.4 1.287 2.151 0.174 0.415 0.458 0.798 0.498 1.261-0.587 0.021-1.296 0.145-1.732-0.351-0.895-0.891-1.196-2.186-1.664-3.324 0.268-0.014 0.566-0.058 0.85-0.043zm19.962 0.425c1.126-0.073 1.944 0.894 2.78 1.51 0.278 0.284 0.81 0.439 0.83 0.889-0.54 0.476-1.31 0.438-1.973 0.324-0.979-0.52-1.664-1.43-2.506-2.125 0.046-0.397 0.58-0.427 0.869-0.598zm-17.365 0.151c0.416 0.007 0.819 0.115 1.11 0.447 0.871 0.827 1.206 2.032 1.89 2.996-0.688 0.551-1.737 0.171-2.209-0.506-0.574-0.807-1.008-1.719-1.34-2.648 0.033-0.068 0.1-0.2 0.133-0.268 0.137-0.015 0.278-0.024 0.416-0.021zm14.676 0.373c0.143-0.001 0.282 0.011 0.402 0.027 0.985 0.381 1.689 1.222 2.467 1.905 0.172 0.204 0.505 0.337 0.488 0.648-0.501 0.306-1.101 0.476-1.685 0.322-1.193-0.454-1.805-1.662-2.742-2.441 0.171-0.356 0.642-0.459 1.07-0.461zm-11.678 0.014c0.24 0.011 0.473 0.066 0.676 0.212 0.849 0.529 1.229 1.495 1.785 2.28 0.2 0.309 0.511 0.579 0.528 0.974-0.661 0.07-1.447 0.215-1.983-0.281-0.626-0.569-0.94-1.375-1.389-2.074-0.15-0.335-0.515-0.673-0.337-1.065 0.233-0.026 0.48-0.058 0.72-0.046zm8.604 0.203c0.087-0.009 0.174-0.01 0.26 0 0.114 0.012 0.228 0.044 0.337 0.103 1.23 0.509 1.904 1.734 2.881 2.569-0.346 0.592-1.126 0.472-1.703 0.418-0.915-0.343-1.417-1.243-2.037-1.938-0.214-0.293-0.612-0.542-0.508-0.955 0.246-0.074 0.509-0.17 0.77-0.197zm-2.715 0.117c0.343 0.017 0.679 0.133 0.937 0.357 0.635 0.463 1.009 1.176 1.565 1.721 0.23 0.293 0.583 0.547 0.627 0.947-0.619 0.412-1.471 0.415-2.053-0.068-0.84-0.684-1.382-1.647-2.041-2.488l-0.016-0.245c0.288-0.162 0.638-0.242 0.981-0.224zm-3.031 0.01c0.7 0.022 1.357 0.511 1.736 1.111 0.443 0.721 1.086 1.304 1.494 2.045-0.668 0.227-1.532 0.366-2.09-0.176-0.781-0.703-1.283-1.649-1.841-2.523-0.002-0.077-0.004-0.234-0.006-0.311 0.234-0.11 0.473-0.154 0.707-0.146z" transform="scale(.8)"/>
 </g>
</svg>
